{"glyphs":{"0":{"ha":833,"x_min":43,"x_max":790,"o":"m 417 -15 q 140 117 236 -15 q 43 493 43 250 q 86 769 43 657 q 213 938 129 881 q 417 994 296 994 q 694 867 599 994 q 790 494 790 739 q 747 218 790 332 q 621 44 704 104 q 417 -15 538 -15 m 417 188 q 516 260 483 188 q 549 494 549 333 q 516 723 549 654 q 417 792 483 792 q 317 723 350 792 q 285 494 285 654 q 317 260 285 333 q 417 188 350 188 z "},"1":{"ha":833,"x_min":100,"x_max":814,"o":"m 218 0 q 140 27 167 0 q 113 104 113 54 q 140 181 113 154 q 218 207 167 207 l 343 207 l 343 775 l 460 775 l 258 651 q 190 634 222 629 q 136 661 158 639 q 107 715 114 683 q 113 779 100 747 q 163 833 125 811 l 354 953 q 417 982 385 972 q 486 992 450 992 q 568 965 539 992 q 597 886 597 938 l 597 207 l 708 207 q 787 181 760 207 q 814 104 814 154 q 787 27 814 54 q 708 0 760 0 l 218 0 z "},"2":{"ha":833,"x_min":57,"x_max":789,"o":"m 200 0 q 112 28 139 0 q 85 113 85 57 q 102 182 85 151 q 147 242 119 213 l 390 496 q 467 596 444 554 q 490 679 490 638 q 456 758 490 732 q 356 785 421 785 q 285 776 322 785 q 204 744 247 767 q 137 735 167 728 q 87 765 107 742 q 62 819 67 789 q 71 880 57 850 q 121 929 85 910 q 253 979 185 964 q 392 994 322 994 q 583 961 506 994 q 700 865 660 928 q 740 708 740 801 q 723 594 740 650 q 667 483 706 539 q 565 365 629 428 l 340 143 l 340 207 l 683 207 q 762 181 735 207 q 789 104 789 154 q 762 27 789 54 q 683 0 735 0 l 200 0 z "},"3":{"ha":833,"x_min":44,"x_max":771,"o":"m 388 -15 q 246 -1 317 -15 q 124 38 175 13 q 62 89 79 58 q 47 151 44 119 q 70 208 50 183 q 123 242 90 233 q 197 233 156 251 q 292 203 249 211 q 378 194 335 194 q 461 206 428 194 q 511 240 494 217 q 528 297 528 263 q 494 369 528 346 q 394 392 460 392 l 319 392 q 239 418 267 392 q 211 493 211 444 q 239 568 211 542 q 319 594 267 594 l 369 594 q 438 606 410 594 q 482 638 467 617 q 497 692 497 660 q 465 761 497 738 q 368 785 432 785 q 289 776 329 785 q 203 747 249 768 q 137 740 167 732 q 88 773 107 749 q 65 827 69 797 q 75 886 61 857 q 128 935 89 915 q 255 979 186 964 q 393 994 324 994 q 581 963 503 994 q 699 870 658 931 q 740 725 740 810 q 719 622 740 669 q 658 544 699 575 q 564 499 618 513 l 564 518 q 716 437 661 503 q 771 272 771 371 q 725 118 771 183 q 593 19 679 53 q 388 -15 507 -15 z "},"4":{"ha":833,"x_min":32,"x_max":826,"o":"m 564 -12 q 473 19 506 -12 q 440 114 440 51 l 440 164 l 161 164 q 66 192 100 164 q 32 276 32 219 q 44 341 32 310 q 89 417 57 372 l 428 911 q 490 972 456 953 q 572 992 525 992 q 656 960 625 992 q 686 865 686 929 l 686 357 l 719 357 q 799 332 772 357 q 826 261 826 307 q 799 189 826 214 q 719 164 772 164 l 686 164 l 686 114 q 655 20 686 53 q 564 -12 624 -12 m 440 357 l 440 685 l 479 685 l 218 297 l 218 357 l 440 357 z "},"5":{"ha":833,"x_min":67,"x_max":796,"o":"m 410 -15 q 269 0 343 -15 q 133 47 196 15 q 81 98 96 67 q 72 161 67 129 q 97 218 76 193 q 148 251 117 243 q 217 239 179 258 q 312 206 263 217 q 404 194 361 194 q 485 208 451 194 q 535 249 518 222 q 553 311 553 275 q 515 399 553 367 q 415 431 478 431 q 355 422 388 431 q 288 390 322 414 q 246 372 272 382 q 192 361 219 361 q 118 385 142 361 q 94 451 94 408 l 94 871 q 123 951 94 924 q 203 979 151 979 l 639 979 q 718 953 690 979 q 746 875 746 926 q 718 799 746 825 q 639 772 690 772 l 335 772 l 335 554 l 276 554 q 364 613 310 593 q 482 633 418 633 q 646 594 575 633 q 756 483 717 554 q 796 318 796 413 q 749 142 796 218 q 616 26 703 67 q 410 -15 529 -15 z "},"6":{"ha":833,"x_min":53,"x_max":794,"o":"m 456 -15 q 237 43 326 -15 q 100 212 147 101 q 53 481 53 322 q 83 697 53 601 q 172 859 114 793 q 314 960 231 925 q 503 994 397 994 q 618 981 560 994 q 729 939 676 967 q 775 894 763 922 q 784 834 788 865 q 763 778 781 803 q 715 744 744 754 q 647 751 685 735 q 569 778 606 771 q 500 785 533 785 q 385 756 431 785 q 315 670 339 728 q 292 526 292 613 l 292 454 l 271 454 q 317 556 283 514 q 399 621 350 599 q 510 643 449 643 q 656 602 592 643 q 757 489 719 561 q 794 325 794 417 q 751 149 794 225 q 632 28 708 72 q 456 -15 556 -15 m 442 179 q 505 196 478 179 q 547 243 532 213 q 561 314 561 274 q 547 385 561 356 q 505 433 532 415 q 442 450 478 450 q 380 433 407 450 q 338 385 353 415 q 322 314 322 356 q 338 243 322 274 q 380 196 353 213 q 442 179 407 179 z "},"7":{"ha":833,"x_min":42,"x_max":792,"o":"m 246 -12 q 169 9 199 -12 q 136 67 140 31 q 156 146 132 103 l 540 844 l 540 771 l 150 771 q 70 797 99 771 q 42 875 42 824 q 70 953 42 926 q 150 979 99 979 l 672 979 q 758 951 724 979 q 792 872 792 924 q 778 795 792 828 q 746 726 765 763 l 390 68 q 334 6 368 25 q 246 -12 300 -12 z "},"8":{"ha":833,"x_min":35,"x_max":799,"o":"m 417 -15 q 213 19 299 -15 q 81 117 126 53 q 35 268 35 181 q 63 393 35 339 q 142 481 92 447 q 256 522 192 515 l 256 482 q 115 567 169 500 q 61 726 61 633 q 104 871 61 811 q 228 963 147 931 q 417 994 308 994 q 606 963 526 994 q 729 871 686 931 q 772 726 772 811 q 748 612 772 664 q 681 526 724 560 q 583 483 639 493 l 583 522 q 738 440 678 508 q 799 268 799 371 q 753 117 799 181 q 622 19 707 53 q 417 -15 536 -15 m 417 176 q 529 205 490 176 q 568 288 568 233 q 529 371 568 343 q 417 399 490 399 q 304 371 343 399 q 265 288 265 343 q 304 205 265 233 q 417 176 343 176 m 417 592 q 485 604 457 592 q 527 641 513 617 q 542 697 542 665 q 508 774 542 746 q 417 803 475 803 q 326 774 358 803 q 293 697 293 746 q 326 620 293 649 q 417 592 358 592 z "},"9":{"ha":833,"x_min":39,"x_max":781,"o":"m 331 -15 q 215 -1 274 -15 q 104 40 157 13 q 58 85 71 57 q 49 145 46 114 q 71 201 53 176 q 119 235 89 225 q 186 228 149 244 q 264 201 228 208 q 333 194 300 194 q 449 223 403 194 q 519 309 496 251 q 542 453 542 367 l 542 525 l 563 525 q 517 424 551 467 q 434 358 483 381 q 324 336 385 336 q 178 377 243 336 q 76 491 114 418 q 39 654 39 564 q 82 831 39 754 q 202 951 125 907 q 378 994 279 994 q 597 936 507 994 q 733 767 686 878 q 781 499 781 657 q 750 282 781 378 q 661 120 719 186 q 519 19 603 54 q 331 -15 436 -15 m 392 531 q 455 548 428 531 q 497 595 482 565 q 511 665 511 625 q 497 738 511 707 q 455 784 482 768 q 392 800 428 800 q 329 784 356 800 q 288 738 303 768 q 272 665 272 707 q 288 595 272 625 q 329 548 303 565 q 392 531 356 531 z "},"A":{"ha":1060,"x_min":19,"x_max":1043,"o":"m 135 -12 q 63 8 92 -12 q 26 63 33 28 q 39 143 19 99 l 385 888 q 447 967 410 942 q 531 992 483 992 q 613 967 578 992 q 675 888 649 942 l 1021 143 q 1037 63 1043 99 q 1002 7 1031 26 q 932 -12 974 -12 q 847 13 876 -12 q 793 93 817 38 l 718 269 l 815 199 l 243 199 l 342 269 l 267 93 q 215 13 242 38 q 135 -12 189 -12 m 528 713 l 367 328 l 328 394 l 732 394 l 693 328 l 531 713 l 528 713 z "},"Á":{"ha":1060,"x_min":19,"x_max":1043,"o":"m 135 -12 q 63 8 92 -12 q 26 63 33 28 q 39 143 19 99 l 385 888 q 447 967 410 942 q 531 992 483 992 q 613 967 578 992 q 675 888 649 942 l 1021 143 q 1037 63 1043 99 q 1002 7 1031 26 q 932 -12 974 -12 q 847 13 876 -12 q 793 93 817 38 l 718 269 l 815 199 l 243 199 l 342 269 l 267 93 q 215 13 242 38 q 135 -12 189 -12 m 528 713 l 367 328 l 328 394 l 732 394 l 693 328 l 531 713 l 528 713 m 625 1074 q 574 1050 601 1050 q 526 1066 547 1050 q 497 1106 504 1082 q 508 1157 490 1131 l 599 1292 q 646 1326 618 1321 q 700 1322 674 1332 q 744 1290 726 1311 q 764 1242 763 1268 q 740 1190 765 1215 l 625 1074 z "},"Ă":{"ha":1060,"x_min":19,"x_max":1043,"o":"m 135 -12 q 63 8 92 -12 q 26 63 33 28 q 39 143 19 99 l 385 888 q 447 967 410 942 q 531 992 483 992 q 613 967 578 992 q 675 888 649 942 l 1021 143 q 1037 63 1043 99 q 1002 7 1031 26 q 932 -12 974 -12 q 847 13 876 -12 q 793 93 817 38 l 718 269 l 815 199 l 243 199 l 342 269 l 267 93 q 215 13 242 38 q 135 -12 189 -12 m 528 713 l 367 328 l 328 394 l 732 394 l 693 328 l 531 713 l 528 713 m 529 1056 q 362 1101 432 1056 q 268 1222 292 1147 q 270 1284 253 1260 q 318 1311 288 1308 q 362 1305 346 1314 q 388 1282 378 1296 q 407 1257 399 1268 q 456 1208 424 1224 q 529 1193 488 1193 q 603 1208 571 1193 q 651 1257 635 1224 q 671 1282 661 1268 q 697 1305 681 1296 q 740 1311 713 1314 q 787 1285 771 1308 q 790 1222 803 1261 q 697 1101 768 1147 q 529 1056 626 1056 z "},"Ắ":{"ha":1060,"x_min":19,"x_max":1043,"o":"m 135 -12 q 63 8 92 -12 q 26 63 33 28 q 39 143 19 99 l 385 888 q 447 967 410 942 q 531 992 483 992 q 613 967 578 992 q 675 888 649 942 l 1021 143 q 1037 63 1043 99 q 1002 7 1031 26 q 932 -12 974 -12 q 847 13 876 -12 q 793 93 817 38 l 718 269 l 815 199 l 243 199 l 342 269 l 267 93 q 215 13 242 38 q 135 -12 189 -12 m 528 713 l 367 328 l 328 394 l 732 394 l 693 328 l 531 713 l 528 713 m 529 1056 q 372 1098 438 1056 q 282 1211 307 1140 q 284 1265 271 1244 q 321 1289 297 1286 q 364 1281 347 1292 q 400 1244 381 1269 q 449 1201 417 1218 q 529 1183 481 1183 q 610 1200 579 1183 q 658 1243 642 1217 q 694 1281 678 1269 q 738 1289 711 1292 q 776 1267 763 1286 q 779 1217 789 1247 q 728 1132 763 1168 q 642 1076 693 1096 q 529 1056 592 1056 m 596 1256 q 549 1229 574 1232 q 503 1238 524 1226 q 474 1272 482 1250 q 478 1321 467 1294 l 522 1411 q 563 1451 536 1443 q 616 1453 589 1460 q 663 1426 643 1446 q 684 1380 682 1406 q 661 1326 686 1354 l 596 1256 z "},"Ặ":{"ha":1060,"x_min":19,"x_max":1043,"o":"m 135 -12 q 63 8 92 -12 q 26 63 33 28 q 39 143 19 99 l 385 888 q 447 967 410 942 q 531 992 483 992 q 613 967 578 992 q 675 888 649 942 l 1021 143 q 1037 63 1043 99 q 1002 7 1031 26 q 932 -12 974 -12 q 847 13 876 -12 q 793 93 817 38 l 718 269 l 815 199 l 243 199 l 342 269 l 267 93 q 215 13 242 38 q 135 -12 189 -12 m 528 713 l 367 328 l 328 394 l 732 394 l 693 328 l 531 713 l 528 713 m 531 -319 q 443 -290 474 -319 q 413 -207 413 -260 q 443 -124 413 -153 q 531 -96 474 -96 q 619 -124 589 -96 q 649 -207 649 -153 q 619 -290 649 -261 q 531 -319 589 -319 m 529 1056 q 362 1101 432 1056 q 268 1222 292 1147 q 270 1284 253 1260 q 318 1311 288 1308 q 362 1305 346 1314 q 388 1282 378 1296 q 407 1257 399 1268 q 456 1208 424 1224 q 529 1193 488 1193 q 603 1208 571 1193 q 651 1257 635 1224 q 671 1282 661 1268 q 697 1305 681 1296 q 740 1311 713 1314 q 787 1285 771 1308 q 790 1222 803 1261 q 697 1101 768 1147 q 529 1056 626 1056 z "},"Ằ":{"ha":1060,"x_min":19,"x_max":1043,"o":"m 135 -12 q 63 8 92 -12 q 26 63 33 28 q 39 143 19 99 l 385 888 q 447 967 410 942 q 531 992 483 992 q 613 967 578 992 q 675 888 649 942 l 1021 143 q 1037 63 1043 99 q 1002 7 1031 26 q 932 -12 974 -12 q 847 13 876 -12 q 793 93 817 38 l 718 269 l 815 199 l 243 199 l 342 269 l 267 93 q 215 13 242 38 q 135 -12 189 -12 m 528 713 l 367 328 l 328 394 l 732 394 l 693 328 l 531 713 l 528 713 m 529 1056 q 369 1099 435 1056 q 279 1217 304 1143 q 283 1267 269 1247 q 321 1289 296 1286 q 364 1281 347 1292 q 400 1243 381 1269 q 449 1200 417 1217 q 529 1183 481 1183 q 610 1201 579 1183 q 658 1244 642 1218 q 694 1281 678 1269 q 738 1289 711 1292 q 775 1265 761 1286 q 776 1211 789 1244 q 725 1128 760 1164 q 641 1074 690 1093 q 529 1056 592 1056 m 463 1256 l 397 1326 q 374 1380 372 1354 q 396 1426 376 1406 q 442 1453 415 1446 q 496 1451 469 1460 q 536 1411 522 1443 l 581 1321 q 584 1272 592 1294 q 556 1238 576 1250 q 510 1229 535 1226 q 463 1256 485 1232 z "},"Ẳ":{"ha":1060,"x_min":19,"x_max":1043,"o":"m 135 -12 q 63 8 92 -12 q 26 63 33 28 q 39 143 19 99 l 385 888 q 447 967 410 942 q 531 992 483 992 q 613 967 578 992 q 675 888 649 942 l 1021 143 q 1037 63 1043 99 q 1002 7 1031 26 q 932 -12 974 -12 q 847 13 876 -12 q 793 93 817 38 l 718 269 l 815 199 l 243 199 l 342 269 l 267 93 q 215 13 242 38 q 135 -12 189 -12 m 528 713 l 367 328 l 328 394 l 732 394 l 693 328 l 531 713 l 528 713 m 529 1056 q 372 1098 438 1056 q 282 1211 307 1140 q 284 1265 271 1244 q 321 1289 297 1286 q 364 1281 347 1292 q 400 1244 381 1269 q 449 1201 417 1218 q 529 1183 481 1183 q 610 1200 579 1183 q 658 1243 642 1217 q 694 1281 678 1269 q 738 1289 711 1292 q 776 1267 763 1286 q 779 1217 789 1247 q 728 1132 763 1168 q 642 1076 693 1096 q 529 1056 592 1056 m 586 1246 q 551 1235 571 1236 q 513 1240 531 1233 q 490 1257 496 1246 q 496 1283 483 1268 q 515 1307 508 1296 q 521 1329 521 1318 q 511 1347 521 1342 q 485 1353 501 1353 q 469 1352 478 1353 q 450 1349 460 1351 q 411 1351 426 1344 q 390 1376 396 1357 q 391 1411 383 1396 q 424 1433 399 1426 q 479 1444 451 1440 q 539 1447 507 1447 q 640 1428 604 1447 q 676 1369 676 1408 q 664 1323 676 1346 q 631 1281 651 1300 q 586 1246 610 1261 z "},"Ẵ":{"ha":1060,"x_min":19,"x_max":1043,"o":"m 135 -12 q 63 8 92 -12 q 26 63 33 28 q 39 143 19 99 l 385 888 q 447 967 410 942 q 531 992 483 992 q 613 967 578 992 q 675 888 649 942 l 1021 143 q 1037 63 1043 99 q 1002 7 1031 26 q 932 -12 974 -12 q 847 13 876 -12 q 793 93 817 38 l 718 269 l 815 199 l 243 199 l 342 269 l 267 93 q 215 13 242 38 q 135 -12 189 -12 m 528 713 l 367 328 l 328 394 l 732 394 l 693 328 l 531 713 l 528 713 m 529 1056 q 389 1084 450 1056 q 296 1161 328 1113 q 284 1213 275 1189 q 318 1244 293 1236 q 365 1244 347 1253 q 407 1219 383 1236 q 457 1193 426 1203 q 529 1183 488 1183 q 601 1193 571 1183 q 650 1219 632 1203 q 693 1245 674 1238 q 740 1244 713 1253 q 774 1215 765 1236 q 768 1168 783 1194 q 675 1086 738 1117 q 529 1056 613 1056 m 322 1276 q 282 1295 296 1278 q 278 1340 268 1313 q 336 1419 294 1392 q 435 1447 378 1447 q 504 1435 472 1447 q 564 1412 536 1424 q 615 1400 592 1400 q 647 1403 633 1400 q 669 1417 661 1407 q 700 1442 686 1432 q 736 1451 714 1453 q 778 1433 764 1450 q 782 1388 792 1417 q 724 1308 765 1336 q 624 1281 682 1281 q 555 1293 588 1281 q 495 1317 522 1306 q 443 1328 468 1328 q 413 1324 426 1328 q 390 1310 399 1321 q 360 1286 374 1297 q 322 1276 346 1275 z "},"Ǎ":{"ha":1060,"x_min":19,"x_max":1043,"o":"m 135 -12 q 63 8 92 -12 q 26 63 33 28 q 39 143 19 99 l 385 888 q 447 967 410 942 q 531 992 483 992 q 613 967 578 992 q 675 888 649 942 l 1021 143 q 1037 63 1043 99 q 1002 7 1031 26 q 932 -12 974 -12 q 847 13 876 -12 q 793 93 817 38 l 718 269 l 815 199 l 243 199 l 342 269 l 267 93 q 215 13 242 38 q 135 -12 189 -12 m 528 713 l 367 328 l 328 394 l 732 394 l 693 328 l 531 713 l 528 713 m 529 1040 q 452 1059 486 1040 q 390 1115 418 1078 l 315 1219 q 303 1269 297 1246 q 332 1307 310 1293 q 382 1319 354 1321 q 432 1293 410 1318 l 529 1186 l 626 1293 q 678 1319 650 1318 q 727 1307 706 1321 q 755 1269 749 1293 q 743 1219 761 1246 l 668 1115 q 607 1059 642 1078 q 529 1040 572 1040 z "},"Â":{"ha":1060,"x_min":19,"x_max":1043,"o":"m 135 -12 q 63 8 92 -12 q 26 63 33 28 q 39 143 19 99 l 385 888 q 447 967 410 942 q 531 992 483 992 q 613 967 578 992 q 675 888 649 942 l 1021 143 q 1037 63 1043 99 q 1002 7 1031 26 q 932 -12 974 -12 q 847 13 876 -12 q 793 93 817 38 l 718 269 l 815 199 l 243 199 l 342 269 l 267 93 q 215 13 242 38 q 135 -12 189 -12 m 528 713 l 367 328 l 328 394 l 732 394 l 693 328 l 531 713 l 528 713 m 432 1075 q 382 1050 410 1051 q 332 1063 354 1049 q 303 1100 310 1076 q 315 1149 297 1124 l 390 1254 q 452 1311 418 1293 q 529 1329 486 1329 q 607 1311 572 1329 q 668 1254 642 1293 l 743 1149 q 756 1100 763 1124 q 727 1063 749 1076 q 678 1050 706 1049 q 626 1075 650 1051 l 529 1182 l 432 1075 z "},"Ấ":{"ha":1060,"x_min":19,"x_max":1043,"o":"m 135 -12 q 63 8 92 -12 q 26 63 33 28 q 39 143 19 99 l 385 888 q 447 967 410 942 q 531 992 483 992 q 613 967 578 992 q 675 888 649 942 l 1021 143 q 1037 63 1043 99 q 1002 7 1031 26 q 932 -12 974 -12 q 847 13 876 -12 q 793 93 817 38 l 718 269 l 815 199 l 243 199 l 342 269 l 267 93 q 215 13 242 38 q 135 -12 189 -12 m 528 713 l 367 328 l 328 394 l 732 394 l 693 328 l 531 713 l 528 713 m 429 1069 q 379 1043 404 1046 q 335 1054 354 1040 q 310 1090 315 1068 q 324 1140 306 1113 l 393 1243 q 453 1300 421 1283 q 529 1317 486 1317 q 583 1310 558 1317 q 627 1287 607 1303 q 665 1243 647 1271 l 735 1140 q 748 1090 753 1113 q 724 1054 743 1068 q 680 1043 706 1040 q 629 1069 654 1046 l 529 1171 l 429 1069 m 825 1204 q 785 1179 807 1182 q 747 1187 764 1176 q 724 1218 729 1197 q 732 1265 718 1239 l 807 1404 q 844 1438 822 1431 q 890 1439 867 1446 q 928 1415 913 1432 q 946 1374 944 1397 q 926 1326 947 1350 l 825 1204 z "},"Ậ":{"ha":1060,"x_min":19,"x_max":1043,"o":"m 135 -12 q 63 8 92 -12 q 26 63 33 28 q 39 143 19 99 l 385 888 q 447 967 410 942 q 531 992 483 992 q 613 967 578 992 q 675 888 649 942 l 1021 143 q 1037 63 1043 99 q 1002 7 1031 26 q 932 -12 974 -12 q 847 13 876 -12 q 793 93 817 38 l 718 269 l 815 199 l 243 199 l 342 269 l 267 93 q 215 13 242 38 q 135 -12 189 -12 m 528 713 l 367 328 l 328 394 l 732 394 l 693 328 l 531 713 l 528 713 m 531 -319 q 443 -290 474 -319 q 413 -207 413 -260 q 443 -124 413 -153 q 531 -96 474 -96 q 619 -124 589 -96 q 649 -207 649 -153 q 619 -290 649 -261 q 531 -319 589 -319 m 432 1075 q 382 1050 410 1051 q 332 1063 354 1049 q 303 1100 310 1076 q 315 1149 297 1124 l 390 1254 q 452 1311 418 1293 q 529 1329 486 1329 q 607 1311 572 1329 q 668 1254 642 1293 l 743 1149 q 756 1100 763 1124 q 727 1063 749 1076 q 678 1050 706 1049 q 626 1075 650 1051 l 529 1182 l 432 1075 z "},"Ầ":{"ha":1060,"x_min":19,"x_max":1043,"o":"m 135 -12 q 63 8 92 -12 q 26 63 33 28 q 39 143 19 99 l 385 888 q 447 967 410 942 q 531 992 483 992 q 613 967 578 992 q 675 888 649 942 l 1021 143 q 1037 63 1043 99 q 1002 7 1031 26 q 932 -12 974 -12 q 847 13 876 -12 q 793 93 817 38 l 718 269 l 815 199 l 243 199 l 342 269 l 267 93 q 215 13 242 38 q 135 -12 189 -12 m 528 713 l 367 328 l 328 394 l 732 394 l 693 328 l 531 713 l 528 713 m 429 1069 q 379 1043 404 1046 q 335 1054 354 1040 q 310 1090 315 1068 q 324 1140 306 1113 l 393 1243 q 453 1300 421 1283 q 529 1317 486 1317 q 583 1310 558 1317 q 627 1287 607 1303 q 665 1243 647 1271 l 735 1140 q 748 1090 753 1113 q 724 1054 743 1068 q 680 1043 706 1040 q 629 1069 654 1046 l 529 1171 l 429 1069 m 768 1204 l 667 1326 q 647 1374 646 1350 q 665 1415 649 1397 q 703 1439 681 1432 q 749 1438 726 1446 q 786 1404 772 1431 l 861 1265 q 869 1218 875 1239 q 847 1187 864 1197 q 808 1179 829 1176 q 768 1204 786 1182 z "},"Ẩ":{"ha":1060,"x_min":19,"x_max":1043,"o":"m 135 -12 q 63 8 92 -12 q 26 63 33 28 q 39 143 19 99 l 385 888 q 447 967 410 942 q 531 992 483 992 q 613 967 578 992 q 675 888 649 942 l 1021 143 q 1037 63 1043 99 q 1002 7 1031 26 q 932 -12 974 -12 q 847 13 876 -12 q 793 93 817 38 l 718 269 l 815 199 l 243 199 l 342 269 l 267 93 q 215 13 242 38 q 135 -12 189 -12 m 528 713 l 367 328 l 328 394 l 732 394 l 693 328 l 531 713 l 528 713 m 429 1069 q 379 1043 404 1046 q 335 1054 354 1040 q 310 1090 315 1068 q 324 1140 306 1113 l 393 1243 q 453 1300 421 1283 q 529 1317 486 1317 q 583 1310 558 1317 q 627 1287 607 1303 q 665 1243 647 1271 l 735 1140 q 748 1090 753 1113 q 724 1054 743 1068 q 680 1043 706 1040 q 629 1069 654 1046 l 529 1171 l 429 1069 m 801 1207 q 757 1199 781 1196 q 722 1218 733 1203 q 725 1254 711 1233 q 747 1282 738 1268 q 756 1310 756 1296 q 745 1328 756 1322 q 717 1335 735 1335 q 701 1334 710 1335 q 683 1332 692 1333 q 643 1333 658 1326 q 622 1358 628 1340 q 624 1394 615 1379 q 657 1415 632 1410 q 711 1426 683 1422 q 772 1429 739 1429 q 870 1410 836 1429 q 904 1346 904 1390 q 888 1292 904 1319 q 849 1244 872 1265 q 801 1207 826 1222 z "},"Ẫ":{"ha":1060,"x_min":19,"x_max":1043,"o":"m 135 -12 q 63 8 92 -12 q 26 63 33 28 q 39 143 19 99 l 385 888 q 447 967 410 942 q 531 992 483 992 q 613 967 578 992 q 675 888 649 942 l 1021 143 q 1037 63 1043 99 q 1002 7 1031 26 q 932 -12 974 -12 q 847 13 876 -12 q 793 93 817 38 l 718 269 l 815 199 l 243 199 l 342 269 l 267 93 q 215 13 242 38 q 135 -12 189 -12 m 528 713 l 367 328 l 328 394 l 732 394 l 693 328 l 531 713 l 528 713 m 408 1057 q 350 1045 376 1036 q 315 1078 324 1054 q 325 1126 306 1103 l 381 1194 q 447 1245 410 1231 q 529 1260 485 1260 q 586 1253 560 1260 q 635 1232 613 1246 q 678 1194 658 1218 l 733 1126 q 747 1090 749 1110 q 731 1058 744 1071 q 695 1043 717 1044 q 650 1057 674 1042 l 529 1142 l 408 1057 m 322 1279 q 282 1298 296 1281 q 278 1343 268 1315 q 336 1421 294 1393 q 435 1449 378 1449 q 504 1437 472 1449 q 564 1413 536 1425 q 615 1401 592 1401 q 647 1405 633 1401 q 669 1419 661 1408 q 700 1445 686 1435 q 736 1453 714 1456 q 778 1435 764 1451 q 782 1389 792 1418 q 724 1310 765 1338 q 624 1282 682 1282 q 555 1294 588 1282 q 495 1319 522 1307 q 443 1331 468 1331 q 413 1326 426 1331 q 390 1313 399 1322 q 360 1288 374 1299 q 322 1279 346 1278 z "},"Ȁ":{"ha":1060,"x_min":19,"x_max":1043,"o":"m 135 -12 q 63 8 92 -12 q 26 63 33 28 q 39 143 19 99 l 385 888 q 447 967 410 942 q 531 992 483 992 q 613 967 578 992 q 675 888 649 942 l 1021 143 q 1037 63 1043 99 q 1002 7 1031 26 q 932 -12 974 -12 q 847 13 876 -12 q 793 93 817 38 l 718 269 l 815 199 l 243 199 l 342 269 l 267 93 q 215 13 242 38 q 135 -12 189 -12 m 528 713 l 367 328 l 328 394 l 732 394 l 693 328 l 531 713 l 528 713 m 567 1079 l 471 1203 q 452 1257 449 1232 q 474 1301 456 1282 q 518 1326 492 1319 q 570 1323 544 1332 q 608 1285 596 1314 l 681 1138 q 685 1090 693 1111 q 656 1058 676 1069 q 610 1051 635 1047 q 567 1079 586 1054 m 335 1072 l 222 1204 q 199 1257 199 1232 q 217 1300 200 1282 q 259 1325 235 1318 q 309 1324 283 1332 q 351 1288 335 1315 l 432 1143 q 441 1096 447 1118 q 417 1060 435 1074 q 376 1049 399 1047 q 335 1072 353 1050 z "},"Ä":{"ha":1060,"x_min":19,"x_max":1043,"o":"m 135 -12 q 63 8 92 -12 q 26 63 33 28 q 39 143 19 99 l 385 888 q 447 967 410 942 q 531 992 483 992 q 613 967 578 992 q 675 888 649 942 l 1021 143 q 1037 63 1043 99 q 1002 7 1031 26 q 932 -12 974 -12 q 847 13 876 -12 q 793 93 817 38 l 718 269 l 815 199 l 243 199 l 342 269 l 267 93 q 215 13 242 38 q 135 -12 189 -12 m 528 713 l 367 328 l 328 394 l 732 394 l 693 328 l 531 713 l 528 713 m 672 1064 q 590 1093 619 1064 q 561 1175 561 1122 q 590 1258 561 1229 q 672 1286 619 1286 q 755 1258 726 1286 q 783 1175 783 1229 q 755 1093 783 1122 q 672 1064 726 1064 m 386 1064 q 304 1093 333 1064 q 275 1175 275 1122 q 304 1258 275 1229 q 386 1286 333 1286 q 469 1258 440 1286 q 497 1175 497 1229 q 469 1093 497 1122 q 386 1064 440 1064 z "},"Ȧ":{"ha":1060,"x_min":19,"x_max":1043,"o":"m 135 -12 q 63 8 92 -12 q 26 63 33 28 q 39 143 19 99 l 385 888 q 447 967 410 942 q 531 992 483 992 q 613 967 578 992 q 675 888 649 942 l 1021 143 q 1037 63 1043 99 q 1002 7 1031 26 q 932 -12 974 -12 q 847 13 876 -12 q 793 93 817 38 l 718 269 l 815 199 l 243 199 l 342 269 l 267 93 q 215 13 242 38 q 135 -12 189 -12 m 528 713 l 367 328 l 328 394 l 732 394 l 693 328 l 531 713 l 528 713 m 529 1072 q 442 1102 472 1072 q 411 1185 411 1132 q 442 1267 411 1239 q 529 1296 472 1296 q 617 1267 588 1296 q 647 1185 647 1239 q 617 1101 647 1131 q 529 1072 588 1072 z "},"Ạ":{"ha":1060,"x_min":19,"x_max":1043,"o":"m 135 -12 q 63 8 92 -12 q 26 63 33 28 q 39 143 19 99 l 385 888 q 447 967 410 942 q 531 992 483 992 q 613 967 578 992 q 675 888 649 942 l 1021 143 q 1037 63 1043 99 q 1002 7 1031 26 q 932 -12 974 -12 q 847 13 876 -12 q 793 93 817 38 l 718 269 l 815 199 l 243 199 l 342 269 l 267 93 q 215 13 242 38 q 135 -12 189 -12 m 528 713 l 367 328 l 328 394 l 732 394 l 693 328 l 531 713 l 528 713 m 531 -319 q 443 -290 474 -319 q 413 -207 413 -260 q 443 -124 413 -153 q 531 -96 474 -96 q 619 -124 589 -96 q 649 -207 649 -153 q 619 -290 649 -261 q 531 -319 589 -319 z "},"À":{"ha":1060,"x_min":19,"x_max":1043,"o":"m 135 -12 q 63 8 92 -12 q 26 63 33 28 q 39 143 19 99 l 385 888 q 447 967 410 942 q 531 992 483 992 q 613 967 578 992 q 675 888 649 942 l 1021 143 q 1037 63 1043 99 q 1002 7 1031 26 q 932 -12 974 -12 q 847 13 876 -12 q 793 93 817 38 l 718 269 l 815 199 l 243 199 l 342 269 l 267 93 q 215 13 242 38 q 135 -12 189 -12 m 528 713 l 367 328 l 328 394 l 732 394 l 693 328 l 531 713 l 528 713 m 433 1074 l 318 1190 q 296 1242 294 1215 q 315 1290 297 1268 q 358 1322 332 1311 q 413 1326 385 1332 q 461 1292 440 1321 l 551 1157 q 561 1106 568 1131 q 533 1066 554 1082 q 485 1050 513 1050 q 433 1074 458 1050 z "},"Ả":{"ha":1060,"x_min":19,"x_max":1043,"o":"m 135 -12 q 63 8 92 -12 q 26 63 33 28 q 39 143 19 99 l 385 888 q 447 967 410 942 q 531 992 483 992 q 613 967 578 992 q 675 888 649 942 l 1021 143 q 1037 63 1043 99 q 1002 7 1031 26 q 932 -12 974 -12 q 847 13 876 -12 q 793 93 817 38 l 718 269 l 815 199 l 243 199 l 342 269 l 267 93 q 215 13 242 38 q 135 -12 189 -12 m 528 713 l 367 328 l 328 394 l 732 394 l 693 328 l 531 713 l 528 713 m 529 1050 q 477 1060 496 1050 q 458 1090 458 1071 q 469 1125 458 1111 q 492 1149 479 1139 q 516 1169 506 1160 q 526 1189 526 1178 q 514 1207 526 1201 q 481 1213 501 1213 q 462 1212 472 1213 q 442 1208 451 1211 q 398 1209 415 1203 q 372 1238 381 1215 q 372 1276 364 1258 q 407 1303 379 1294 q 469 1315 433 1311 q 544 1319 506 1319 q 662 1295 619 1319 q 704 1228 704 1271 q 689 1177 704 1196 q 653 1145 674 1158 q 616 1118 632 1132 q 600 1081 600 1104 q 582 1058 600 1067 q 529 1050 564 1050 z "},"Ȃ":{"ha":1060,"x_min":19,"x_max":1043,"o":"m 135 -12 q 63 8 92 -12 q 26 63 33 28 q 39 143 19 99 l 385 888 q 447 967 410 942 q 531 992 483 992 q 613 967 578 992 q 675 888 649 942 l 1021 143 q 1037 63 1043 99 q 1002 7 1031 26 q 932 -12 974 -12 q 847 13 876 -12 q 793 93 817 38 l 718 269 l 815 199 l 243 199 l 342 269 l 267 93 q 215 13 242 38 q 135 -12 189 -12 m 528 713 l 367 328 l 328 394 l 732 394 l 693 328 l 531 713 l 528 713 m 317 1057 q 270 1084 285 1060 q 267 1144 256 1108 q 362 1267 290 1222 q 528 1311 433 1311 q 695 1267 624 1311 q 790 1144 767 1222 q 788 1085 803 1110 q 740 1057 772 1060 q 696 1062 713 1053 q 669 1085 679 1071 q 651 1111 660 1100 q 602 1159 635 1144 q 528 1174 569 1174 q 456 1159 489 1174 q 406 1111 424 1144 q 388 1085 397 1100 q 361 1063 378 1071 q 317 1057 344 1054 z "},"Ā":{"ha":1060,"x_min":19,"x_max":1043,"o":"m 135 -12 q 63 8 92 -12 q 26 63 33 28 q 39 143 19 99 l 385 888 q 447 967 410 942 q 531 992 483 992 q 613 967 578 992 q 675 888 649 942 l 1021 143 q 1037 63 1043 99 q 1002 7 1031 26 q 932 -12 974 -12 q 847 13 876 -12 q 793 93 817 38 l 718 269 l 815 199 l 243 199 l 342 269 l 267 93 q 215 13 242 38 q 135 -12 189 -12 m 528 713 l 367 328 l 328 394 l 732 394 l 693 328 l 531 713 l 528 713 m 333 1106 q 263 1172 263 1106 q 281 1222 263 1204 q 333 1240 299 1240 l 726 1240 q 796 1172 796 1240 q 778 1124 796 1142 q 726 1106 760 1106 l 333 1106 z "},"Ą":{"ha":1060,"x_min":18,"x_max":1108,"o":"m 964 -275 q 827 -233 875 -275 q 779 -121 779 -192 q 800 -38 779 -76 q 857 28 821 0 l 863 3 q 824 37 840 15 q 793 93 808 58 l 718 269 l 815 199 l 243 199 l 342 269 l 267 93 q 215 13 242 38 q 135 -12 189 -12 q 63 8 92 -12 q 26 63 33 28 q 39 143 18 99 l 385 888 q 447 967 410 942 q 531 992 483 992 q 613 967 578 992 q 675 888 649 942 l 1021 143 q 1034 56 1044 94 q 990 0 1024 17 q 954 -26 969 -11 q 931 -58 939 -40 q 924 -92 924 -75 q 945 -137 924 -121 q 999 -154 967 -154 q 1016 -153 1007 -154 q 1035 -150 1025 -151 q 1085 -158 1067 -144 q 1106 -192 1103 -171 q 1096 -234 1108 -214 q 1056 -264 1083 -254 q 1008 -273 1032 -271 q 964 -275 983 -275 m 528 713 l 367 328 l 328 394 l 732 394 l 693 328 l 531 713 l 528 713 z "},"Å":{"ha":1060,"x_min":19,"x_max":1043,"o":"m 135 -12 q 63 8 92 -12 q 26 63 33 28 q 39 143 19 99 l 385 888 q 447 967 410 942 q 531 992 483 992 q 613 967 578 992 q 675 888 649 942 l 1021 143 q 1037 63 1043 99 q 1002 7 1031 26 q 932 -12 974 -12 q 847 13 876 -12 q 793 93 817 38 l 718 269 l 815 199 l 243 199 l 342 269 l 267 93 q 215 13 242 38 q 135 -12 189 -12 m 528 713 l 367 328 l 328 394 l 732 394 l 693 328 l 531 713 l 528 713 m 529 1044 q 434 1068 476 1044 q 367 1134 392 1092 q 342 1225 342 1176 q 367 1319 342 1278 q 434 1383 392 1360 q 529 1407 476 1407 q 625 1383 583 1407 q 692 1319 667 1360 q 717 1225 717 1278 q 692 1133 717 1175 q 625 1068 667 1092 q 529 1044 583 1044 m 529 1146 q 586 1169 564 1146 q 608 1225 608 1192 q 586 1282 608 1260 q 529 1304 564 1304 q 473 1282 496 1304 q 450 1225 450 1260 q 473 1169 450 1192 q 529 1146 496 1146 z "},"Ǻ":{"ha":1060,"x_min":19,"x_max":1043,"o":"m 135 -12 q 63 8 92 -12 q 26 63 33 28 q 39 143 19 99 l 385 888 q 447 967 410 942 q 531 992 483 992 q 613 967 578 992 q 675 888 649 942 l 1021 143 q 1037 63 1043 99 q 1002 7 1031 26 q 932 -12 974 -12 q 847 13 876 -12 q 793 93 817 38 l 718 269 l 815 199 l 243 199 l 342 269 l 267 93 q 215 13 242 38 q 135 -12 189 -12 m 528 713 l 367 328 l 328 394 l 732 394 l 693 328 l 531 713 l 528 713 m 529 1044 q 440 1067 481 1044 q 376 1128 400 1089 q 353 1214 353 1167 q 376 1301 353 1263 q 440 1361 400 1339 q 529 1383 481 1383 q 574 1378 553 1383 q 614 1364 594 1374 l 700 1443 q 746 1461 722 1464 q 785 1443 769 1458 q 803 1405 801 1428 q 782 1364 804 1382 l 690 1283 q 706 1214 706 1251 q 682 1128 706 1167 q 619 1067 658 1089 q 529 1044 579 1044 m 529 1135 q 586 1157 564 1135 q 608 1214 608 1179 q 586 1271 608 1249 q 529 1293 564 1293 q 473 1271 496 1293 q 450 1214 450 1249 q 473 1157 450 1179 q 529 1135 496 1135 z "},"Ã":{"ha":1060,"x_min":19,"x_max":1043,"o":"m 135 -12 q 63 8 92 -12 q 26 63 33 28 q 39 143 19 99 l 385 888 q 447 967 410 942 q 531 992 483 992 q 613 967 578 992 q 675 888 649 942 l 1021 143 q 1037 63 1043 99 q 1002 7 1031 26 q 932 -12 974 -12 q 847 13 876 -12 q 793 93 817 38 l 718 269 l 815 199 l 243 199 l 342 269 l 267 93 q 215 13 242 38 q 135 -12 189 -12 m 528 713 l 367 328 l 328 394 l 732 394 l 693 328 l 531 713 l 528 713 m 257 1050 q 212 1069 228 1053 q 203 1117 196 1086 q 276 1247 221 1201 q 406 1292 332 1292 q 479 1281 446 1292 q 543 1254 513 1269 q 601 1228 574 1239 q 657 1217 629 1217 q 704 1228 685 1217 q 733 1258 724 1239 q 762 1293 747 1281 q 801 1303 776 1306 q 847 1284 831 1301 q 856 1236 863 1267 q 783 1107 838 1151 q 653 1063 728 1063 q 580 1074 614 1063 q 515 1099 546 1085 q 457 1125 485 1114 q 401 1136 429 1136 q 355 1125 375 1136 q 325 1096 335 1114 q 297 1061 311 1074 q 257 1050 282 1049 z "},"Æ":{"ha":1397,"x_min":-15,"x_max":1338,"o":"m 94 -12 q 13 10 40 -12 q -15 68 -15 32 q 8 143 -15 104 l 499 914 q 549 964 519 949 q 619 979 578 979 l 1238 979 q 1312 954 1286 979 q 1338 882 1338 929 q 1312 808 1338 833 q 1238 782 1286 782 l 736 782 l 800 838 l 868 525 l 786 596 l 1207 596 q 1281 571 1256 596 q 1307 497 1307 546 q 1281 424 1307 449 q 1207 399 1256 399 l 829 399 l 881 469 l 956 129 l 871 197 l 1238 197 q 1312 172 1286 197 q 1338 99 1338 146 q 1312 25 1338 50 q 1238 0 1286 0 l 850 0 q 740 89 760 0 l 699 274 l 776 199 l 249 199 l 340 264 l 221 64 q 171 7 199 26 q 94 -12 143 -12 m 601 704 l 381 333 l 368 394 l 738 394 l 689 324 l 604 704 l 601 704 z "},"Ǽ":{"ha":1397,"x_min":-15,"x_max":1338,"o":"m 94 -12 q 13 10 40 -12 q -15 68 -15 32 q 8 143 -15 104 l 499 914 q 549 964 519 949 q 619 979 578 979 l 1238 979 q 1312 954 1286 979 q 1338 882 1338 929 q 1312 808 1338 833 q 1238 782 1286 782 l 736 782 l 800 838 l 868 525 l 786 596 l 1207 596 q 1281 571 1256 596 q 1307 497 1307 546 q 1281 424 1307 449 q 1207 399 1256 399 l 829 399 l 881 469 l 956 129 l 871 197 l 1238 197 q 1312 172 1286 197 q 1338 99 1338 146 q 1312 25 1338 50 q 1238 0 1286 0 l 850 0 q 740 89 760 0 l 699 274 l 776 199 l 249 199 l 340 264 l 221 64 q 171 7 199 26 q 94 -12 143 -12 m 601 704 l 381 333 l 368 394 l 738 394 l 689 324 l 604 704 l 601 704 m 775 1074 q 724 1050 751 1050 q 676 1066 697 1050 q 647 1106 654 1082 q 658 1157 640 1131 l 749 1292 q 796 1326 768 1321 q 850 1322 824 1332 q 894 1290 876 1311 q 914 1242 913 1268 q 890 1190 915 1215 l 775 1074 z "},"B":{"ha":975,"x_min":89,"x_max":919,"o":"m 222 0 q 123 34 157 0 q 89 132 89 68 l 89 847 q 123 945 89 911 q 222 979 157 979 l 561 979 q 741 948 667 979 q 854 860 815 917 q 893 726 893 803 q 844 579 893 640 q 710 496 794 518 l 710 518 q 865 438 810 500 q 919 278 919 375 q 827 74 919 149 q 575 0 735 0 l 222 0 m 333 188 l 540 188 q 644 215 611 188 q 676 296 676 242 q 644 376 676 350 q 540 403 611 403 l 333 403 l 333 188 m 333 590 l 515 590 q 617 615 585 590 q 650 692 650 640 q 617 767 650 743 q 515 792 585 792 l 333 792 l 333 590 z "},"Ɓ":{"ha":1226,"x_min":0,"x_max":1171,"o":"m 474 0 q 376 34 410 0 q 342 132 342 68 l 342 806 l 315 806 q 232 780 260 806 q 204 701 204 754 l 204 685 q 194 650 204 669 q 161 617 183 631 q 103 603 139 603 q 44 617 67 603 q 11 653 22 632 q 0 692 0 674 l 0 710 q 83 908 0 838 q 322 979 165 979 l 813 979 q 992 948 918 979 q 1106 860 1067 917 q 1144 726 1144 803 q 1095 579 1144 640 q 963 496 1046 518 l 963 518 q 1117 438 1063 500 q 1171 278 1171 375 q 1078 74 1171 149 q 826 0 986 0 l 474 0 m 585 188 l 792 188 q 896 215 864 188 q 928 296 928 242 q 896 376 928 350 q 792 403 864 403 l 585 403 l 585 188 m 585 590 l 767 590 q 869 615 838 590 q 901 692 901 640 q 869 767 901 743 q 767 792 838 792 l 585 792 l 585 590 z "},"C":{"ha":956,"x_min":64,"x_max":911,"o":"m 583 -15 q 304 47 421 -15 q 126 224 188 110 q 64 490 64 338 q 99 697 64 604 q 202 857 135 790 q 366 959 269 924 q 583 994 463 994 q 716 980 647 994 q 838 936 785 965 q 892 883 876 915 q 902 818 907 851 q 878 758 897 785 q 828 723 858 732 q 761 732 797 714 q 678 762 719 751 q 593 772 638 772 q 449 740 507 772 q 363 644 392 707 q 333 490 333 582 q 363 335 333 399 q 449 240 392 272 q 593 207 507 207 q 671 216 629 207 q 753 244 713 225 q 827 254 794 263 q 880 221 860 246 q 906 163 900 196 q 897 99 911 131 q 846 47 882 67 q 726 1 797 18 q 583 -15 654 -15 z "},"Ć":{"ha":956,"x_min":64,"x_max":911,"o":"m 583 -15 q 304 47 421 -15 q 126 224 188 110 q 64 490 64 338 q 99 697 64 604 q 202 857 135 790 q 366 959 269 924 q 583 994 463 994 q 716 980 647 994 q 838 936 785 965 q 892 883 876 915 q 902 818 907 851 q 878 758 897 785 q 828 723 858 732 q 761 732 797 714 q 678 762 719 751 q 593 772 638 772 q 449 740 507 772 q 363 644 392 707 q 333 490 333 582 q 363 335 333 399 q 449 240 392 272 q 593 207 507 207 q 671 216 629 207 q 753 244 713 225 q 827 254 794 263 q 880 221 860 246 q 906 163 900 196 q 897 99 911 131 q 846 47 882 67 q 726 1 797 18 q 583 -15 654 -15 m 649 1074 q 598 1050 625 1050 q 549 1066 571 1050 q 521 1106 528 1082 q 532 1157 514 1131 l 622 1292 q 669 1326 642 1321 q 724 1322 697 1332 q 768 1290 750 1311 q 788 1242 786 1268 q 764 1190 789 1215 l 649 1074 z "},"Č":{"ha":956,"x_min":64,"x_max":911,"o":"m 583 -15 q 304 47 421 -15 q 126 224 188 110 q 64 490 64 338 q 99 697 64 604 q 202 857 135 790 q 366 959 269 924 q 583 994 463 994 q 716 980 647 994 q 838 936 785 965 q 892 883 876 915 q 902 818 907 851 q 878 758 897 785 q 828 723 858 732 q 761 732 797 714 q 678 762 719 751 q 593 772 638 772 q 449 740 507 772 q 363 644 392 707 q 333 490 333 582 q 363 335 333 399 q 449 240 392 272 q 593 207 507 207 q 671 216 629 207 q 753 244 713 225 q 827 254 794 263 q 880 221 860 246 q 906 163 900 196 q 897 99 911 131 q 846 47 882 67 q 726 1 797 18 q 583 -15 654 -15 m 553 1040 q 476 1059 510 1040 q 414 1115 442 1078 l 339 1219 q 327 1269 321 1246 q 356 1307 333 1293 q 406 1319 378 1321 q 456 1293 433 1318 l 553 1186 l 650 1293 q 701 1319 674 1318 q 751 1307 729 1321 q 778 1269 772 1293 q 767 1219 785 1246 l 692 1115 q 631 1059 665 1078 q 553 1040 596 1040 z "},"Ç":{"ha":956,"x_min":64,"x_max":911,"o":"m 583 -15 q 304 47 421 -15 q 126 224 188 110 q 64 490 64 338 q 99 697 64 604 q 202 857 135 790 q 366 959 269 924 q 583 994 463 994 q 716 980 647 994 q 838 936 785 965 q 892 883 876 915 q 902 818 907 851 q 878 758 897 785 q 828 723 858 732 q 761 732 797 714 q 678 762 719 751 q 593 772 638 772 q 449 740 507 772 q 363 644 392 707 q 333 490 333 582 q 363 335 333 399 q 449 240 392 272 q 593 207 507 207 q 671 216 629 207 q 753 244 713 225 q 827 254 794 263 q 880 221 860 246 q 906 163 900 196 q 897 99 911 131 q 846 47 882 67 q 726 1 797 18 q 583 -15 654 -15 m 550 -275 q 492 -272 522 -275 q 435 -261 461 -268 q 397 -234 407 -253 q 390 -194 386 -215 q 413 -162 394 -174 q 457 -160 431 -151 q 492 -167 476 -165 q 524 -169 508 -169 q 576 -162 560 -169 q 592 -140 592 -156 q 581 -122 592 -128 q 542 -115 569 -115 q 524 -116 533 -115 q 506 -119 515 -117 q 490 -119 497 -121 q 475 -111 482 -118 q 467 -95 469 -104 q 467 -72 465 -86 l 481 28 l 599 28 l 582 -79 l 525 -56 q 558 -46 540 -49 q 589 -43 575 -43 q 690 -71 654 -43 q 726 -149 726 -99 q 677 -241 726 -207 q 550 -275 628 -275 z "},"Ḉ":{"ha":956,"x_min":64,"x_max":911,"o":"m 583 -15 q 304 47 421 -15 q 126 224 188 110 q 64 490 64 338 q 99 697 64 604 q 202 857 135 790 q 366 959 269 924 q 583 994 463 994 q 716 980 647 994 q 838 936 785 965 q 892 883 876 915 q 902 818 907 851 q 878 758 897 785 q 828 723 858 732 q 761 732 797 714 q 678 762 719 751 q 593 772 638 772 q 449 740 507 772 q 363 644 392 707 q 333 490 333 582 q 363 335 333 399 q 449 240 392 272 q 593 207 507 207 q 671 216 629 207 q 753 244 713 225 q 827 254 794 263 q 880 221 860 246 q 906 163 900 196 q 897 99 911 131 q 846 47 882 67 q 726 1 797 18 q 583 -15 654 -15 m 550 -275 q 492 -272 522 -275 q 435 -261 461 -268 q 397 -234 407 -253 q 390 -194 386 -215 q 413 -162 394 -174 q 457 -160 431 -151 q 492 -167 476 -165 q 524 -169 508 -169 q 576 -162 560 -169 q 592 -140 592 -156 q 581 -122 592 -128 q 542 -115 569 -115 q 524 -116 533 -115 q 506 -119 515 -117 q 490 -119 497 -121 q 475 -111 482 -118 q 467 -95 469 -104 q 467 -72 465 -86 l 481 28 l 599 28 l 582 -79 l 525 -56 q 558 -46 540 -49 q 589 -43 575 -43 q 690 -71 654 -43 q 726 -149 726 -99 q 677 -241 726 -207 q 550 -275 628 -275 m 649 1074 q 598 1050 625 1050 q 549 1066 571 1050 q 521 1106 528 1082 q 532 1157 514 1131 l 622 1292 q 669 1326 642 1321 q 724 1322 697 1332 q 768 1290 750 1311 q 788 1242 786 1268 q 764 1190 789 1215 l 649 1074 z "},"Ĉ":{"ha":956,"x_min":64,"x_max":911,"o":"m 583 -15 q 304 47 421 -15 q 126 224 188 110 q 64 490 64 338 q 99 697 64 604 q 202 857 135 790 q 366 959 269 924 q 583 994 463 994 q 716 980 647 994 q 838 936 785 965 q 892 883 876 915 q 902 818 907 851 q 878 758 897 785 q 828 723 858 732 q 761 732 797 714 q 678 762 719 751 q 593 772 638 772 q 449 740 507 772 q 363 644 392 707 q 333 490 333 582 q 363 335 333 399 q 449 240 392 272 q 593 207 507 207 q 671 216 629 207 q 753 244 713 225 q 827 254 794 263 q 880 221 860 246 q 906 163 900 196 q 897 99 911 131 q 846 47 882 67 q 726 1 797 18 q 583 -15 654 -15 m 456 1075 q 406 1050 433 1051 q 356 1063 378 1049 q 327 1100 333 1076 q 339 1149 321 1124 l 414 1254 q 476 1311 442 1293 q 553 1329 510 1329 q 631 1311 596 1329 q 692 1254 665 1293 l 767 1149 q 779 1100 786 1124 q 751 1063 772 1076 q 701 1050 729 1049 q 650 1075 674 1051 l 553 1182 l 456 1075 z "},"Ċ":{"ha":956,"x_min":64,"x_max":911,"o":"m 583 -15 q 304 47 421 -15 q 126 224 188 110 q 64 490 64 338 q 99 697 64 604 q 202 857 135 790 q 366 959 269 924 q 583 994 463 994 q 716 980 647 994 q 838 936 785 965 q 892 883 876 915 q 902 818 907 851 q 878 758 897 785 q 828 723 858 732 q 761 732 797 714 q 678 762 719 751 q 593 772 638 772 q 449 740 507 772 q 363 644 392 707 q 333 490 333 582 q 363 335 333 399 q 449 240 392 272 q 593 207 507 207 q 671 216 629 207 q 753 244 713 225 q 827 254 794 263 q 880 221 860 246 q 906 163 900 196 q 897 99 911 131 q 846 47 882 67 q 726 1 797 18 q 583 -15 654 -15 m 553 1072 q 465 1102 496 1072 q 435 1185 435 1132 q 465 1267 435 1239 q 553 1296 496 1296 q 641 1267 611 1296 q 671 1185 671 1239 q 641 1101 671 1131 q 553 1072 611 1072 z "},"D":{"ha":1092,"x_min":89,"x_max":1029,"o":"m 222 0 q 123 34 157 0 q 89 132 89 68 l 89 847 q 123 945 89 911 q 222 979 157 979 l 494 979 q 890 851 750 979 q 1029 490 1029 724 q 993 283 1029 374 q 889 128 957 192 q 722 33 821 65 q 494 0 622 0 l 222 0 m 344 207 l 478 207 q 605 225 551 207 q 694 278 658 243 q 747 365 729 313 q 764 490 764 418 q 693 703 764 635 q 478 772 622 772 l 344 772 l 344 207 z "},"Ǆ":{"ha":1939,"x_min":89,"x_max":1924,"o":"m 222 0 q 123 34 157 0 q 89 132 89 68 l 89 847 q 123 945 89 911 q 222 979 157 979 l 494 979 q 890 851 750 979 q 1029 490 1029 724 q 993 283 1029 374 q 889 128 957 192 q 722 33 821 65 q 494 0 622 0 l 222 0 m 344 207 l 478 207 q 605 225 551 207 q 694 278 658 243 q 747 365 729 313 q 764 490 764 418 q 693 703 764 635 q 478 772 622 772 l 344 772 l 344 207 m 1250 0 q 1170 21 1201 0 q 1128 77 1139 42 q 1128 155 1117 113 q 1174 240 1139 197 l 1653 842 l 1653 769 l 1231 769 q 1149 797 1176 769 q 1121 875 1121 824 q 1149 953 1121 926 q 1231 979 1176 979 l 1772 979 q 1852 958 1821 979 q 1894 903 1883 938 q 1894 825 1906 868 q 1849 739 1883 782 l 1369 138 l 1369 210 l 1814 210 q 1895 183 1867 210 q 1924 106 1924 157 q 1895 27 1924 54 q 1814 0 1867 0 l 1250 0 m 1518 1040 q 1441 1059 1475 1040 q 1379 1115 1407 1078 l 1304 1219 q 1292 1269 1286 1246 q 1321 1307 1299 1293 q 1371 1319 1343 1321 q 1421 1293 1399 1318 l 1518 1186 l 1615 1293 q 1667 1319 1639 1318 q 1716 1307 1694 1321 q 1744 1269 1738 1293 q 1732 1219 1750 1246 l 1657 1115 q 1596 1059 1631 1078 q 1518 1040 1561 1040 z "},"Ð":{"ha":1092,"x_min":-39,"x_max":1029,"o":"m 222 0 q 123 34 157 0 q 89 132 89 68 l 89 847 q 123 945 89 911 q 222 979 157 979 l 494 979 q 890 851 750 979 q 1029 490 1029 724 q 993 283 1029 374 q 889 128 957 192 q 722 33 821 65 q 494 0 622 0 l 222 0 m 344 207 l 478 207 q 605 225 551 207 q 694 278 658 243 q 747 365 729 313 q 764 490 764 418 q 693 703 764 635 q 478 772 622 772 l 344 772 l 344 207 m 54 404 q -15 428 10 404 q -39 494 -39 451 q -15 561 -39 538 q 54 585 10 585 l 517 585 q 587 561 563 585 q 611 494 611 538 q 587 428 611 451 q 517 404 563 404 l 54 404 z "},"Ď":{"ha":1092,"x_min":89,"x_max":1029,"o":"m 222 0 q 123 34 157 0 q 89 132 89 68 l 89 847 q 123 945 89 911 q 222 979 157 979 l 494 979 q 890 851 750 979 q 1029 490 1029 724 q 993 283 1029 374 q 889 128 957 192 q 722 33 821 65 q 494 0 622 0 l 222 0 m 344 207 l 478 207 q 605 225 551 207 q 694 278 658 243 q 747 365 729 313 q 764 490 764 418 q 693 703 764 635 q 478 772 622 772 l 344 772 l 344 207 m 540 1040 q 463 1059 497 1040 q 401 1115 429 1078 l 326 1219 q 315 1269 308 1246 q 343 1307 321 1293 q 393 1319 365 1321 q 443 1293 421 1318 l 540 1186 l 638 1293 q 689 1319 661 1318 q 738 1307 717 1321 q 766 1269 760 1293 q 754 1219 772 1246 l 679 1115 q 618 1059 653 1078 q 540 1040 583 1040 z "},"Đ":{"ha":1092,"x_min":-39,"x_max":1029,"o":"m 222 0 q 123 34 157 0 q 89 132 89 68 l 89 847 q 123 945 89 911 q 222 979 157 979 l 494 979 q 890 851 750 979 q 1029 490 1029 724 q 993 283 1029 374 q 889 128 957 192 q 722 33 821 65 q 494 0 622 0 l 222 0 m 344 207 l 478 207 q 605 225 551 207 q 694 278 658 243 q 747 365 729 313 q 764 490 764 418 q 693 703 764 635 q 478 772 622 772 l 344 772 l 344 207 m 54 404 q -15 428 10 404 q -39 494 -39 451 q -15 561 -39 538 q 54 585 10 585 l 517 585 q 587 561 563 585 q 611 494 611 538 q 587 428 611 451 q 517 404 563 404 l 54 404 z "},"Ḍ":{"ha":1092,"x_min":89,"x_max":1029,"o":"m 222 0 q 123 34 157 0 q 89 132 89 68 l 89 847 q 123 945 89 911 q 222 979 157 979 l 494 979 q 890 851 750 979 q 1029 490 1029 724 q 993 283 1029 374 q 889 128 957 192 q 722 33 821 65 q 494 0 622 0 l 222 0 m 344 207 l 478 207 q 605 225 551 207 q 694 278 658 243 q 747 365 729 313 q 764 490 764 418 q 693 703 764 635 q 478 772 622 772 l 344 772 l 344 207 m 540 -319 q 453 -290 483 -319 q 422 -207 422 -260 q 453 -124 422 -153 q 540 -96 483 -96 q 628 -124 599 -96 q 658 -207 658 -153 q 628 -290 658 -261 q 540 -319 599 -319 z "},"Ɗ":{"ha":1344,"x_min":0,"x_max":1281,"o":"m 474 0 q 376 34 410 0 q 342 132 342 68 l 342 806 l 315 806 q 232 780 260 806 q 204 701 204 754 l 204 685 q 194 650 204 669 q 161 617 183 631 q 103 603 139 603 q 44 617 67 603 q 11 653 22 632 q 0 692 0 674 l 0 710 q 82 908 0 838 q 319 979 164 979 l 746 979 q 1141 851 1001 979 q 1281 490 1281 724 q 1245 283 1281 374 q 1141 128 1210 192 q 973 33 1072 65 q 746 0 874 0 l 474 0 m 596 207 l 731 207 q 856 225 803 207 q 945 278 910 243 q 998 365 981 313 q 1015 490 1015 418 q 944 703 1015 635 q 731 772 874 772 l 596 772 l 596 207 z "},"Ḏ":{"ha":1092,"x_min":89,"x_max":1029,"o":"m 222 0 q 123 34 157 0 q 89 132 89 68 l 89 847 q 123 945 89 911 q 222 979 157 979 l 494 979 q 890 851 750 979 q 1029 490 1029 724 q 993 283 1029 374 q 889 128 957 192 q 722 33 821 65 q 494 0 622 0 l 222 0 m 344 207 l 478 207 q 605 225 551 207 q 694 278 658 243 q 747 365 729 313 q 764 490 764 418 q 693 703 764 635 q 478 772 622 772 l 344 772 l 344 207 m 365 -243 q 294 -176 294 -243 q 313 -126 294 -144 q 365 -108 331 -108 l 717 -108 q 786 -176 786 -108 q 768 -225 786 -207 q 717 -243 750 -243 l 365 -243 z "},"ǅ":{"ha":1768,"x_min":89,"x_max":1750,"o":"m 222 0 q 123 34 157 0 q 89 132 89 68 l 89 847 q 123 945 89 911 q 222 979 157 979 l 494 979 q 890 851 750 979 q 1029 490 1029 724 q 993 283 1029 374 q 889 128 957 192 q 722 33 821 65 q 494 0 622 0 l 222 0 m 344 207 l 478 207 q 605 225 551 207 q 694 278 658 243 q 747 365 729 313 q 764 490 764 418 q 693 703 764 635 q 478 772 622 772 l 344 772 l 344 207 m 1239 0 q 1178 19 1201 0 q 1146 67 1154 38 q 1147 130 1138 96 q 1182 193 1156 164 l 1504 557 l 1504 501 l 1229 501 q 1161 525 1185 501 q 1138 593 1138 549 q 1161 660 1138 638 q 1229 683 1185 683 l 1622 683 q 1690 665 1664 683 q 1726 617 1717 646 q 1726 554 1735 588 q 1692 492 1718 521 l 1361 118 l 1361 182 l 1657 182 q 1750 92 1750 182 q 1726 24 1750 47 q 1657 0 1703 0 l 1239 0 m 1436 742 q 1358 765 1392 742 q 1303 831 1325 789 l 1222 978 q 1215 1031 1206 1007 q 1246 1067 1224 1054 q 1294 1076 1268 1079 q 1338 1047 1319 1072 l 1436 901 l 1535 1047 q 1578 1076 1553 1072 q 1626 1067 1604 1079 q 1658 1031 1649 1054 q 1650 978 1667 1007 l 1571 831 q 1515 765 1549 789 q 1436 742 1482 742 z "},"E":{"ha":853,"x_min":89,"x_max":793,"o":"m 222 0 q 123 34 157 0 q 89 132 89 68 l 89 847 q 123 945 89 911 q 222 979 157 979 l 693 979 q 768 954 743 979 q 793 882 793 929 q 768 808 793 833 q 693 782 743 782 l 333 782 l 333 596 l 663 596 q 737 571 711 596 q 763 497 763 546 q 737 424 763 449 q 663 399 711 399 l 333 399 l 333 197 l 693 197 q 768 172 743 197 q 793 99 793 146 q 768 25 793 50 q 693 0 743 0 l 222 0 z "},"É":{"ha":853,"x_min":89,"x_max":793,"o":"m 222 0 q 123 34 157 0 q 89 132 89 68 l 89 847 q 123 945 89 911 q 222 979 157 979 l 693 979 q 768 954 743 979 q 793 882 793 929 q 768 808 793 833 q 693 782 743 782 l 333 782 l 333 596 l 663 596 q 737 571 711 596 q 763 497 763 546 q 737 424 763 449 q 663 399 711 399 l 333 399 l 333 197 l 693 197 q 768 172 743 197 q 793 99 793 146 q 768 25 793 50 q 693 0 743 0 l 222 0 m 558 1074 q 508 1050 535 1050 q 459 1066 481 1050 q 431 1106 438 1082 q 442 1157 424 1131 l 532 1292 q 579 1326 551 1321 q 633 1322 607 1332 q 678 1290 660 1311 q 697 1242 696 1268 q 674 1190 699 1215 l 558 1074 z "},"Ĕ":{"ha":853,"x_min":89,"x_max":793,"o":"m 222 0 q 123 34 157 0 q 89 132 89 68 l 89 847 q 123 945 89 911 q 222 979 157 979 l 693 979 q 768 954 743 979 q 793 882 793 929 q 768 808 793 833 q 693 782 743 782 l 333 782 l 333 596 l 663 596 q 737 571 711 596 q 763 497 763 546 q 737 424 763 449 q 663 399 711 399 l 333 399 l 333 197 l 693 197 q 768 172 743 197 q 793 99 793 146 q 768 25 793 50 q 693 0 743 0 l 222 0 m 463 1056 q 295 1101 365 1056 q 201 1222 225 1147 q 203 1284 186 1260 q 251 1311 221 1308 q 295 1305 279 1314 q 322 1282 311 1296 q 340 1257 332 1268 q 389 1208 357 1224 q 463 1193 421 1193 q 536 1208 504 1193 q 585 1257 568 1224 q 604 1282 594 1268 q 630 1305 614 1296 q 674 1311 646 1314 q 720 1285 704 1308 q 724 1222 736 1261 q 631 1101 701 1147 q 463 1056 560 1056 z "},"Ě":{"ha":853,"x_min":89,"x_max":793,"o":"m 222 0 q 123 34 157 0 q 89 132 89 68 l 89 847 q 123 945 89 911 q 222 979 157 979 l 693 979 q 768 954 743 979 q 793 882 793 929 q 768 808 793 833 q 693 782 743 782 l 333 782 l 333 596 l 663 596 q 737 571 711 596 q 763 497 763 546 q 737 424 763 449 q 663 399 711 399 l 333 399 l 333 197 l 693 197 q 768 172 743 197 q 793 99 793 146 q 768 25 793 50 q 693 0 743 0 l 222 0 m 463 1040 q 385 1059 419 1040 q 324 1115 351 1078 l 249 1219 q 237 1269 231 1246 q 265 1307 243 1293 q 315 1319 288 1321 q 365 1293 343 1318 l 463 1186 l 560 1293 q 611 1319 583 1318 q 660 1307 639 1321 q 688 1269 682 1293 q 676 1219 694 1246 l 601 1115 q 540 1059 575 1078 q 463 1040 506 1040 z "},"Ȩ":{"ha":853,"x_min":89,"x_max":793,"o":"m 222 0 q 123 34 157 0 q 89 132 89 68 l 89 847 q 123 945 89 911 q 222 979 157 979 l 693 979 q 768 954 743 979 q 793 882 793 929 q 768 808 793 833 q 693 782 743 782 l 333 782 l 333 596 l 663 596 q 737 571 711 596 q 763 497 763 546 q 737 424 763 449 q 663 399 711 399 l 333 399 l 333 197 l 693 197 q 768 172 743 197 q 793 99 793 146 q 768 25 793 50 q 693 0 743 0 l 222 0 m 460 -275 q 401 -272 432 -275 q 344 -261 371 -268 q 306 -234 317 -253 q 300 -194 296 -215 q 322 -162 304 -174 q 367 -160 340 -151 q 402 -167 386 -165 q 433 -169 418 -169 q 485 -162 469 -169 q 501 -140 501 -156 q 490 -122 501 -128 q 451 -115 479 -115 q 434 -116 443 -115 q 415 -119 425 -117 q 399 -119 407 -121 q 385 -111 392 -118 q 377 -95 379 -104 q 376 -72 375 -86 l 390 28 l 508 28 l 492 -79 l 435 -56 q 467 -46 450 -49 q 499 -43 485 -43 q 600 -71 564 -43 q 636 -149 636 -99 q 587 -241 636 -207 q 460 -275 538 -275 z "},"Ḝ":{"ha":853,"x_min":89,"x_max":793,"o":"m 222 0 q 123 34 157 0 q 89 132 89 68 l 89 847 q 123 945 89 911 q 222 979 157 979 l 693 979 q 768 954 743 979 q 793 882 793 929 q 768 808 793 833 q 693 782 743 782 l 333 782 l 333 596 l 663 596 q 737 571 711 596 q 763 497 763 546 q 737 424 763 449 q 663 399 711 399 l 333 399 l 333 197 l 693 197 q 768 172 743 197 q 793 99 793 146 q 768 25 793 50 q 693 0 743 0 l 222 0 m 460 -275 q 401 -272 432 -275 q 344 -261 371 -268 q 306 -234 317 -253 q 300 -194 296 -215 q 322 -162 304 -174 q 367 -160 340 -151 q 402 -167 386 -165 q 433 -169 418 -169 q 485 -162 469 -169 q 501 -140 501 -156 q 490 -122 501 -128 q 451 -115 479 -115 q 434 -116 443 -115 q 415 -119 425 -117 q 399 -119 407 -121 q 385 -111 392 -118 q 377 -95 379 -104 q 376 -72 375 -86 l 390 28 l 508 28 l 492 -79 l 435 -56 q 467 -46 450 -49 q 499 -43 485 -43 q 600 -71 564 -43 q 636 -149 636 -99 q 587 -241 636 -207 q 460 -275 538 -275 m 463 1056 q 295 1101 365 1056 q 201 1222 225 1147 q 203 1284 186 1260 q 251 1311 221 1308 q 295 1305 279 1314 q 322 1282 311 1296 q 340 1257 332 1268 q 389 1208 357 1224 q 463 1193 421 1193 q 536 1208 504 1193 q 585 1257 568 1224 q 604 1282 594 1268 q 630 1305 614 1296 q 674 1311 646 1314 q 720 1285 704 1308 q 724 1222 736 1261 q 631 1101 701 1147 q 463 1056 560 1056 z "},"Ê":{"ha":853,"x_min":89,"x_max":793,"o":"m 222 0 q 123 34 157 0 q 89 132 89 68 l 89 847 q 123 945 89 911 q 222 979 157 979 l 693 979 q 768 954 743 979 q 793 882 793 929 q 768 808 793 833 q 693 782 743 782 l 333 782 l 333 596 l 663 596 q 737 571 711 596 q 763 497 763 546 q 737 424 763 449 q 663 399 711 399 l 333 399 l 333 197 l 693 197 q 768 172 743 197 q 793 99 793 146 q 768 25 793 50 q 693 0 743 0 l 222 0 m 365 1075 q 315 1050 343 1051 q 265 1063 288 1049 q 237 1100 243 1076 q 249 1149 231 1124 l 324 1254 q 385 1311 351 1293 q 463 1329 419 1329 q 540 1311 506 1329 q 601 1254 575 1293 l 676 1149 q 689 1100 696 1124 q 660 1063 682 1076 q 611 1050 639 1049 q 560 1075 583 1051 l 463 1182 l 365 1075 z "},"Ế":{"ha":853,"x_min":89,"x_max":881,"o":"m 222 0 q 123 34 157 0 q 89 132 89 68 l 89 847 q 123 945 89 911 q 222 979 157 979 l 693 979 q 768 954 743 979 q 793 882 793 929 q 768 808 793 833 q 693 782 743 782 l 333 782 l 333 596 l 663 596 q 737 571 711 596 q 763 497 763 546 q 737 424 763 449 q 663 399 711 399 l 333 399 l 333 197 l 693 197 q 768 172 743 197 q 793 99 793 146 q 768 25 793 50 q 693 0 743 0 l 222 0 m 363 1069 q 313 1043 338 1046 q 268 1054 288 1040 q 244 1090 249 1068 q 257 1140 239 1113 l 326 1243 q 387 1300 354 1283 q 463 1317 419 1317 q 516 1310 492 1317 q 560 1287 540 1303 q 599 1243 581 1271 l 668 1140 q 681 1090 686 1113 q 658 1054 676 1068 q 613 1043 639 1040 q 563 1069 588 1046 l 463 1171 l 363 1069 m 758 1204 q 719 1179 740 1182 q 680 1187 697 1176 q 657 1218 663 1197 q 665 1265 651 1239 l 740 1404 q 778 1438 756 1431 q 823 1439 800 1446 q 862 1415 846 1432 q 879 1374 878 1397 q 860 1326 881 1350 l 758 1204 z "},"Ệ":{"ha":853,"x_min":89,"x_max":793,"o":"m 222 0 q 123 34 157 0 q 89 132 89 68 l 89 847 q 123 945 89 911 q 222 979 157 979 l 693 979 q 768 954 743 979 q 793 882 793 929 q 768 808 793 833 q 693 782 743 782 l 333 782 l 333 596 l 663 596 q 737 571 711 596 q 763 497 763 546 q 737 424 763 449 q 663 399 711 399 l 333 399 l 333 197 l 693 197 q 768 172 743 197 q 793 99 793 146 q 768 25 793 50 q 693 0 743 0 l 222 0 m 463 -319 q 375 -290 406 -319 q 344 -207 344 -260 q 375 -124 344 -153 q 463 -96 406 -96 q 551 -124 521 -96 q 581 -207 581 -153 q 551 -290 581 -261 q 463 -319 521 -319 m 365 1075 q 315 1050 343 1051 q 265 1063 288 1049 q 237 1100 243 1076 q 249 1149 231 1124 l 324 1254 q 385 1311 351 1293 q 463 1329 419 1329 q 540 1311 506 1329 q 601 1254 575 1293 l 676 1149 q 689 1100 696 1124 q 660 1063 682 1076 q 611 1050 639 1049 q 560 1075 583 1051 l 463 1182 l 365 1075 z "},"Ề":{"ha":853,"x_min":89,"x_max":808,"o":"m 222 0 q 123 34 157 0 q 89 132 89 68 l 89 847 q 123 945 89 911 q 222 979 157 979 l 693 979 q 768 954 743 979 q 793 882 793 929 q 768 808 793 833 q 693 782 743 782 l 333 782 l 333 596 l 663 596 q 737 571 711 596 q 763 497 763 546 q 737 424 763 449 q 663 399 711 399 l 333 399 l 333 197 l 693 197 q 768 172 743 197 q 793 99 793 146 q 768 25 793 50 q 693 0 743 0 l 222 0 m 363 1069 q 313 1043 338 1046 q 268 1054 288 1040 q 244 1090 249 1068 q 257 1140 239 1113 l 326 1243 q 387 1300 354 1283 q 463 1317 419 1317 q 516 1310 492 1317 q 560 1287 540 1303 q 599 1243 581 1271 l 668 1140 q 681 1090 686 1113 q 658 1054 676 1068 q 613 1043 639 1040 q 563 1069 588 1046 l 463 1171 l 363 1069 m 701 1204 l 600 1326 q 581 1374 579 1350 q 598 1415 582 1397 q 637 1439 614 1432 q 683 1438 660 1446 q 719 1404 706 1431 l 794 1265 q 803 1218 808 1239 q 780 1187 797 1197 q 741 1179 763 1176 q 701 1204 719 1182 z "},"Ể":{"ha":853,"x_min":89,"x_max":838,"o":"m 222 0 q 123 34 157 0 q 89 132 89 68 l 89 847 q 123 945 89 911 q 222 979 157 979 l 693 979 q 768 954 743 979 q 793 882 793 929 q 768 808 793 833 q 693 782 743 782 l 333 782 l 333 596 l 663 596 q 737 571 711 596 q 763 497 763 546 q 737 424 763 449 q 663 399 711 399 l 333 399 l 333 197 l 693 197 q 768 172 743 197 q 793 99 793 146 q 768 25 793 50 q 693 0 743 0 l 222 0 m 363 1069 q 313 1043 338 1046 q 268 1054 288 1040 q 244 1090 249 1068 q 257 1140 239 1113 l 326 1243 q 387 1300 354 1283 q 463 1317 419 1317 q 516 1310 492 1317 q 560 1287 540 1303 q 599 1243 581 1271 l 668 1140 q 681 1090 686 1113 q 658 1054 676 1068 q 613 1043 639 1040 q 563 1069 588 1046 l 463 1171 l 363 1069 m 735 1207 q 690 1199 714 1196 q 656 1218 667 1203 q 658 1254 644 1233 q 680 1282 671 1268 q 689 1310 689 1296 q 678 1328 689 1322 q 650 1335 668 1335 q 634 1334 643 1335 q 617 1332 625 1333 q 576 1333 592 1326 q 556 1358 561 1340 q 557 1394 549 1379 q 590 1415 565 1410 q 644 1426 617 1422 q 706 1429 672 1429 q 803 1410 769 1429 q 838 1346 838 1390 q 822 1292 838 1319 q 783 1244 806 1265 q 735 1207 760 1222 z "},"Ễ":{"ha":853,"x_min":89,"x_max":793,"o":"m 222 0 q 123 34 157 0 q 89 132 89 68 l 89 847 q 123 945 89 911 q 222 979 157 979 l 693 979 q 768 954 743 979 q 793 882 793 929 q 768 808 793 833 q 693 782 743 782 l 333 782 l 333 596 l 663 596 q 737 571 711 596 q 763 497 763 546 q 737 424 763 449 q 663 399 711 399 l 333 399 l 333 197 l 693 197 q 768 172 743 197 q 793 99 793 146 q 768 25 793 50 q 693 0 743 0 l 222 0 m 342 1057 q 283 1045 310 1036 q 248 1078 257 1054 q 258 1126 239 1103 l 314 1194 q 381 1245 343 1231 q 463 1260 418 1260 q 519 1253 493 1260 q 569 1232 546 1246 q 611 1194 592 1218 l 667 1126 q 680 1090 682 1110 q 664 1058 678 1071 q 628 1043 650 1044 q 583 1057 607 1042 l 463 1142 l 342 1057 m 256 1279 q 215 1298 229 1281 q 211 1343 201 1315 q 269 1421 228 1393 q 368 1449 311 1449 q 438 1437 406 1449 q 497 1413 469 1425 q 549 1401 525 1401 q 581 1405 567 1401 q 603 1419 594 1408 q 633 1445 619 1435 q 669 1453 647 1456 q 711 1435 697 1451 q 715 1389 725 1418 q 657 1310 699 1338 q 557 1282 615 1282 q 488 1294 521 1282 q 428 1319 456 1307 q 376 1331 401 1331 q 346 1326 360 1331 q 324 1313 332 1322 q 293 1288 307 1299 q 256 1279 279 1278 z "},"Ȅ":{"ha":853,"x_min":89,"x_max":793,"o":"m 222 0 q 123 34 157 0 q 89 132 89 68 l 89 847 q 123 945 89 911 q 222 979 157 979 l 693 979 q 768 954 743 979 q 793 882 793 929 q 768 808 793 833 q 693 782 743 782 l 333 782 l 333 596 l 663 596 q 737 571 711 596 q 763 497 763 546 q 737 424 763 449 q 663 399 711 399 l 333 399 l 333 197 l 693 197 q 768 172 743 197 q 793 99 793 146 q 768 25 793 50 q 693 0 743 0 l 222 0 m 500 1079 l 404 1203 q 385 1257 382 1232 q 407 1301 389 1282 q 451 1326 425 1319 q 503 1323 478 1332 q 542 1285 529 1314 l 614 1138 q 618 1090 626 1111 q 589 1058 610 1069 q 544 1051 568 1047 q 500 1079 519 1054 m 268 1072 l 156 1204 q 133 1257 132 1232 q 151 1300 133 1282 q 192 1325 168 1318 q 242 1324 217 1332 q 285 1288 268 1315 l 365 1143 q 374 1096 381 1118 q 350 1060 368 1074 q 309 1049 332 1047 q 268 1072 286 1050 z "},"Ë":{"ha":853,"x_min":89,"x_max":793,"o":"m 222 0 q 123 34 157 0 q 89 132 89 68 l 89 847 q 123 945 89 911 q 222 979 157 979 l 693 979 q 768 954 743 979 q 793 882 793 929 q 768 808 793 833 q 693 782 743 782 l 333 782 l 333 596 l 663 596 q 737 571 711 596 q 763 497 763 546 q 737 424 763 449 q 663 399 711 399 l 333 399 l 333 197 l 693 197 q 768 172 743 197 q 793 99 793 146 q 768 25 793 50 q 693 0 743 0 l 222 0 m 606 1064 q 524 1093 553 1064 q 494 1175 494 1122 q 524 1258 494 1229 q 606 1286 553 1286 q 688 1258 660 1286 q 717 1175 717 1229 q 688 1093 717 1122 q 606 1064 660 1064 m 319 1064 q 238 1093 267 1064 q 208 1175 208 1122 q 238 1258 208 1229 q 319 1286 267 1286 q 402 1258 374 1286 q 431 1175 431 1229 q 402 1093 431 1122 q 319 1064 374 1064 z "},"Ė":{"ha":853,"x_min":89,"x_max":793,"o":"m 222 0 q 123 34 157 0 q 89 132 89 68 l 89 847 q 123 945 89 911 q 222 979 157 979 l 693 979 q 768 954 743 979 q 793 882 793 929 q 768 808 793 833 q 693 782 743 782 l 333 782 l 333 596 l 663 596 q 737 571 711 596 q 763 497 763 546 q 737 424 763 449 q 663 399 711 399 l 333 399 l 333 197 l 693 197 q 768 172 743 197 q 793 99 793 146 q 768 25 793 50 q 693 0 743 0 l 222 0 m 463 1072 q 375 1102 406 1072 q 344 1185 344 1132 q 375 1267 344 1239 q 463 1296 406 1296 q 551 1267 521 1296 q 581 1185 581 1239 q 551 1101 581 1131 q 463 1072 521 1072 z "},"Ẹ":{"ha":853,"x_min":89,"x_max":793,"o":"m 222 0 q 123 34 157 0 q 89 132 89 68 l 89 847 q 123 945 89 911 q 222 979 157 979 l 693 979 q 768 954 743 979 q 793 882 793 929 q 768 808 793 833 q 693 782 743 782 l 333 782 l 333 596 l 663 596 q 737 571 711 596 q 763 497 763 546 q 737 424 763 449 q 663 399 711 399 l 333 399 l 333 197 l 693 197 q 768 172 743 197 q 793 99 793 146 q 768 25 793 50 q 693 0 743 0 l 222 0 m 463 -319 q 375 -290 406 -319 q 344 -207 344 -260 q 375 -124 344 -153 q 463 -96 406 -96 q 551 -124 521 -96 q 581 -207 581 -153 q 551 -290 581 -261 q 463 -319 521 -319 z "},"È":{"ha":853,"x_min":89,"x_max":793,"o":"m 222 0 q 123 34 157 0 q 89 132 89 68 l 89 847 q 123 945 89 911 q 222 979 157 979 l 693 979 q 768 954 743 979 q 793 882 793 929 q 768 808 793 833 q 693 782 743 782 l 333 782 l 333 596 l 663 596 q 737 571 711 596 q 763 497 763 546 q 737 424 763 449 q 663 399 711 399 l 333 399 l 333 197 l 693 197 q 768 172 743 197 q 793 99 793 146 q 768 25 793 50 q 693 0 743 0 l 222 0 m 367 1074 l 251 1190 q 229 1242 228 1215 q 248 1290 231 1268 q 292 1322 265 1311 q 346 1326 318 1332 q 394 1292 374 1321 l 485 1157 q 494 1106 501 1131 q 467 1066 488 1082 q 419 1050 446 1050 q 367 1074 392 1050 z "},"Ẻ":{"ha":853,"x_min":89,"x_max":793,"o":"m 222 0 q 123 34 157 0 q 89 132 89 68 l 89 847 q 123 945 89 911 q 222 979 157 979 l 693 979 q 768 954 743 979 q 793 882 793 929 q 768 808 793 833 q 693 782 743 782 l 333 782 l 333 596 l 663 596 q 737 571 711 596 q 763 497 763 546 q 737 424 763 449 q 663 399 711 399 l 333 399 l 333 197 l 693 197 q 768 172 743 197 q 793 99 793 146 q 768 25 793 50 q 693 0 743 0 l 222 0 m 463 1050 q 410 1060 429 1050 q 392 1090 392 1071 q 402 1125 392 1111 q 426 1149 413 1139 q 449 1169 439 1160 q 460 1189 460 1178 q 447 1207 460 1201 q 414 1213 435 1213 q 395 1212 406 1213 q 375 1208 385 1211 q 331 1209 349 1203 q 306 1238 314 1215 q 305 1276 297 1258 q 340 1303 313 1294 q 403 1315 367 1311 q 478 1319 439 1319 q 595 1295 553 1319 q 638 1228 638 1271 q 622 1177 638 1196 q 586 1145 607 1158 q 549 1118 565 1132 q 533 1081 533 1104 q 515 1058 533 1067 q 463 1050 497 1050 z "},"Ȇ":{"ha":853,"x_min":89,"x_max":793,"o":"m 222 0 q 123 34 157 0 q 89 132 89 68 l 89 847 q 123 945 89 911 q 222 979 157 979 l 693 979 q 768 954 743 979 q 793 882 793 929 q 768 808 793 833 q 693 782 743 782 l 333 782 l 333 596 l 663 596 q 737 571 711 596 q 763 497 763 546 q 737 424 763 449 q 663 399 711 399 l 333 399 l 333 197 l 693 197 q 768 172 743 197 q 793 99 793 146 q 768 25 793 50 q 693 0 743 0 l 222 0 m 250 1057 q 203 1084 218 1060 q 200 1144 189 1108 q 295 1267 224 1222 q 461 1311 367 1311 q 628 1267 557 1311 q 724 1144 700 1222 q 721 1085 736 1110 q 674 1057 706 1060 q 629 1062 646 1053 q 603 1085 613 1071 q 585 1111 593 1100 q 535 1159 568 1144 q 461 1174 503 1174 q 390 1159 422 1174 q 339 1111 357 1144 q 321 1085 331 1100 q 294 1063 311 1071 q 250 1057 278 1054 z "},"Ē":{"ha":853,"x_min":89,"x_max":793,"o":"m 222 0 q 123 34 157 0 q 89 132 89 68 l 89 847 q 123 945 89 911 q 222 979 157 979 l 693 979 q 768 954 743 979 q 793 882 793 929 q 768 808 793 833 q 693 782 743 782 l 333 782 l 333 596 l 663 596 q 737 571 711 596 q 763 497 763 546 q 737 424 763 449 q 663 399 711 399 l 333 399 l 333 197 l 693 197 q 768 172 743 197 q 793 99 793 146 q 768 25 793 50 q 693 0 743 0 l 222 0 m 267 1106 q 196 1172 196 1106 q 214 1222 196 1204 q 267 1240 232 1240 l 660 1240 q 729 1172 729 1240 q 711 1124 729 1142 q 660 1106 693 1106 l 267 1106 z "},"Ḗ":{"ha":853,"x_min":89,"x_max":793,"o":"m 222 0 q 123 34 157 0 q 89 132 89 68 l 89 847 q 123 945 89 911 q 222 979 157 979 l 693 979 q 768 954 743 979 q 793 882 793 929 q 768 808 793 833 q 693 782 743 782 l 333 782 l 333 596 l 663 596 q 737 571 711 596 q 763 497 763 546 q 737 424 763 449 q 663 399 711 399 l 333 399 l 333 197 l 693 197 q 768 172 743 197 q 793 99 793 146 q 768 25 793 50 q 693 0 743 0 l 222 0 m 297 1075 q 240 1092 260 1075 q 221 1143 221 1110 q 240 1192 221 1174 q 297 1210 260 1210 l 628 1210 q 685 1192 665 1210 q 704 1143 704 1174 q 685 1092 704 1110 q 628 1075 665 1075 l 297 1075 m 538 1263 q 490 1236 515 1239 q 445 1246 465 1233 q 417 1281 425 1258 q 421 1329 408 1303 l 464 1418 q 504 1459 478 1450 q 558 1461 531 1468 q 605 1435 586 1454 q 626 1390 624 1415 q 604 1336 629 1364 l 538 1263 z "},"Ḕ":{"ha":853,"x_min":89,"x_max":793,"o":"m 222 0 q 123 34 157 0 q 89 132 89 68 l 89 847 q 123 945 89 911 q 222 979 157 979 l 693 979 q 768 954 743 979 q 793 882 793 929 q 768 808 793 833 q 693 782 743 782 l 333 782 l 333 596 l 663 596 q 737 571 711 596 q 763 497 763 546 q 737 424 763 449 q 663 399 711 399 l 333 399 l 333 197 l 693 197 q 768 172 743 197 q 793 99 793 146 q 768 25 793 50 q 693 0 743 0 l 222 0 m 388 1263 l 321 1336 q 299 1390 296 1364 q 320 1435 301 1415 q 367 1461 339 1454 q 421 1459 394 1468 q 461 1418 447 1450 l 504 1329 q 508 1281 517 1303 q 480 1246 500 1258 q 435 1236 460 1233 q 388 1263 410 1239 m 297 1075 q 240 1092 260 1075 q 221 1143 221 1110 q 240 1192 221 1174 q 297 1210 260 1210 l 628 1210 q 685 1192 665 1210 q 704 1143 704 1174 q 685 1092 704 1110 q 628 1075 665 1075 l 297 1075 z "},"Ę":{"ha":853,"x_min":89,"x_max":810,"o":"m 222 0 q 123 34 157 0 q 89 132 89 68 l 89 847 q 123 945 89 911 q 222 979 157 979 l 693 979 q 768 954 743 979 q 793 882 793 929 q 768 808 793 833 q 693 782 743 782 l 333 782 l 333 596 l 663 596 q 737 571 711 596 q 763 497 763 546 q 737 424 763 449 q 663 399 711 399 l 333 399 l 333 197 l 693 197 q 768 172 743 197 q 793 99 793 146 q 768 25 793 50 q 693 0 743 0 l 222 0 m 665 -275 q 528 -233 576 -275 q 479 -121 479 -192 q 522 -7 479 -57 q 632 67 565 43 l 699 0 q 658 -24 675 -10 q 633 -56 642 -39 q 625 -92 625 -74 q 647 -137 625 -121 q 699 -154 668 -154 q 717 -153 708 -154 q 736 -150 726 -151 q 786 -158 768 -144 q 807 -192 804 -171 q 797 -234 810 -214 q 757 -264 785 -254 q 709 -273 733 -271 q 665 -275 685 -275 z "},"Ẽ":{"ha":853,"x_min":89,"x_max":796,"o":"m 222 0 q 123 34 157 0 q 89 132 89 68 l 89 847 q 123 945 89 911 q 222 979 157 979 l 693 979 q 768 954 743 979 q 793 882 793 929 q 768 808 793 833 q 693 782 743 782 l 333 782 l 333 596 l 663 596 q 737 571 711 596 q 763 497 763 546 q 737 424 763 449 q 663 399 711 399 l 333 399 l 333 197 l 693 197 q 768 172 743 197 q 793 99 793 146 q 768 25 793 50 q 693 0 743 0 l 222 0 m 190 1050 q 145 1069 161 1053 q 136 1117 129 1086 q 210 1247 154 1201 q 339 1292 265 1292 q 413 1281 379 1292 q 476 1254 446 1269 q 535 1228 507 1239 q 590 1217 563 1217 q 638 1228 618 1217 q 667 1258 657 1239 q 695 1293 681 1281 q 735 1303 710 1306 q 780 1284 764 1301 q 789 1236 796 1267 q 716 1107 771 1151 q 586 1063 661 1063 q 513 1074 547 1063 q 449 1099 479 1085 q 390 1125 418 1114 q 335 1136 363 1136 q 288 1125 308 1136 q 258 1096 268 1114 q 230 1061 244 1074 q 190 1050 215 1049 z "},"Ə":{"ha":1121,"x_min":64,"x_max":1058,"o":"m 572 -15 q 353 23 449 -15 q 194 131 258 61 q 97 297 129 201 q 64 510 64 393 q 83 567 64 547 q 138 588 103 588 l 861 588 l 861 392 l 256 392 l 322 492 q 349 322 322 389 q 429 222 376 254 q 560 189 482 189 q 688 222 636 189 q 766 322 739 254 q 793 490 793 389 q 760 651 793 586 q 660 748 726 715 q 494 781 593 781 q 382 770 439 781 q 275 739 325 760 q 197 731 231 722 q 144 766 164 740 q 122 824 125 792 q 135 885 119 856 q 192 932 151 914 q 346 978 257 961 q 528 994 435 994 q 806 933 688 994 q 992 758 925 872 q 1058 488 1058 644 q 1023 281 1058 374 q 922 122 988 188 q 768 20 857 56 q 572 -15 679 -15 z "},"F":{"ha":804,"x_min":89,"x_max":785,"o":"m 218 -12 q 123 22 157 -12 q 89 119 89 56 l 89 847 q 123 945 89 911 q 222 979 157 979 l 685 979 q 760 954 735 979 q 785 882 785 929 q 760 808 785 833 q 685 782 735 782 l 344 782 l 344 585 l 654 585 q 728 560 703 585 q 754 488 754 535 q 728 414 754 439 q 654 389 703 389 l 344 389 l 344 119 q 218 -12 344 -12 z "},"G":{"ha":1038,"x_min":64,"x_max":956,"o":"m 589 -15 q 303 47 421 -15 q 125 222 186 110 q 64 485 64 335 q 101 695 64 601 q 207 856 138 789 q 377 959 276 924 q 606 994 478 994 q 747 981 675 994 q 889 932 819 968 q 938 885 925 915 q 947 823 951 856 q 923 763 942 790 q 872 727 904 736 q 800 736 840 718 q 710 766 758 756 q 607 776 661 776 q 452 743 514 776 q 360 644 390 710 q 329 485 329 579 q 399 271 329 343 q 604 199 468 199 q 695 207 646 199 q 794 231 744 215 l 747 135 l 747 372 l 650 372 q 577 396 603 372 q 551 463 551 419 q 577 528 551 506 q 650 551 603 551 l 856 551 q 930 526 904 551 q 956 451 956 500 l 956 144 q 938 74 956 103 q 883 32 921 44 q 742 -3 818 10 q 589 -15 665 -15 z "},"Ğ":{"ha":1038,"x_min":64,"x_max":956,"o":"m 589 -15 q 303 47 421 -15 q 125 222 186 110 q 64 485 64 335 q 101 695 64 601 q 207 856 138 789 q 377 959 276 924 q 606 994 478 994 q 747 981 675 994 q 889 932 819 968 q 938 885 925 915 q 947 823 951 856 q 923 763 942 790 q 872 727 904 736 q 800 736 840 718 q 710 766 758 756 q 607 776 661 776 q 452 743 514 776 q 360 644 390 710 q 329 485 329 579 q 399 271 329 343 q 604 199 468 199 q 695 207 646 199 q 794 231 744 215 l 747 135 l 747 372 l 650 372 q 577 396 603 372 q 551 463 551 419 q 577 528 551 506 q 650 551 603 551 l 856 551 q 930 526 904 551 q 956 451 956 500 l 956 144 q 938 74 956 103 q 883 32 921 44 q 742 -3 818 10 q 589 -15 665 -15 m 572 1056 q 405 1101 475 1056 q 311 1222 335 1147 q 313 1284 296 1260 q 361 1311 331 1308 q 405 1305 389 1314 q 431 1282 421 1296 q 450 1257 442 1268 q 499 1208 467 1224 q 572 1193 531 1193 q 646 1208 614 1193 q 694 1257 678 1224 q 714 1282 704 1268 q 740 1305 724 1296 q 783 1311 756 1314 q 830 1285 814 1308 q 833 1222 846 1261 q 740 1101 811 1147 q 572 1056 669 1056 z "},"Ǧ":{"ha":1038,"x_min":64,"x_max":956,"o":"m 589 -15 q 303 47 421 -15 q 125 222 186 110 q 64 485 64 335 q 101 695 64 601 q 207 856 138 789 q 377 959 276 924 q 606 994 478 994 q 747 981 675 994 q 889 932 819 968 q 938 885 925 915 q 947 823 951 856 q 923 763 942 790 q 872 727 904 736 q 800 736 840 718 q 710 766 758 756 q 607 776 661 776 q 452 743 514 776 q 360 644 390 710 q 329 485 329 579 q 399 271 329 343 q 604 199 468 199 q 695 207 646 199 q 794 231 744 215 l 747 135 l 747 372 l 650 372 q 577 396 603 372 q 551 463 551 419 q 577 528 551 506 q 650 551 603 551 l 856 551 q 930 526 904 551 q 956 451 956 500 l 956 144 q 938 74 956 103 q 883 32 921 44 q 742 -3 818 10 q 589 -15 665 -15 m 572 1040 q 495 1059 529 1040 q 433 1115 461 1078 l 358 1219 q 347 1269 340 1246 q 375 1307 353 1293 q 425 1319 397 1321 q 475 1293 453 1318 l 572 1186 l 669 1293 q 721 1319 693 1318 q 770 1307 749 1321 q 798 1269 792 1293 q 786 1219 804 1246 l 711 1115 q 650 1059 685 1078 q 572 1040 615 1040 z "},"Ĝ":{"ha":1038,"x_min":64,"x_max":956,"o":"m 589 -15 q 303 47 421 -15 q 125 222 186 110 q 64 485 64 335 q 101 695 64 601 q 207 856 138 789 q 377 959 276 924 q 606 994 478 994 q 747 981 675 994 q 889 932 819 968 q 938 885 925 915 q 947 823 951 856 q 923 763 942 790 q 872 727 904 736 q 800 736 840 718 q 710 766 758 756 q 607 776 661 776 q 452 743 514 776 q 360 644 390 710 q 329 485 329 579 q 399 271 329 343 q 604 199 468 199 q 695 207 646 199 q 794 231 744 215 l 747 135 l 747 372 l 650 372 q 577 396 603 372 q 551 463 551 419 q 577 528 551 506 q 650 551 603 551 l 856 551 q 930 526 904 551 q 956 451 956 500 l 956 144 q 938 74 956 103 q 883 32 921 44 q 742 -3 818 10 q 589 -15 665 -15 m 475 1075 q 425 1050 453 1051 q 375 1063 397 1049 q 347 1100 353 1076 q 358 1149 340 1124 l 433 1254 q 495 1311 461 1293 q 572 1329 529 1329 q 650 1311 615 1329 q 711 1254 685 1293 l 786 1149 q 799 1100 806 1124 q 770 1063 792 1076 q 721 1050 749 1049 q 669 1075 693 1051 l 572 1182 l 475 1075 z "},"Ģ":{"ha":1038,"x_min":64,"x_max":956,"o":"m 589 -15 q 303 47 421 -15 q 125 222 186 110 q 64 485 64 335 q 101 695 64 601 q 207 856 138 789 q 377 959 276 924 q 606 994 478 994 q 747 981 675 994 q 889 932 819 968 q 938 885 925 915 q 947 823 951 856 q 923 763 942 790 q 872 727 904 736 q 800 736 840 718 q 710 766 758 756 q 607 776 661 776 q 452 743 514 776 q 360 644 390 710 q 329 485 329 579 q 399 271 329 343 q 604 199 468 199 q 695 207 646 199 q 794 231 744 215 l 747 135 l 747 372 l 650 372 q 577 396 603 372 q 551 463 551 419 q 577 528 551 506 q 650 551 603 551 l 856 551 q 930 526 904 551 q 956 451 956 500 l 956 144 q 938 74 956 103 q 883 32 921 44 q 742 -3 818 10 q 589 -15 665 -15 m 639 -376 q 600 -399 622 -396 q 561 -392 578 -403 q 540 -362 544 -382 q 554 -317 536 -342 q 572 -276 565 -299 q 579 -237 579 -254 l 583 -278 q 491 -252 522 -278 q 460 -178 460 -226 q 490 -103 460 -129 q 581 -78 521 -78 q 671 -106 640 -78 q 701 -193 701 -135 q 695 -258 701 -225 q 675 -321 689 -290 q 639 -376 661 -351 z "},"Ġ":{"ha":1038,"x_min":64,"x_max":956,"o":"m 589 -15 q 303 47 421 -15 q 125 222 186 110 q 64 485 64 335 q 101 695 64 601 q 207 856 138 789 q 377 959 276 924 q 606 994 478 994 q 747 981 675 994 q 889 932 819 968 q 938 885 925 915 q 947 823 951 856 q 923 763 942 790 q 872 727 904 736 q 800 736 840 718 q 710 766 758 756 q 607 776 661 776 q 452 743 514 776 q 360 644 390 710 q 329 485 329 579 q 399 271 329 343 q 604 199 468 199 q 695 207 646 199 q 794 231 744 215 l 747 135 l 747 372 l 650 372 q 577 396 603 372 q 551 463 551 419 q 577 528 551 506 q 650 551 603 551 l 856 551 q 930 526 904 551 q 956 451 956 500 l 956 144 q 938 74 956 103 q 883 32 921 44 q 742 -3 818 10 q 589 -15 665 -15 m 572 1072 q 485 1102 515 1072 q 454 1185 454 1132 q 485 1267 454 1239 q 572 1296 515 1296 q 660 1267 631 1296 q 690 1185 690 1239 q 660 1101 690 1131 q 572 1072 631 1072 z "},"Ḡ":{"ha":1038,"x_min":64,"x_max":956,"o":"m 589 -15 q 303 47 421 -15 q 125 222 186 110 q 64 485 64 335 q 101 695 64 601 q 207 856 138 789 q 377 959 276 924 q 606 994 478 994 q 747 981 675 994 q 889 932 819 968 q 938 885 925 915 q 947 823 951 856 q 923 763 942 790 q 872 727 904 736 q 800 736 840 718 q 710 766 758 756 q 607 776 661 776 q 452 743 514 776 q 360 644 390 710 q 329 485 329 579 q 399 271 329 343 q 604 199 468 199 q 695 207 646 199 q 794 231 744 215 l 747 135 l 747 372 l 650 372 q 577 396 603 372 q 551 463 551 419 q 577 528 551 506 q 650 551 603 551 l 856 551 q 930 526 904 551 q 956 451 956 500 l 956 144 q 938 74 956 103 q 883 32 921 44 q 742 -3 818 10 q 589 -15 665 -15 m 376 1106 q 306 1172 306 1106 q 324 1222 306 1204 q 376 1240 342 1240 l 769 1240 q 839 1172 839 1240 q 821 1124 839 1142 q 769 1106 803 1106 l 376 1106 z "},"H":{"ha":1092,"x_min":89,"x_max":1003,"o":"m 217 -12 q 122 22 156 -12 q 89 118 89 56 l 89 861 q 122 958 89 925 q 217 992 156 992 q 312 958 279 992 q 344 861 344 925 l 344 601 l 749 601 l 749 861 q 781 958 749 925 q 876 992 814 992 q 970 958 938 992 q 1003 861 1003 925 l 1003 118 q 970 22 1003 56 q 876 -12 938 -12 q 781 22 814 -12 q 749 118 749 56 l 749 392 l 344 392 l 344 118 q 313 22 344 56 q 217 -12 281 -12 z "},"Ħ":{"ha":1168,"x_min":6,"x_max":1163,"o":"m 256 -12 q 160 22 193 -12 q 126 118 126 56 l 126 721 l 206 696 l 97 696 q 6 786 6 696 q 29 853 6 829 q 97 876 53 876 l 171 876 l 126 796 l 126 861 q 160 958 126 925 q 256 992 193 992 q 349 958 317 992 q 382 861 382 925 l 382 796 l 350 876 l 818 876 l 786 796 l 786 861 q 819 958 786 925 q 914 992 853 992 q 1009 958 976 992 q 1042 861 1042 925 l 1042 796 l 986 876 l 1071 876 q 1163 786 1163 876 q 1139 719 1163 743 q 1071 696 1115 696 l 951 696 l 1042 728 l 1042 118 q 1009 22 1042 56 q 914 -12 976 -12 q 819 22 853 -12 q 786 118 786 56 l 786 368 l 382 368 l 382 118 q 350 22 382 56 q 256 -12 318 -12 m 382 578 l 786 578 l 786 696 l 382 696 l 382 578 z "},"Ḫ":{"ha":1092,"x_min":89,"x_max":1003,"o":"m 217 -12 q 122 22 156 -12 q 89 118 89 56 l 89 861 q 122 958 89 925 q 217 992 156 992 q 312 958 279 992 q 344 861 344 925 l 344 601 l 749 601 l 749 861 q 781 958 749 925 q 876 992 814 992 q 970 958 938 992 q 1003 861 1003 925 l 1003 118 q 970 22 1003 56 q 876 -12 938 -12 q 781 22 814 -12 q 749 118 749 56 l 749 392 l 344 392 l 344 118 q 313 22 344 56 q 217 -12 281 -12 m 546 -299 q 394 -260 457 -299 q 307 -150 331 -221 q 311 -87 294 -111 q 358 -62 328 -64 q 393 -65 379 -60 q 419 -82 407 -71 q 446 -112 432 -93 q 485 -148 458 -135 q 546 -161 511 -161 q 607 -148 581 -161 q 646 -112 633 -135 q 685 -72 667 -85 q 733 -62 703 -60 q 781 -87 765 -64 q 785 -150 797 -111 q 698 -260 761 -221 q 546 -299 635 -299 z "},"Ĥ":{"ha":1092,"x_min":89,"x_max":1003,"o":"m 217 -12 q 122 22 156 -12 q 89 118 89 56 l 89 861 q 122 958 89 925 q 217 992 156 992 q 312 958 279 992 q 344 861 344 925 l 344 601 l 749 601 l 749 861 q 781 958 749 925 q 876 992 814 992 q 970 958 938 992 q 1003 861 1003 925 l 1003 118 q 970 22 1003 56 q 876 -12 938 -12 q 781 22 814 -12 q 749 118 749 56 l 749 392 l 344 392 l 344 118 q 313 22 344 56 q 217 -12 281 -12 m 449 1075 q 399 1050 426 1051 q 349 1063 371 1049 q 320 1100 326 1076 q 332 1149 314 1124 l 407 1254 q 469 1311 435 1293 q 546 1329 503 1329 q 624 1311 589 1329 q 685 1254 658 1293 l 760 1149 q 772 1100 779 1124 q 744 1063 765 1076 q 694 1050 722 1049 q 643 1075 667 1051 l 546 1182 l 449 1075 z "},"Ḥ":{"ha":1092,"x_min":89,"x_max":1003,"o":"m 217 -12 q 122 22 156 -12 q 89 118 89 56 l 89 861 q 122 958 89 925 q 217 992 156 992 q 312 958 279 992 q 344 861 344 925 l 344 601 l 749 601 l 749 861 q 781 958 749 925 q 876 992 814 992 q 970 958 938 992 q 1003 861 1003 925 l 1003 118 q 970 22 1003 56 q 876 -12 938 -12 q 781 22 814 -12 q 749 118 749 56 l 749 392 l 344 392 l 344 118 q 313 22 344 56 q 217 -12 281 -12 m 546 -319 q 458 -290 489 -319 q 428 -207 428 -260 q 458 -124 428 -153 q 546 -96 489 -96 q 634 -124 604 -96 q 664 -207 664 -153 q 634 -290 664 -261 q 546 -319 604 -319 z "},"I":{"ha":433,"x_min":89,"x_max":344,"o":"m 217 -12 q 122 22 156 -12 q 89 118 89 56 l 89 861 q 122 958 89 925 q 217 992 156 992 q 312 958 279 992 q 344 861 344 925 l 344 118 q 313 22 344 56 q 217 -12 281 -12 z "},"Ĳ":{"ha":975,"x_min":89,"x_max":888,"o":"m 217 -12 q 122 22 156 -12 q 89 118 89 56 l 89 861 q 122 958 89 925 q 217 992 156 992 q 312 958 279 992 q 344 861 344 925 l 344 118 q 313 22 344 56 q 217 -12 281 -12 m 528 -11 q 442 17 472 -14 q 413 97 413 49 q 433 163 413 135 q 496 193 454 190 l 535 196 q 608 220 585 199 q 632 292 632 242 l 632 863 q 665 959 632 926 q 760 992 699 992 q 854 959 821 992 q 888 863 888 926 l 888 296 q 853 134 888 200 q 749 33 818 68 q 578 -8 681 -3 l 528 -11 z "},"Í":{"ha":433,"x_min":89,"x_max":451,"o":"m 217 -12 q 122 22 156 -12 q 89 118 89 56 l 89 861 q 122 958 89 925 q 217 992 156 992 q 312 958 279 992 q 344 861 344 925 l 344 118 q 313 22 344 56 q 217 -12 281 -12 m 313 1074 q 262 1050 289 1050 q 213 1066 235 1050 q 185 1106 192 1082 q 196 1157 178 1131 l 286 1292 q 333 1326 306 1321 q 388 1322 361 1332 q 432 1290 414 1311 q 451 1242 450 1268 q 428 1190 453 1215 l 313 1074 z "},"Ĭ":{"ha":433,"x_min":-60,"x_max":490,"o":"m 217 -12 q 122 22 156 -12 q 89 118 89 56 l 89 861 q 122 958 89 925 q 217 992 156 992 q 312 958 279 992 q 344 861 344 925 l 344 118 q 313 22 344 56 q 217 -12 281 -12 m 217 1056 q 49 1101 119 1056 q -44 1222 -21 1147 q -42 1284 -60 1260 q 6 1311 -25 1308 q 49 1305 33 1314 q 76 1282 65 1296 q 94 1257 86 1268 q 143 1208 111 1224 q 217 1193 175 1193 q 290 1208 258 1193 q 339 1257 322 1224 q 358 1282 349 1268 q 384 1305 368 1296 q 428 1311 400 1314 q 474 1285 458 1308 q 478 1222 490 1261 q 385 1101 456 1147 q 217 1056 314 1056 z "},"Î":{"ha":433,"x_min":-17,"x_max":450,"o":"m 217 -12 q 122 22 156 -12 q 89 118 89 56 l 89 861 q 122 958 89 925 q 217 992 156 992 q 312 958 279 992 q 344 861 344 925 l 344 118 q 313 22 344 56 q 217 -12 281 -12 m 119 1075 q 69 1050 97 1051 q 19 1063 42 1049 q -9 1100 -3 1076 q 3 1149 -15 1124 l 78 1254 q 140 1311 106 1293 q 217 1329 174 1329 q 294 1311 260 1329 q 356 1254 329 1293 l 431 1149 q 443 1100 450 1124 q 415 1063 436 1076 q 365 1050 393 1049 q 314 1075 338 1051 l 217 1182 l 119 1075 z "},"Ȉ":{"ha":433,"x_min":-115,"x_max":379,"o":"m 217 -12 q 122 22 156 -12 q 89 118 89 56 l 89 861 q 122 958 89 925 q 217 992 156 992 q 312 958 279 992 q 344 861 344 925 l 344 118 q 313 22 344 56 q 217 -12 281 -12 m 254 1079 l 158 1203 q 140 1257 136 1232 q 161 1301 143 1282 q 206 1326 179 1319 q 258 1323 232 1332 q 296 1285 283 1314 l 368 1138 q 372 1090 381 1111 q 343 1058 364 1069 q 298 1051 322 1047 q 254 1079 274 1054 m 22 1072 l -90 1204 q -113 1257 -114 1232 q -95 1300 -112 1282 q -53 1325 -78 1318 q -3 1324 -29 1332 q 39 1288 22 1315 l 119 1143 q 128 1096 135 1118 q 104 1060 122 1074 q 63 1049 86 1047 q 22 1072 40 1050 z "},"Ï":{"ha":433,"x_min":-37,"x_max":471,"o":"m 217 -12 q 122 22 156 -12 q 89 118 89 56 l 89 861 q 122 958 89 925 q 217 992 156 992 q 312 958 279 992 q 344 861 344 925 l 344 118 q 313 22 344 56 q 217 -12 281 -12 m 360 1064 q 278 1093 307 1064 q 249 1175 249 1122 q 278 1258 249 1229 q 360 1286 307 1286 q 442 1258 414 1286 q 471 1175 471 1229 q 442 1093 471 1122 q 360 1064 414 1064 m 74 1064 q -8 1093 21 1064 q -37 1175 -37 1122 q -8 1258 -37 1229 q 74 1286 21 1286 q 156 1258 128 1286 q 185 1175 185 1229 q 156 1093 185 1122 q 74 1064 128 1064 z "},"Ḯ":{"ha":433,"x_min":-39,"x_max":471,"o":"m 217 -12 q 122 22 156 -12 q 89 118 89 56 l 89 861 q 122 958 89 925 q 217 992 156 992 q 312 958 279 992 q 344 861 344 925 l 344 118 q 313 22 344 56 q 217 -12 281 -12 m 290 1263 q 244 1236 269 1239 q 199 1246 219 1233 q 170 1281 178 1258 q 175 1329 163 1303 l 218 1418 q 258 1459 232 1450 q 313 1460 285 1468 q 360 1433 340 1453 q 381 1388 379 1414 q 358 1336 383 1363 l 290 1263 m 74 1061 q -8 1082 21 1061 q -37 1142 -37 1103 q -8 1201 -37 1181 q 74 1222 21 1222 q 156 1201 128 1222 q 185 1142 185 1181 q 156 1082 185 1103 q 74 1061 128 1061 m 360 1061 q 278 1082 307 1061 q 249 1142 249 1103 q 278 1201 249 1181 q 360 1222 307 1222 q 442 1201 414 1222 q 471 1142 471 1181 q 442 1082 471 1103 q 360 1061 414 1061 z "},"İ":{"ha":433,"x_min":89,"x_max":344,"o":"m 217 -12 q 122 22 156 -12 q 89 118 89 56 l 89 861 q 122 958 89 925 q 217 992 156 992 q 312 958 279 992 q 344 861 344 925 l 344 118 q 313 22 344 56 q 217 -12 281 -12 m 217 1072 q 129 1102 160 1072 q 99 1185 99 1132 q 129 1267 99 1239 q 217 1296 160 1296 q 305 1267 275 1296 q 335 1185 335 1239 q 305 1101 335 1131 q 217 1072 275 1072 z "},"Ị":{"ha":433,"x_min":89,"x_max":344,"o":"m 217 -12 q 122 22 156 -12 q 89 118 89 56 l 89 861 q 122 958 89 925 q 217 992 156 992 q 312 958 279 992 q 344 861 344 925 l 344 118 q 313 22 344 56 q 217 -12 281 -12 m 217 -319 q 129 -290 160 -319 q 99 -207 99 -260 q 129 -124 99 -153 q 217 -96 160 -96 q 305 -124 275 -96 q 335 -207 335 -153 q 305 -290 335 -261 q 217 -319 275 -319 z "},"Ì":{"ha":433,"x_min":-19,"x_max":344,"o":"m 217 -12 q 122 22 156 -12 q 89 118 89 56 l 89 861 q 122 958 89 925 q 217 992 156 992 q 312 958 279 992 q 344 861 344 925 l 344 118 q 313 22 344 56 q 217 -12 281 -12 m 121 1074 l 6 1190 q -17 1242 -18 1215 q 2 1290 -15 1268 q 46 1322 19 1311 q 100 1326 72 1332 q 149 1292 128 1321 l 239 1157 q 249 1106 256 1131 q 221 1066 242 1082 q 173 1050 200 1050 q 121 1074 146 1050 z "},"Ỉ":{"ha":433,"x_min":51,"x_max":392,"o":"m 217 -12 q 122 22 156 -12 q 89 118 89 56 l 89 861 q 122 958 89 925 q 217 992 156 992 q 312 958 279 992 q 344 861 344 925 l 344 118 q 313 22 344 56 q 217 -12 281 -12 m 217 1050 q 165 1060 183 1050 q 146 1090 146 1071 q 156 1125 146 1111 q 180 1149 167 1139 q 203 1169 193 1160 q 214 1189 214 1178 q 201 1207 214 1201 q 168 1213 189 1213 q 149 1212 160 1213 q 129 1208 139 1211 q 85 1209 103 1203 q 60 1238 68 1215 q 59 1276 51 1258 q 94 1303 67 1294 q 157 1315 121 1311 q 232 1319 193 1319 q 349 1295 307 1319 q 392 1228 392 1271 q 376 1177 392 1196 q 340 1145 361 1158 q 303 1118 319 1132 q 288 1081 288 1104 q 269 1058 288 1067 q 217 1050 251 1050 z "},"Ȋ":{"ha":433,"x_min":-58,"x_max":489,"o":"m 217 -12 q 122 22 156 -12 q 89 118 89 56 l 89 861 q 122 958 89 925 q 217 992 156 992 q 312 958 279 992 q 344 861 344 925 l 344 118 q 313 22 344 56 q 217 -12 281 -12 m 4 1057 q -42 1084 -28 1060 q -46 1144 -57 1108 q 49 1267 -22 1222 q 215 1311 121 1311 q 383 1267 311 1311 q 478 1144 454 1222 q 475 1085 490 1110 q 428 1057 460 1060 q 383 1062 400 1053 q 357 1085 367 1071 q 339 1111 347 1100 q 290 1159 322 1144 q 215 1174 257 1174 q 144 1159 176 1174 q 93 1111 111 1144 q 75 1085 85 1100 q 49 1063 65 1071 q 4 1057 32 1054 z "},"Ī":{"ha":433,"x_min":-50,"x_max":483,"o":"m 217 -12 q 122 22 156 -12 q 89 118 89 56 l 89 861 q 122 958 89 925 q 217 992 156 992 q 312 958 279 992 q 344 861 344 925 l 344 118 q 313 22 344 56 q 217 -12 281 -12 m 21 1106 q -50 1172 -50 1106 q -32 1222 -50 1204 q 21 1240 -14 1240 l 414 1240 q 483 1172 483 1240 q 465 1124 483 1142 q 414 1106 447 1106 l 21 1106 z "},"Į":{"ha":433,"x_min":63,"x_max":393,"o":"m 249 -275 q 111 -233 160 -275 q 63 -121 63 -192 q 82 -42 63 -79 q 136 22 101 -6 l 135 11 q 101 55 113 28 q 89 118 89 82 l 89 861 q 122 958 89 925 q 217 992 156 992 q 312 958 279 992 q 344 861 344 925 l 344 118 q 326 41 344 71 q 276 -3 308 11 q 225 -42 242 -17 q 208 -92 208 -67 q 230 -137 208 -121 q 282 -154 251 -154 q 301 -153 292 -154 q 319 -150 310 -151 q 369 -158 351 -144 q 390 -192 388 -171 q 381 -234 393 -214 q 340 -264 368 -254 q 292 -273 317 -271 q 249 -275 268 -275 z "},"Ĩ":{"ha":433,"x_min":-117,"x_max":549,"o":"m 217 -12 q 122 22 156 -12 q 89 118 89 56 l 89 861 q 122 958 89 925 q 217 992 156 992 q 312 958 279 992 q 344 861 344 925 l 344 118 q 313 22 344 56 q 217 -12 281 -12 m -56 1050 q -101 1069 -85 1053 q -110 1117 -117 1086 q -36 1247 -92 1201 q 93 1292 19 1292 q 167 1281 133 1292 q 231 1254 200 1269 q 289 1228 261 1239 q 344 1217 317 1217 q 392 1228 372 1217 q 421 1258 411 1239 q 449 1293 435 1281 q 489 1303 464 1306 q 534 1284 518 1301 q 543 1236 550 1267 q 470 1107 525 1151 q 340 1063 415 1063 q 267 1074 301 1063 q 203 1099 233 1085 q 144 1125 172 1114 q 89 1136 117 1136 q 42 1125 63 1136 q 13 1096 22 1114 q -16 1061 -1 1074 q -56 1050 -31 1049 z "},"J":{"ha":542,"x_min":-21,"x_max":454,"o":"m 94 -11 q 9 17 39 -14 q -21 97 -21 49 q 0 163 -21 135 q 63 193 21 190 l 101 196 q 175 220 151 199 q 199 292 199 242 l 199 863 q 232 959 199 926 q 326 992 265 992 q 421 959 388 992 q 454 863 454 926 l 454 296 q 419 134 454 200 q 316 33 385 68 q 144 -8 247 -3 l 94 -11 z "},"Ĵ":{"ha":542,"x_min":-21,"x_max":558,"o":"m 94 -11 q 9 17 39 -14 q -21 97 -21 49 q 0 163 -21 135 q 63 193 21 190 l 101 196 q 175 220 151 199 q 199 292 199 242 l 199 863 q 232 959 199 926 q 326 992 265 992 q 421 959 388 992 q 454 863 454 926 l 454 296 q 419 134 454 200 q 316 33 385 68 q 144 -8 247 -3 l 94 -11 m 228 1075 q 178 1050 206 1051 q 128 1063 150 1049 q 99 1100 106 1076 q 111 1149 93 1124 l 186 1254 q 248 1311 214 1293 q 325 1329 282 1329 q 403 1311 368 1329 q 464 1254 438 1293 l 539 1149 q 551 1100 558 1124 q 523 1063 544 1076 q 474 1050 501 1049 q 422 1075 446 1051 l 325 1182 l 228 1075 z "},"K":{"ha":989,"x_min":89,"x_max":936,"o":"m 217 -12 q 122 22 156 -12 q 89 117 89 56 l 89 863 q 122 959 89 926 q 217 992 156 992 q 312 959 279 992 q 344 863 344 926 l 344 560 l 347 560 l 685 932 q 741 976 711 960 q 808 992 771 992 q 892 962 867 992 q 916 892 918 932 q 883 819 914 853 l 547 463 l 547 567 l 900 168 q 936 85 936 128 q 908 15 936 43 q 824 -12 879 -12 q 748 6 776 -12 q 686 63 719 25 l 347 442 l 344 442 l 344 117 q 313 22 344 56 q 217 -12 281 -12 z "},"Ķ":{"ha":989,"x_min":89,"x_max":936,"o":"m 217 -12 q 122 22 156 -12 q 89 117 89 56 l 89 863 q 122 959 89 926 q 217 992 156 992 q 312 959 279 992 q 344 863 344 926 l 344 560 l 347 560 l 685 932 q 741 976 711 960 q 808 992 771 992 q 892 962 867 992 q 916 892 918 932 q 883 819 914 853 l 547 463 l 547 567 l 900 168 q 936 85 936 128 q 908 15 936 43 q 824 -12 879 -12 q 748 6 776 -12 q 686 63 719 25 l 347 442 l 344 442 l 344 117 q 313 22 344 56 q 217 -12 281 -12 m 544 -376 q 506 -399 528 -396 q 467 -392 483 -403 q 446 -362 450 -382 q 460 -317 442 -342 q 478 -276 471 -299 q 485 -237 485 -254 l 489 -278 q 397 -252 428 -278 q 365 -178 365 -226 q 396 -103 365 -129 q 486 -78 426 -78 q 576 -106 546 -78 q 607 -193 607 -135 q 601 -258 607 -225 q 581 -321 594 -290 q 544 -376 567 -351 z "},"L":{"ha":813,"x_min":89,"x_max":793,"o":"m 218 0 q 123 34 157 0 q 89 129 89 68 l 89 851 q 122 947 89 914 q 217 981 156 981 q 312 947 279 981 q 344 851 344 914 l 344 213 l 683 213 q 765 185 736 213 q 793 107 793 158 q 765 28 793 56 q 683 0 736 0 l 218 0 z "},"Ǉ":{"ha":1410,"x_min":89,"x_max":1322,"o":"m 218 0 q 123 34 157 0 q 89 129 89 68 l 89 851 q 122 947 89 914 q 217 981 156 981 q 312 947 279 981 q 344 851 344 914 l 344 213 l 683 213 q 765 185 736 213 q 793 107 793 158 q 765 28 793 56 q 683 0 736 0 l 218 0 m 963 -11 q 877 17 907 -14 q 847 97 847 49 q 868 163 847 135 q 931 193 889 190 l 969 196 q 1043 220 1019 199 q 1067 292 1067 242 l 1067 863 q 1100 959 1067 926 q 1194 992 1133 992 q 1289 959 1256 992 q 1322 863 1322 926 l 1322 296 q 1288 134 1322 200 q 1184 33 1253 68 q 1013 -8 1115 -3 l 963 -11 z "},"Ĺ":{"ha":813,"x_min":89,"x_max":793,"o":"m 218 0 q 123 34 157 0 q 89 129 89 68 l 89 851 q 122 947 89 914 q 217 981 156 981 q 312 947 279 981 q 344 851 344 914 l 344 213 l 683 213 q 765 185 736 213 q 793 107 793 158 q 765 28 793 56 q 683 0 736 0 l 218 0 m 313 1074 q 262 1050 289 1050 q 213 1066 235 1050 q 185 1106 192 1082 q 196 1157 178 1131 l 286 1292 q 333 1326 306 1321 q 388 1322 361 1332 q 432 1290 414 1311 q 451 1242 450 1268 q 428 1190 453 1215 l 313 1074 z "},"Ľ":{"ha":813,"x_min":89,"x_max":793,"o":"m 218 0 q 123 34 157 0 q 89 129 89 68 l 89 851 q 122 947 89 914 q 217 981 156 981 q 312 947 279 981 q 344 851 344 914 l 344 213 l 683 213 q 765 185 736 213 q 793 107 793 158 q 765 28 793 56 q 683 0 736 0 l 218 0 m 549 621 q 497 640 515 621 q 478 694 478 658 l 478 903 q 501 969 478 947 q 568 992 525 992 q 631 968 611 992 q 647 899 651 944 l 625 692 q 549 621 619 621 z "},"Ļ":{"ha":813,"x_min":89,"x_max":793,"o":"m 218 0 q 123 34 157 0 q 89 129 89 68 l 89 851 q 122 947 89 914 q 217 981 156 981 q 312 947 279 981 q 344 851 344 914 l 344 213 l 683 213 q 765 185 736 213 q 793 107 793 158 q 765 28 793 56 q 683 0 736 0 l 218 0 m 492 -376 q 453 -399 475 -396 q 414 -392 431 -403 q 393 -362 397 -382 q 407 -317 389 -342 q 425 -276 418 -299 q 432 -237 432 -254 l 436 -278 q 344 -252 375 -278 q 313 -178 313 -226 q 343 -103 313 -129 q 433 -78 374 -78 q 524 -106 493 -78 q 554 -193 554 -135 q 548 -258 554 -225 q 528 -321 542 -290 q 492 -376 514 -351 z "},"Ŀ":{"ha":813,"x_min":89,"x_max":793,"o":"m 218 0 q 123 34 157 0 q 89 129 89 68 l 89 851 q 122 947 89 914 q 217 981 156 981 q 312 947 279 981 q 344 851 344 914 l 344 213 l 683 213 q 765 185 736 213 q 793 107 793 158 q 765 28 793 56 q 683 0 736 0 l 218 0 m 625 419 q 526 458 563 419 q 489 554 489 496 q 526 652 489 615 q 625 689 563 689 q 726 652 690 689 q 761 554 761 615 q 726 458 761 496 q 625 419 690 419 z "},"Ḷ":{"ha":813,"x_min":89,"x_max":793,"o":"m 218 0 q 123 34 157 0 q 89 129 89 68 l 89 851 q 122 947 89 914 q 217 981 156 981 q 312 947 279 981 q 344 851 344 914 l 344 213 l 683 213 q 765 185 736 213 q 793 107 793 158 q 765 28 793 56 q 683 0 736 0 l 218 0 m 435 -319 q 347 -290 378 -319 q 317 -207 317 -260 q 347 -124 317 -153 q 435 -96 378 -96 q 523 -124 493 -96 q 553 -207 553 -153 q 523 -290 553 -261 q 435 -319 493 -319 z "},"ǈ":{"ha":1211,"x_min":89,"x_max":1151,"o":"m 218 0 q 123 34 157 0 q 89 129 89 68 l 89 851 q 122 947 89 914 q 217 981 156 981 q 312 947 279 981 q 344 851 344 914 l 344 213 l 683 213 q 765 185 736 213 q 793 107 793 158 q 765 28 793 56 q 683 0 736 0 l 218 0 m 844 -260 q 776 -244 801 -261 q 740 -203 750 -228 q 735 -152 731 -178 q 758 -108 740 -126 q 804 -86 776 -89 q 871 -62 850 -83 q 892 4 892 -40 l 892 572 q 924 664 892 632 q 1015 696 956 696 q 1107 664 1075 696 q 1139 572 1139 632 l 1139 28 q 1107 -128 1139 -65 q 1010 -224 1075 -192 q 844 -260 946 -257 m 1014 794 q 912 825 947 794 q 876 914 876 856 q 912 1001 876 971 q 1014 1032 947 1032 q 1116 1001 1081 1032 q 1151 914 1151 971 q 1116 825 1151 856 q 1014 794 1081 794 z "},"Ḻ":{"ha":813,"x_min":89,"x_max":793,"o":"m 218 0 q 123 34 157 0 q 89 129 89 68 l 89 851 q 122 947 89 914 q 217 981 156 981 q 312 947 279 981 q 344 851 344 914 l 344 213 l 683 213 q 765 185 736 213 q 793 107 793 158 q 765 28 793 56 q 683 0 736 0 l 218 0 m 260 -243 q 189 -176 189 -243 q 207 -126 189 -144 q 260 -108 225 -108 l 611 -108 q 681 -176 681 -108 q 663 -225 681 -207 q 611 -243 644 -243 l 260 -243 z "},"Ł":{"ha":813,"x_min":-72,"x_max":793,"o":"m 218 0 q 123 34 157 0 q 89 129 89 68 l 89 851 q 122 947 89 914 q 217 981 156 981 q 312 947 279 981 q 344 851 344 914 l 344 213 l 683 213 q 765 185 736 213 q 793 107 793 158 q 765 28 793 56 q 683 0 736 0 l 218 0 m 81 311 q 14 294 44 290 q -37 319 -17 299 q -65 367 -58 339 q -60 424 -72 396 q -11 474 -47 453 l 483 761 q 550 778 519 782 q 601 753 581 774 q 630 704 622 733 q 625 647 638 675 q 576 597 613 618 l 81 311 z "},"M":{"ha":1228,"x_min":92,"x_max":1136,"o":"m 207 -12 q 122 18 151 -12 q 92 104 92 49 l 92 875 q 124 962 92 932 q 214 992 156 992 q 291 973 263 992 q 343 911 319 954 l 642 375 l 593 375 l 890 911 q 944 973 915 954 q 1021 992 972 992 q 1106 962 1076 992 q 1136 875 1136 932 l 1136 104 q 1107 18 1136 49 q 1021 -12 1078 -12 q 935 18 965 -12 q 906 104 906 49 l 906 582 l 935 582 l 711 193 q 670 147 692 163 q 613 132 649 132 q 556 147 578 132 q 515 193 533 163 l 290 583 l 322 583 l 322 104 q 293 18 322 49 q 207 -12 264 -12 z "},"Ṃ":{"ha":1228,"x_min":92,"x_max":1136,"o":"m 207 -12 q 122 18 151 -12 q 92 104 92 49 l 92 875 q 124 962 92 932 q 214 992 156 992 q 291 973 263 992 q 343 911 319 954 l 642 375 l 593 375 l 890 911 q 944 973 915 954 q 1021 992 972 992 q 1106 962 1076 992 q 1136 875 1136 932 l 1136 104 q 1107 18 1136 49 q 1021 -12 1078 -12 q 935 18 965 -12 q 906 104 906 49 l 906 582 l 935 582 l 711 193 q 670 147 692 163 q 613 132 649 132 q 556 147 578 132 q 515 193 533 163 l 290 583 l 322 583 l 322 104 q 293 18 322 49 q 207 -12 264 -12 m 615 -319 q 528 -290 558 -319 q 497 -207 497 -260 q 528 -124 497 -153 q 615 -96 558 -96 q 703 -124 674 -96 q 733 -207 733 -153 q 703 -290 733 -261 q 615 -319 674 -319 z "},"N":{"ha":1053,"x_min":89,"x_max":963,"o":"m 208 -12 q 119 18 150 -12 q 89 108 89 49 l 89 865 q 119 959 89 926 q 200 992 150 992 q 269 975 244 992 q 325 919 294 958 l 765 369 l 726 369 l 726 872 q 756 961 726 931 q 844 992 786 992 q 933 961 903 992 q 963 872 963 931 l 963 103 q 935 19 963 50 q 860 -12 907 -12 q 785 5 813 -12 q 728 60 758 22 l 288 611 l 326 611 l 326 108 q 297 18 326 49 q 208 -12 267 -12 z "},"Ǌ":{"ha":1594,"x_min":89,"x_max":1506,"o":"m 208 -12 q 119 18 150 -12 q 89 108 89 49 l 89 865 q 119 959 89 926 q 200 992 150 992 q 269 975 244 992 q 325 919 294 958 l 765 369 l 726 369 l 726 872 q 756 961 726 931 q 844 992 786 992 q 933 961 903 992 q 963 872 963 931 l 963 103 q 935 19 963 50 q 860 -12 907 -12 q 785 5 813 -12 q 728 60 758 22 l 288 611 l 326 611 l 326 108 q 297 18 326 49 q 208 -12 267 -12 m 1147 -11 q 1062 17 1092 -14 q 1032 97 1032 49 q 1053 163 1032 135 q 1115 193 1074 190 l 1154 196 q 1228 220 1204 199 q 1251 292 1251 242 l 1251 863 q 1285 959 1251 926 q 1379 992 1318 992 q 1474 959 1440 992 q 1507 863 1507 926 l 1507 296 q 1472 134 1507 200 q 1369 33 1438 68 q 1197 -8 1300 -3 l 1147 -11 z "},"Ń":{"ha":1053,"x_min":89,"x_max":963,"o":"m 208 -12 q 119 18 150 -12 q 89 108 89 49 l 89 865 q 119 959 89 926 q 200 992 150 992 q 269 975 244 992 q 325 919 294 958 l 765 369 l 726 369 l 726 872 q 756 961 726 931 q 844 992 786 992 q 933 961 903 992 q 963 872 963 931 l 963 103 q 935 19 963 50 q 860 -12 907 -12 q 785 5 813 -12 q 728 60 758 22 l 288 611 l 326 611 l 326 108 q 297 18 326 49 q 208 -12 267 -12 m 621 1074 q 570 1050 597 1050 q 522 1066 543 1050 q 493 1106 500 1082 q 504 1157 486 1131 l 594 1292 q 642 1326 614 1321 q 696 1322 669 1332 q 740 1290 722 1311 q 760 1242 758 1268 q 736 1190 761 1215 l 621 1074 z "},"Ň":{"ha":1053,"x_min":89,"x_max":963,"o":"m 208 -12 q 119 18 150 -12 q 89 108 89 49 l 89 865 q 119 959 89 926 q 200 992 150 992 q 269 975 244 992 q 325 919 294 958 l 765 369 l 726 369 l 726 872 q 756 961 726 931 q 844 992 786 992 q 933 961 903 992 q 963 872 963 931 l 963 103 q 935 19 963 50 q 860 -12 907 -12 q 785 5 813 -12 q 728 60 758 22 l 288 611 l 326 611 l 326 108 q 297 18 326 49 q 208 -12 267 -12 m 525 1040 q 448 1059 482 1040 q 386 1115 414 1078 l 311 1219 q 299 1269 293 1246 q 328 1307 306 1293 q 378 1319 350 1321 q 428 1293 406 1318 l 525 1186 l 622 1293 q 674 1319 646 1318 q 723 1307 701 1321 q 751 1269 744 1293 q 739 1219 757 1246 l 664 1115 q 603 1059 638 1078 q 525 1040 568 1040 z "},"Ņ":{"ha":1053,"x_min":89,"x_max":963,"o":"m 208 -12 q 119 18 150 -12 q 89 108 89 49 l 89 865 q 119 959 89 926 q 200 992 150 992 q 269 975 244 992 q 325 919 294 958 l 765 369 l 726 369 l 726 872 q 756 961 726 931 q 844 992 786 992 q 933 961 903 992 q 963 872 963 931 l 963 103 q 935 19 963 50 q 860 -12 907 -12 q 785 5 813 -12 q 728 60 758 22 l 288 611 l 326 611 l 326 108 q 297 18 326 49 q 208 -12 267 -12 m 583 -376 q 544 -399 567 -396 q 506 -392 522 -403 q 485 -362 489 -382 q 499 -317 481 -342 q 517 -276 510 -299 q 524 -237 524 -254 l 528 -278 q 435 -252 467 -278 q 404 -178 404 -226 q 435 -103 404 -129 q 525 -78 465 -78 q 615 -106 585 -78 q 646 -193 646 -135 q 640 -258 646 -225 q 619 -321 633 -290 q 583 -376 606 -351 z "},"Ṅ":{"ha":1053,"x_min":89,"x_max":963,"o":"m 208 -12 q 119 18 150 -12 q 89 108 89 49 l 89 865 q 119 959 89 926 q 200 992 150 992 q 269 975 244 992 q 325 919 294 958 l 765 369 l 726 369 l 726 872 q 756 961 726 931 q 844 992 786 992 q 933 961 903 992 q 963 872 963 931 l 963 103 q 935 19 963 50 q 860 -12 907 -12 q 785 5 813 -12 q 728 60 758 22 l 288 611 l 326 611 l 326 108 q 297 18 326 49 q 208 -12 267 -12 m 525 1072 q 438 1102 468 1072 q 407 1185 407 1132 q 438 1267 407 1239 q 525 1296 468 1296 q 613 1267 583 1296 q 643 1185 643 1239 q 613 1101 643 1131 q 525 1072 583 1072 z "},"Ṇ":{"ha":1053,"x_min":89,"x_max":963,"o":"m 208 -12 q 119 18 150 -12 q 89 108 89 49 l 89 865 q 119 959 89 926 q 200 992 150 992 q 269 975 244 992 q 325 919 294 958 l 765 369 l 726 369 l 726 872 q 756 961 726 931 q 844 992 786 992 q 933 961 903 992 q 963 872 963 931 l 963 103 q 935 19 963 50 q 860 -12 907 -12 q 785 5 813 -12 q 728 60 758 22 l 288 611 l 326 611 l 326 108 q 297 18 326 49 q 208 -12 267 -12 m 526 -319 q 439 -290 469 -319 q 408 -207 408 -260 q 439 -124 408 -153 q 526 -96 469 -96 q 615 -124 585 -96 q 644 -207 644 -153 q 615 -290 644 -261 q 526 -319 585 -319 z "},"ǋ":{"ha":1451,"x_min":89,"x_max":1392,"o":"m 208 -12 q 119 18 150 -12 q 89 108 89 49 l 89 865 q 119 959 89 926 q 200 992 150 992 q 269 975 244 992 q 325 919 294 958 l 765 369 l 726 369 l 726 872 q 756 961 726 931 q 844 992 786 992 q 933 961 903 992 q 963 872 963 931 l 963 103 q 935 19 963 50 q 860 -12 907 -12 q 785 5 813 -12 q 728 60 758 22 l 288 611 l 326 611 l 326 108 q 297 18 326 49 q 208 -12 267 -12 m 1085 -260 q 1016 -244 1042 -261 q 981 -203 990 -228 q 976 -152 971 -178 q 999 -108 981 -126 q 1044 -86 1017 -89 q 1111 -62 1090 -83 q 1132 4 1132 -40 l 1132 572 q 1164 664 1132 632 q 1256 696 1196 696 q 1347 664 1315 696 q 1379 572 1379 632 l 1379 28 q 1347 -128 1379 -65 q 1251 -224 1315 -192 q 1085 -260 1186 -257 m 1254 794 q 1152 825 1188 794 q 1117 914 1117 856 q 1152 1001 1117 971 q 1254 1032 1188 1032 q 1356 1001 1321 1032 q 1392 914 1392 971 q 1356 825 1392 856 q 1254 794 1321 794 z "},"Ṉ":{"ha":1053,"x_min":89,"x_max":963,"o":"m 208 -12 q 119 18 150 -12 q 89 108 89 49 l 89 865 q 119 959 89 926 q 200 992 150 992 q 269 975 244 992 q 325 919 294 958 l 765 369 l 726 369 l 726 872 q 756 961 726 931 q 844 992 786 992 q 933 961 903 992 q 963 872 963 931 l 963 103 q 935 19 963 50 q 860 -12 907 -12 q 785 5 813 -12 q 728 60 758 22 l 288 611 l 326 611 l 326 108 q 297 18 326 49 q 208 -12 267 -12 m 351 -243 q 281 -176 281 -243 q 299 -126 281 -144 q 351 -108 317 -108 l 703 -108 q 772 -176 772 -108 q 754 -225 772 -207 q 703 -243 736 -243 l 351 -243 z "},"Ñ":{"ha":1053,"x_min":89,"x_max":963,"o":"m 208 -12 q 119 18 150 -12 q 89 108 89 49 l 89 865 q 119 959 89 926 q 200 992 150 992 q 269 975 244 992 q 325 919 294 958 l 765 369 l 726 369 l 726 872 q 756 961 726 931 q 844 992 786 992 q 933 961 903 992 q 963 872 963 931 l 963 103 q 935 19 963 50 q 860 -12 907 -12 q 785 5 813 -12 q 728 60 758 22 l 288 611 l 326 611 l 326 108 q 297 18 326 49 q 208 -12 267 -12 m 253 1050 q 208 1069 224 1053 q 199 1117 192 1086 q 272 1247 217 1201 q 401 1292 328 1292 q 475 1281 442 1292 q 539 1254 508 1269 q 597 1228 569 1239 q 653 1217 625 1217 q 700 1228 681 1217 q 729 1258 719 1239 q 758 1293 743 1281 q 797 1303 772 1306 q 842 1284 826 1301 q 851 1236 858 1267 q 778 1107 833 1151 q 649 1063 724 1063 q 576 1074 610 1063 q 511 1099 542 1085 q 453 1125 481 1114 q 397 1136 425 1136 q 351 1125 371 1136 q 321 1096 331 1114 q 292 1061 307 1074 q 253 1050 278 1049 z "},"Ŋ":{"ha":1053,"x_min":89,"x_max":963,"o":"m 668 -260 q 599 -244 625 -261 q 565 -203 574 -228 q 560 -152 556 -178 q 583 -108 564 -126 q 629 -86 601 -89 q 701 -61 675 -82 q 726 4 726 -40 l 726 93 l 776 0 l 288 611 l 326 611 l 326 108 q 297 18 326 49 q 208 -12 267 -12 q 119 18 150 -12 q 89 108 89 49 l 89 865 q 119 959 89 926 q 200 992 150 992 q 269 975 244 992 q 325 919 294 958 l 765 369 l 726 369 l 726 872 q 756 961 726 931 q 844 992 786 992 q 933 961 903 992 q 963 872 963 931 l 963 39 q 890 -187 963 -118 q 668 -260 818 -257 z "},"O":{"ha":1121,"x_min":64,"x_max":1058,"o":"m 561 -15 q 300 48 413 -15 q 126 225 188 111 q 64 490 64 339 q 99 697 64 604 q 201 857 135 790 q 358 959 267 924 q 561 994 450 994 q 822 932 710 994 q 996 756 933 869 q 1058 490 1058 643 q 1023 283 1058 376 q 922 123 988 190 q 764 20 856 56 q 561 -15 672 -15 m 561 199 q 686 233 635 199 q 765 333 738 268 q 793 490 793 399 q 732 704 793 628 q 561 781 671 781 q 437 747 489 781 q 357 648 385 713 q 329 490 329 583 q 390 276 329 353 q 561 199 451 199 z "},"Ó":{"ha":1121,"x_min":64,"x_max":1058,"o":"m 561 -15 q 300 48 413 -15 q 126 225 188 111 q 64 490 64 339 q 99 697 64 604 q 201 857 135 790 q 358 959 267 924 q 561 994 450 994 q 822 932 710 994 q 996 756 933 869 q 1058 490 1058 643 q 1023 283 1058 376 q 922 123 988 190 q 764 20 856 56 q 561 -15 672 -15 m 561 199 q 686 233 635 199 q 765 333 738 268 q 793 490 793 399 q 732 704 793 628 q 561 781 671 781 q 437 747 489 781 q 357 648 385 713 q 329 490 329 583 q 390 276 329 353 q 561 199 451 199 m 654 1074 q 603 1050 631 1050 q 555 1066 576 1050 q 526 1106 533 1082 q 538 1157 519 1131 l 628 1292 q 675 1326 647 1321 q 729 1322 703 1332 q 774 1290 756 1311 q 793 1242 792 1268 q 769 1190 794 1215 l 654 1074 z "},"Ŏ":{"ha":1121,"x_min":64,"x_max":1058,"o":"m 561 -15 q 300 48 413 -15 q 126 225 188 111 q 64 490 64 339 q 99 697 64 604 q 201 857 135 790 q 358 959 267 924 q 561 994 450 994 q 822 932 710 994 q 996 756 933 869 q 1058 490 1058 643 q 1023 283 1058 376 q 922 123 988 190 q 764 20 856 56 q 561 -15 672 -15 m 561 199 q 686 233 635 199 q 765 333 738 268 q 793 490 793 399 q 732 704 793 628 q 561 781 671 781 q 437 747 489 781 q 357 648 385 713 q 329 490 329 583 q 390 276 329 353 q 561 199 451 199 m 558 1056 q 391 1101 461 1056 q 297 1222 321 1147 q 299 1284 282 1260 q 347 1311 317 1308 q 391 1305 375 1314 q 417 1282 407 1296 q 436 1257 428 1268 q 485 1208 453 1224 q 558 1193 517 1193 q 632 1208 600 1193 q 681 1257 664 1224 q 700 1282 690 1268 q 726 1305 710 1296 q 769 1311 742 1314 q 816 1285 800 1308 q 819 1222 832 1261 q 726 1101 797 1147 q 558 1056 656 1056 z "},"Ô":{"ha":1121,"x_min":64,"x_max":1058,"o":"m 561 -15 q 300 48 413 -15 q 126 225 188 111 q 64 490 64 339 q 99 697 64 604 q 201 857 135 790 q 358 959 267 924 q 561 994 450 994 q 822 932 710 994 q 996 756 933 869 q 1058 490 1058 643 q 1023 283 1058 376 q 922 123 988 190 q 764 20 856 56 q 561 -15 672 -15 m 561 199 q 686 233 635 199 q 765 333 738 268 q 793 490 793 399 q 732 704 793 628 q 561 781 671 781 q 437 747 489 781 q 357 648 385 713 q 329 490 329 583 q 390 276 329 353 q 561 199 451 199 m 461 1075 q 411 1050 439 1051 q 361 1063 383 1049 q 333 1100 339 1076 q 344 1149 326 1124 l 419 1254 q 481 1311 447 1293 q 558 1329 515 1329 q 636 1311 601 1329 q 697 1254 671 1293 l 772 1149 q 785 1100 792 1124 q 756 1063 778 1076 q 707 1050 735 1049 q 656 1075 679 1051 l 558 1182 l 461 1075 z "},"Ố":{"ha":1121,"x_min":64,"x_max":1058,"o":"m 561 -15 q 300 48 413 -15 q 126 225 188 111 q 64 490 64 339 q 99 697 64 604 q 201 857 135 790 q 358 959 267 924 q 561 994 450 994 q 822 932 710 994 q 996 756 933 869 q 1058 490 1058 643 q 1023 283 1058 376 q 922 123 988 190 q 764 20 856 56 q 561 -15 672 -15 m 561 199 q 686 233 635 199 q 765 333 738 268 q 793 490 793 399 q 732 704 793 628 q 561 781 671 781 q 437 747 489 781 q 357 648 385 713 q 329 490 329 583 q 390 276 329 353 q 561 199 451 199 m 458 1069 q 408 1043 433 1046 q 364 1054 383 1040 q 340 1090 344 1068 q 353 1140 335 1113 l 422 1243 q 483 1300 450 1283 q 558 1317 515 1317 q 612 1310 588 1317 q 656 1287 636 1303 q 694 1243 676 1271 l 764 1140 q 777 1090 782 1113 q 753 1054 772 1068 q 709 1043 735 1040 q 658 1069 683 1046 l 558 1171 l 458 1069 m 854 1204 q 815 1179 836 1182 q 776 1187 793 1176 q 753 1218 758 1197 q 761 1265 747 1239 l 836 1404 q 874 1438 851 1431 q 919 1439 896 1446 q 958 1415 942 1432 q 975 1374 974 1397 q 956 1326 976 1350 l 854 1204 z "},"Ộ":{"ha":1121,"x_min":64,"x_max":1058,"o":"m 561 -15 q 300 48 413 -15 q 126 225 188 111 q 64 490 64 339 q 99 697 64 604 q 201 857 135 790 q 358 959 267 924 q 561 994 450 994 q 822 932 710 994 q 996 756 933 869 q 1058 490 1058 643 q 1023 283 1058 376 q 922 123 988 190 q 764 20 856 56 q 561 -15 672 -15 m 561 199 q 686 233 635 199 q 765 333 738 268 q 793 490 793 399 q 732 704 793 628 q 561 781 671 781 q 437 747 489 781 q 357 648 385 713 q 329 490 329 583 q 390 276 329 353 q 561 199 451 199 m 560 -319 q 472 -290 503 -319 q 442 -207 442 -260 q 472 -124 442 -153 q 560 -96 503 -96 q 648 -124 618 -96 q 678 -207 678 -153 q 648 -290 678 -261 q 560 -319 618 -319 m 461 1075 q 411 1050 439 1051 q 361 1063 383 1049 q 333 1100 339 1076 q 344 1149 326 1124 l 419 1254 q 481 1311 447 1293 q 558 1329 515 1329 q 636 1311 601 1329 q 697 1254 671 1293 l 772 1149 q 785 1100 792 1124 q 756 1063 778 1076 q 707 1050 735 1049 q 656 1075 679 1051 l 558 1182 l 461 1075 z "},"Ồ":{"ha":1121,"x_min":64,"x_max":1058,"o":"m 561 -15 q 300 48 413 -15 q 126 225 188 111 q 64 490 64 339 q 99 697 64 604 q 201 857 135 790 q 358 959 267 924 q 561 994 450 994 q 822 932 710 994 q 996 756 933 869 q 1058 490 1058 643 q 1023 283 1058 376 q 922 123 988 190 q 764 20 856 56 q 561 -15 672 -15 m 561 199 q 686 233 635 199 q 765 333 738 268 q 793 490 793 399 q 732 704 793 628 q 561 781 671 781 q 437 747 489 781 q 357 648 385 713 q 329 490 329 583 q 390 276 329 353 q 561 199 451 199 m 458 1069 q 408 1043 433 1046 q 364 1054 383 1040 q 340 1090 344 1068 q 353 1140 335 1113 l 422 1243 q 483 1300 450 1283 q 558 1317 515 1317 q 612 1310 588 1317 q 656 1287 636 1303 q 694 1243 676 1271 l 764 1140 q 777 1090 782 1113 q 753 1054 772 1068 q 709 1043 735 1040 q 658 1069 683 1046 l 558 1171 l 458 1069 m 797 1204 l 696 1326 q 676 1374 675 1350 q 694 1415 678 1397 q 733 1439 710 1432 q 778 1438 756 1446 q 815 1404 801 1431 l 890 1265 q 899 1218 904 1239 q 876 1187 893 1197 q 837 1179 858 1176 q 797 1204 815 1182 z "},"Ổ":{"ha":1121,"x_min":64,"x_max":1058,"o":"m 561 -15 q 300 48 413 -15 q 126 225 188 111 q 64 490 64 339 q 99 697 64 604 q 201 857 135 790 q 358 959 267 924 q 561 994 450 994 q 822 932 710 994 q 996 756 933 869 q 1058 490 1058 643 q 1023 283 1058 376 q 922 123 988 190 q 764 20 856 56 q 561 -15 672 -15 m 561 199 q 686 233 635 199 q 765 333 738 268 q 793 490 793 399 q 732 704 793 628 q 561 781 671 781 q 437 747 489 781 q 357 648 385 713 q 329 490 329 583 q 390 276 329 353 q 561 199 451 199 m 458 1069 q 408 1043 433 1046 q 364 1054 383 1040 q 340 1090 344 1068 q 353 1140 335 1113 l 422 1243 q 483 1300 450 1283 q 558 1317 515 1317 q 612 1310 588 1317 q 656 1287 636 1303 q 694 1243 676 1271 l 764 1140 q 777 1090 782 1113 q 753 1054 772 1068 q 709 1043 735 1040 q 658 1069 683 1046 l 558 1171 l 458 1069 m 831 1207 q 786 1199 810 1196 q 751 1218 763 1203 q 754 1254 740 1233 q 776 1282 767 1268 q 785 1310 785 1296 q 774 1328 785 1322 q 746 1335 764 1335 q 730 1334 739 1335 q 713 1332 721 1333 q 672 1333 688 1326 q 651 1358 657 1340 q 653 1394 644 1379 q 686 1415 661 1410 q 740 1426 713 1422 q 801 1429 768 1429 q 899 1410 865 1429 q 933 1346 933 1390 q 917 1292 933 1319 q 878 1244 901 1265 q 831 1207 856 1222 z "},"Ỗ":{"ha":1121,"x_min":64,"x_max":1058,"o":"m 561 -15 q 300 48 413 -15 q 126 225 188 111 q 64 490 64 339 q 99 697 64 604 q 201 857 135 790 q 358 959 267 924 q 561 994 450 994 q 822 932 710 994 q 996 756 933 869 q 1058 490 1058 643 q 1023 283 1058 376 q 922 123 988 190 q 764 20 856 56 q 561 -15 672 -15 m 561 199 q 686 233 635 199 q 765 333 738 268 q 793 490 793 399 q 732 704 793 628 q 561 781 671 781 q 437 747 489 781 q 357 648 385 713 q 329 490 329 583 q 390 276 329 353 q 561 199 451 199 m 438 1057 q 379 1045 406 1036 q 344 1078 353 1054 q 354 1126 335 1103 l 410 1194 q 476 1245 439 1231 q 558 1260 514 1260 q 615 1253 589 1260 q 665 1232 642 1246 q 707 1194 688 1218 l 763 1126 q 776 1090 778 1110 q 760 1058 774 1071 q 724 1043 746 1044 q 679 1057 703 1042 l 558 1142 l 438 1057 m 351 1279 q 311 1298 325 1281 q 307 1343 297 1315 q 365 1421 324 1393 q 464 1449 407 1449 q 533 1437 501 1449 q 593 1413 565 1425 q 644 1401 621 1401 q 676 1405 663 1401 q 699 1419 690 1408 q 729 1445 715 1435 q 765 1453 743 1456 q 807 1435 793 1451 q 811 1389 821 1418 q 753 1310 794 1338 q 653 1282 711 1282 q 584 1294 617 1282 q 524 1319 551 1307 q 472 1331 497 1331 q 442 1326 456 1331 q 419 1313 428 1322 q 389 1288 403 1299 q 351 1279 375 1278 z "},"Ȍ":{"ha":1121,"x_min":64,"x_max":1058,"o":"m 561 -15 q 300 48 413 -15 q 126 225 188 111 q 64 490 64 339 q 99 697 64 604 q 201 857 135 790 q 358 959 267 924 q 561 994 450 994 q 822 932 710 994 q 996 756 933 869 q 1058 490 1058 643 q 1023 283 1058 376 q 922 123 988 190 q 764 20 856 56 q 561 -15 672 -15 m 561 199 q 686 233 635 199 q 765 333 738 268 q 793 490 793 399 q 732 704 793 628 q 561 781 671 781 q 437 747 489 781 q 357 648 385 713 q 329 490 329 583 q 390 276 329 353 q 561 199 451 199 m 596 1079 l 500 1203 q 481 1257 478 1232 q 503 1301 485 1282 q 547 1326 521 1319 q 599 1323 574 1332 q 638 1285 625 1314 l 710 1138 q 714 1090 722 1111 q 685 1058 706 1069 q 640 1051 664 1047 q 596 1079 615 1054 m 364 1072 l 251 1204 q 228 1257 228 1232 q 247 1300 229 1282 q 288 1325 264 1318 q 338 1324 313 1332 q 381 1288 364 1315 l 461 1143 q 470 1096 476 1118 q 446 1060 464 1074 q 405 1049 428 1047 q 364 1072 382 1050 z "},"Ö":{"ha":1121,"x_min":64,"x_max":1058,"o":"m 561 -15 q 300 48 413 -15 q 126 225 188 111 q 64 490 64 339 q 99 697 64 604 q 201 857 135 790 q 358 959 267 924 q 561 994 450 994 q 822 932 710 994 q 996 756 933 869 q 1058 490 1058 643 q 1023 283 1058 376 q 922 123 988 190 q 764 20 856 56 q 561 -15 672 -15 m 561 199 q 686 233 635 199 q 765 333 738 268 q 793 490 793 399 q 732 704 793 628 q 561 781 671 781 q 437 747 489 781 q 357 648 385 713 q 329 490 329 583 q 390 276 329 353 q 561 199 451 199 m 701 1064 q 619 1093 649 1064 q 590 1175 590 1122 q 619 1258 590 1229 q 701 1286 649 1286 q 784 1258 756 1286 q 813 1175 813 1229 q 784 1093 813 1122 q 701 1064 756 1064 m 415 1064 q 333 1093 363 1064 q 304 1175 304 1122 q 333 1258 304 1229 q 415 1286 363 1286 q 498 1258 469 1286 q 526 1175 526 1229 q 498 1093 526 1122 q 415 1064 469 1064 z "},"Ȫ":{"ha":1121,"x_min":64,"x_max":1058,"o":"m 561 -15 q 300 48 413 -15 q 126 225 188 111 q 64 490 64 339 q 99 697 64 604 q 201 857 135 790 q 358 959 267 924 q 561 994 450 994 q 822 932 710 994 q 996 756 933 869 q 1058 490 1058 643 q 1023 283 1058 376 q 922 123 988 190 q 764 20 856 56 q 561 -15 672 -15 m 561 199 q 686 233 635 199 q 765 333 738 268 q 793 490 793 399 q 732 704 793 628 q 561 781 671 781 q 437 747 489 781 q 357 648 385 713 q 329 490 329 583 q 390 276 329 353 q 561 199 451 199 m 393 1281 q 336 1299 356 1281 q 317 1349 317 1317 q 336 1398 317 1381 q 393 1415 356 1415 l 724 1415 q 781 1398 761 1415 q 800 1349 800 1381 q 781 1299 800 1317 q 724 1281 761 1281 l 393 1281 m 415 1069 q 333 1091 363 1069 q 304 1151 304 1113 q 333 1210 304 1190 q 415 1231 363 1231 q 498 1210 469 1231 q 526 1151 526 1190 q 498 1091 526 1113 q 415 1069 469 1069 m 701 1069 q 619 1091 649 1069 q 590 1151 590 1113 q 619 1210 590 1190 q 701 1231 649 1231 q 784 1210 756 1231 q 813 1151 813 1190 q 784 1091 813 1113 q 701 1069 756 1069 z "},"Ȱ":{"ha":1121,"x_min":64,"x_max":1058,"o":"m 561 -15 q 300 48 413 -15 q 126 225 188 111 q 64 490 64 339 q 99 697 64 604 q 201 857 135 790 q 358 959 267 924 q 561 994 450 994 q 822 932 710 994 q 996 756 933 869 q 1058 490 1058 643 q 1023 283 1058 376 q 922 123 988 190 q 764 20 856 56 q 561 -15 672 -15 m 561 199 q 686 233 635 199 q 765 333 738 268 q 793 490 793 399 q 732 704 793 628 q 561 781 671 781 q 437 747 489 781 q 357 648 385 713 q 329 490 329 583 q 390 276 329 353 q 561 199 451 199 m 393 1281 q 336 1299 356 1281 q 317 1349 317 1317 q 336 1398 317 1381 q 393 1415 356 1415 l 724 1415 q 781 1398 761 1415 q 800 1349 800 1381 q 781 1299 800 1317 q 724 1281 761 1281 l 393 1281 m 560 1069 q 477 1091 507 1069 q 447 1151 447 1113 q 477 1210 447 1190 q 560 1231 507 1231 q 642 1210 614 1231 q 671 1151 671 1190 q 642 1091 671 1113 q 560 1069 614 1069 z "},"Ọ":{"ha":1121,"x_min":64,"x_max":1058,"o":"m 561 -15 q 300 48 413 -15 q 126 225 188 111 q 64 490 64 339 q 99 697 64 604 q 201 857 135 790 q 358 959 267 924 q 561 994 450 994 q 822 932 710 994 q 996 756 933 869 q 1058 490 1058 643 q 1023 283 1058 376 q 922 123 988 190 q 764 20 856 56 q 561 -15 672 -15 m 561 199 q 686 233 635 199 q 765 333 738 268 q 793 490 793 399 q 732 704 793 628 q 561 781 671 781 q 437 747 489 781 q 357 648 385 713 q 329 490 329 583 q 390 276 329 353 q 561 199 451 199 m 560 -319 q 472 -290 503 -319 q 442 -207 442 -260 q 472 -124 442 -153 q 560 -96 503 -96 q 648 -124 618 -96 q 678 -207 678 -153 q 648 -290 678 -261 q 560 -319 618 -319 z "},"Ò":{"ha":1121,"x_min":64,"x_max":1058,"o":"m 561 -15 q 300 48 413 -15 q 126 225 188 111 q 64 490 64 339 q 99 697 64 604 q 201 857 135 790 q 358 959 267 924 q 561 994 450 994 q 822 932 710 994 q 996 756 933 869 q 1058 490 1058 643 q 1023 283 1058 376 q 922 123 988 190 q 764 20 856 56 q 561 -15 672 -15 m 561 199 q 686 233 635 199 q 765 333 738 268 q 793 490 793 399 q 732 704 793 628 q 561 781 671 781 q 437 747 489 781 q 357 648 385 713 q 329 490 329 583 q 390 276 329 353 q 561 199 451 199 m 463 1074 l 347 1190 q 325 1242 324 1215 q 344 1290 326 1268 q 388 1322 361 1311 q 442 1326 414 1332 q 490 1292 469 1321 l 581 1157 q 590 1106 597 1131 q 563 1066 583 1082 q 515 1050 542 1050 q 463 1074 488 1050 z "},"Ỏ":{"ha":1121,"x_min":64,"x_max":1058,"o":"m 561 -15 q 300 48 413 -15 q 126 225 188 111 q 64 490 64 339 q 99 697 64 604 q 201 857 135 790 q 358 959 267 924 q 561 994 450 994 q 822 932 710 994 q 996 756 933 869 q 1058 490 1058 643 q 1023 283 1058 376 q 922 123 988 190 q 764 20 856 56 q 561 -15 672 -15 m 561 199 q 686 233 635 199 q 765 333 738 268 q 793 490 793 399 q 732 704 793 628 q 561 781 671 781 q 437 747 489 781 q 357 648 385 713 q 329 490 329 583 q 390 276 329 353 q 561 199 451 199 m 558 1050 q 506 1060 525 1050 q 488 1090 488 1071 q 498 1125 488 1111 q 522 1149 508 1139 q 545 1169 535 1160 q 556 1189 556 1178 q 543 1207 556 1201 q 510 1213 531 1213 q 491 1212 501 1213 q 471 1208 481 1211 q 427 1209 444 1203 q 401 1238 410 1215 q 401 1276 393 1258 q 436 1303 408 1294 q 499 1315 463 1311 q 574 1319 535 1319 q 691 1295 649 1319 q 733 1228 733 1271 q 718 1177 733 1196 q 682 1145 703 1158 q 645 1118 661 1132 q 629 1081 629 1104 q 611 1058 629 1067 q 558 1050 593 1050 z "},"Ơ":{"ha":1121,"x_min":64,"x_max":1058,"o":"m 561 -15 q 300 48 413 -15 q 126 225 188 111 q 64 490 64 339 q 99 697 64 604 q 201 857 135 790 q 358 959 267 924 q 561 994 450 994 q 822 932 710 994 q 996 756 933 869 q 1058 490 1058 643 q 1023 283 1058 376 q 922 123 988 190 q 764 20 856 56 q 561 -15 672 -15 m 561 199 q 686 233 635 199 q 765 333 738 268 q 793 490 793 399 q 732 704 793 628 q 561 781 671 781 q 437 747 489 781 q 357 648 385 713 q 329 490 329 583 q 390 276 329 353 q 561 199 451 199 m 694 867 l 643 985 q 688 981 668 983 q 725 979 708 979 q 787 990 763 979 q 824 1024 811 1001 q 838 1081 838 1046 q 865 1144 838 1124 q 944 1164 893 1164 q 1023 1140 996 1164 q 1050 1071 1050 1117 q 1026 971 1050 1018 q 958 895 1001 924 q 860 867 915 867 l 694 867 z "},"Ớ":{"ha":1121,"x_min":64,"x_max":1058,"o":"m 561 -15 q 300 48 413 -15 q 126 225 188 111 q 64 490 64 339 q 99 697 64 604 q 201 857 135 790 q 358 959 267 924 q 561 994 450 994 q 822 932 710 994 q 996 756 933 869 q 1058 490 1058 643 q 1023 283 1058 376 q 922 123 988 190 q 764 20 856 56 q 561 -15 672 -15 m 561 199 q 686 233 635 199 q 765 333 738 268 q 793 490 793 399 q 732 704 793 628 q 561 781 671 781 q 437 747 489 781 q 357 648 385 713 q 329 490 329 583 q 390 276 329 353 q 561 199 451 199 m 694 867 l 643 985 q 688 981 668 983 q 725 979 708 979 q 787 990 763 979 q 824 1024 811 1001 q 838 1081 838 1046 q 865 1144 838 1124 q 944 1164 893 1164 q 1023 1140 996 1164 q 1050 1071 1050 1117 q 1026 971 1050 1018 q 958 895 1001 924 q 860 867 915 867 l 694 867 m 649 1074 q 598 1050 625 1050 q 549 1066 571 1050 q 521 1106 528 1082 q 532 1157 514 1131 l 622 1292 q 669 1326 642 1321 q 724 1322 697 1332 q 768 1290 750 1311 q 788 1242 786 1268 q 764 1190 789 1215 l 649 1074 z "},"Ợ":{"ha":1121,"x_min":64,"x_max":1058,"o":"m 561 -15 q 300 48 413 -15 q 126 225 188 111 q 64 490 64 339 q 99 697 64 604 q 201 857 135 790 q 358 959 267 924 q 561 994 450 994 q 822 932 710 994 q 996 756 933 869 q 1058 490 1058 643 q 1023 283 1058 376 q 922 123 988 190 q 764 20 856 56 q 561 -15 672 -15 m 561 199 q 686 233 635 199 q 765 333 738 268 q 793 490 793 399 q 732 704 793 628 q 561 781 671 781 q 437 747 489 781 q 357 648 385 713 q 329 490 329 583 q 390 276 329 353 q 561 199 451 199 m 694 867 l 643 985 q 688 981 668 983 q 725 979 708 979 q 787 990 763 979 q 824 1024 811 1001 q 838 1081 838 1046 q 865 1144 838 1124 q 944 1164 893 1164 q 1023 1140 996 1164 q 1050 1071 1050 1117 q 1026 971 1050 1018 q 958 895 1001 924 q 860 867 915 867 l 694 867 m 554 -319 q 467 -290 497 -319 q 436 -207 436 -260 q 467 -124 436 -153 q 554 -96 497 -96 q 642 -124 613 -96 q 672 -207 672 -153 q 642 -290 672 -261 q 554 -319 613 -319 z "},"Ờ":{"ha":1121,"x_min":64,"x_max":1058,"o":"m 561 -15 q 300 48 413 -15 q 126 225 188 111 q 64 490 64 339 q 99 697 64 604 q 201 857 135 790 q 358 959 267 924 q 561 994 450 994 q 822 932 710 994 q 996 756 933 869 q 1058 490 1058 643 q 1023 283 1058 376 q 922 123 988 190 q 764 20 856 56 q 561 -15 672 -15 m 561 199 q 686 233 635 199 q 765 333 738 268 q 793 490 793 399 q 732 704 793 628 q 561 781 671 781 q 437 747 489 781 q 357 648 385 713 q 329 490 329 583 q 390 276 329 353 q 561 199 451 199 m 694 867 l 643 985 q 688 981 668 983 q 725 979 708 979 q 787 990 763 979 q 824 1024 811 1001 q 838 1081 838 1046 q 865 1144 838 1124 q 944 1164 893 1164 q 1023 1140 996 1164 q 1050 1071 1050 1117 q 1026 971 1050 1018 q 958 895 1001 924 q 860 867 915 867 l 694 867 m 457 1074 l 342 1190 q 319 1242 318 1215 q 338 1290 321 1268 q 382 1322 356 1311 q 436 1326 408 1332 q 485 1292 464 1321 l 575 1157 q 585 1106 592 1131 q 557 1066 578 1082 q 509 1050 536 1050 q 457 1074 482 1050 z "},"Ở":{"ha":1121,"x_min":64,"x_max":1058,"o":"m 561 -15 q 300 48 413 -15 q 126 225 188 111 q 64 490 64 339 q 99 697 64 604 q 201 857 135 790 q 358 959 267 924 q 561 994 450 994 q 822 932 710 994 q 996 756 933 869 q 1058 490 1058 643 q 1023 283 1058 376 q 922 123 988 190 q 764 20 856 56 q 561 -15 672 -15 m 561 199 q 686 233 635 199 q 765 333 738 268 q 793 490 793 399 q 732 704 793 628 q 561 781 671 781 q 437 747 489 781 q 357 648 385 713 q 329 490 329 583 q 390 276 329 353 q 561 199 451 199 m 694 867 l 643 985 q 688 981 668 983 q 725 979 708 979 q 787 990 763 979 q 824 1024 811 1001 q 838 1081 838 1046 q 865 1144 838 1124 q 944 1164 893 1164 q 1023 1140 996 1164 q 1050 1071 1050 1117 q 1026 971 1050 1018 q 958 895 1001 924 q 860 867 915 867 l 694 867 m 553 1050 q 501 1060 519 1050 q 482 1090 482 1071 q 492 1125 482 1111 q 516 1149 503 1139 q 540 1169 529 1160 q 550 1189 550 1178 q 538 1207 550 1201 q 504 1213 525 1213 q 485 1212 496 1213 q 465 1208 475 1211 q 422 1209 439 1203 q 396 1238 404 1215 q 395 1276 388 1258 q 431 1303 403 1294 q 493 1315 457 1311 q 568 1319 529 1319 q 685 1295 643 1319 q 728 1228 728 1271 q 713 1177 728 1196 q 676 1145 697 1158 q 640 1118 656 1132 q 624 1081 624 1104 q 606 1058 624 1067 q 553 1050 588 1050 z "},"Ỡ":{"ha":1121,"x_min":64,"x_max":1058,"o":"m 561 -15 q 300 48 413 -15 q 126 225 188 111 q 64 490 64 339 q 99 697 64 604 q 201 857 135 790 q 358 959 267 924 q 561 994 450 994 q 822 932 710 994 q 996 756 933 869 q 1058 490 1058 643 q 1023 283 1058 376 q 922 123 988 190 q 764 20 856 56 q 561 -15 672 -15 m 561 199 q 686 233 635 199 q 765 333 738 268 q 793 490 793 399 q 732 704 793 628 q 561 781 671 781 q 437 747 489 781 q 357 648 385 713 q 329 490 329 583 q 390 276 329 353 q 561 199 451 199 m 694 867 l 643 985 q 688 981 668 983 q 725 979 708 979 q 787 990 763 979 q 824 1024 811 1001 q 838 1081 838 1046 q 865 1144 838 1124 q 944 1164 893 1164 q 1023 1140 996 1164 q 1050 1071 1050 1117 q 1026 971 1050 1018 q 958 895 1001 924 q 860 867 915 867 l 694 867 m 290 1050 q 248 1072 263 1053 q 239 1121 233 1090 q 304 1247 254 1201 q 424 1292 354 1292 q 487 1281 460 1292 q 537 1254 514 1269 q 583 1228 560 1239 q 633 1217 607 1217 q 672 1227 656 1217 q 699 1254 689 1238 q 730 1292 715 1279 q 772 1303 744 1306 q 813 1283 799 1301 q 821 1232 826 1264 q 756 1108 806 1153 q 636 1063 707 1063 q 574 1074 601 1063 q 523 1099 546 1085 q 477 1125 500 1114 q 428 1136 454 1136 q 389 1126 406 1136 q 363 1099 372 1115 q 332 1062 347 1075 q 290 1050 317 1049 z "},"Ő":{"ha":1121,"x_min":64,"x_max":1058,"o":"m 561 -15 q 300 48 413 -15 q 126 225 188 111 q 64 490 64 339 q 99 697 64 604 q 201 857 135 790 q 358 959 267 924 q 561 994 450 994 q 822 932 710 994 q 996 756 933 869 q 1058 490 1058 643 q 1023 283 1058 376 q 922 123 988 190 q 764 20 856 56 q 561 -15 672 -15 m 561 199 q 686 233 635 199 q 765 333 738 268 q 793 490 793 399 q 732 704 793 628 q 561 781 671 781 q 437 747 489 781 q 357 648 385 713 q 329 490 329 583 q 390 276 329 353 q 561 199 451 199 m 521 1079 q 477 1051 501 1054 q 433 1058 453 1047 q 404 1090 413 1069 q 407 1138 396 1111 l 479 1285 q 517 1323 492 1314 q 569 1326 543 1332 q 614 1301 596 1319 q 635 1257 632 1282 q 617 1203 639 1232 l 521 1079 m 753 1072 q 712 1049 735 1050 q 671 1060 689 1047 q 647 1095 653 1074 q 656 1143 640 1117 l 738 1288 q 778 1324 753 1315 q 829 1325 804 1332 q 871 1300 854 1318 q 889 1257 888 1282 q 867 1204 890 1232 l 753 1072 z "},"Ȏ":{"ha":1121,"x_min":64,"x_max":1058,"o":"m 561 -15 q 300 48 413 -15 q 126 225 188 111 q 64 490 64 339 q 99 697 64 604 q 201 857 135 790 q 358 959 267 924 q 561 994 450 994 q 822 932 710 994 q 996 756 933 869 q 1058 490 1058 643 q 1023 283 1058 376 q 922 123 988 190 q 764 20 856 56 q 561 -15 672 -15 m 561 199 q 686 233 635 199 q 765 333 738 268 q 793 490 793 399 q 732 704 793 628 q 561 781 671 781 q 437 747 489 781 q 357 648 385 713 q 329 490 329 583 q 390 276 329 353 q 561 199 451 199 m 346 1057 q 299 1084 314 1060 q 296 1144 285 1108 q 391 1267 319 1222 q 557 1311 463 1311 q 724 1267 653 1311 q 819 1144 796 1222 q 817 1085 832 1110 q 769 1057 801 1060 q 725 1062 742 1053 q 699 1085 708 1071 q 681 1111 689 1100 q 631 1159 664 1144 q 557 1174 599 1174 q 485 1159 518 1174 q 435 1111 453 1144 q 417 1085 426 1100 q 390 1063 407 1071 q 346 1057 374 1054 z "},"Ō":{"ha":1121,"x_min":64,"x_max":1058,"o":"m 561 -15 q 300 48 413 -15 q 126 225 188 111 q 64 490 64 339 q 99 697 64 604 q 201 857 135 790 q 358 959 267 924 q 561 994 450 994 q 822 932 710 994 q 996 756 933 869 q 1058 490 1058 643 q 1023 283 1058 376 q 922 123 988 190 q 764 20 856 56 q 561 -15 672 -15 m 561 199 q 686 233 635 199 q 765 333 738 268 q 793 490 793 399 q 732 704 793 628 q 561 781 671 781 q 437 747 489 781 q 357 648 385 713 q 329 490 329 583 q 390 276 329 353 q 561 199 451 199 m 363 1106 q 292 1172 292 1106 q 310 1222 292 1204 q 363 1240 328 1240 l 756 1240 q 825 1172 825 1240 q 807 1124 825 1142 q 756 1106 789 1106 l 363 1106 z "},"Ṓ":{"ha":1121,"x_min":64,"x_max":1058,"o":"m 561 -15 q 300 48 413 -15 q 126 225 188 111 q 64 490 64 339 q 99 697 64 604 q 201 857 135 790 q 358 959 267 924 q 561 994 450 994 q 822 932 710 994 q 996 756 933 869 q 1058 490 1058 643 q 1023 283 1058 376 q 922 123 988 190 q 764 20 856 56 q 561 -15 672 -15 m 561 199 q 686 233 635 199 q 765 333 738 268 q 793 490 793 399 q 732 704 793 628 q 561 781 671 781 q 437 747 489 781 q 357 648 385 713 q 329 490 329 583 q 390 276 329 353 q 561 199 451 199 m 393 1075 q 336 1092 356 1075 q 317 1143 317 1110 q 336 1192 317 1174 q 393 1210 356 1210 l 724 1210 q 781 1192 761 1210 q 800 1143 800 1174 q 781 1092 800 1110 q 724 1075 761 1075 l 393 1075 m 633 1263 q 586 1236 611 1239 q 541 1246 561 1233 q 513 1281 521 1258 q 517 1329 504 1303 l 560 1418 q 600 1459 574 1450 q 654 1461 626 1468 q 701 1435 682 1454 q 722 1390 719 1415 q 700 1336 725 1364 l 633 1263 z "},"Ṑ":{"ha":1121,"x_min":64,"x_max":1058,"o":"m 561 -15 q 300 48 413 -15 q 126 225 188 111 q 64 490 64 339 q 99 697 64 604 q 201 857 135 790 q 358 959 267 924 q 561 994 450 994 q 822 932 710 994 q 996 756 933 869 q 1058 490 1058 643 q 1023 283 1058 376 q 922 123 988 190 q 764 20 856 56 q 561 -15 672 -15 m 561 199 q 686 233 635 199 q 765 333 738 268 q 793 490 793 399 q 732 704 793 628 q 561 781 671 781 q 437 747 489 781 q 357 648 385 713 q 329 490 329 583 q 390 276 329 353 q 561 199 451 199 m 483 1263 l 417 1336 q 394 1390 392 1364 q 416 1435 397 1415 q 463 1461 435 1454 q 517 1459 490 1468 q 557 1418 543 1450 l 600 1329 q 604 1281 613 1303 q 576 1246 596 1258 q 531 1236 556 1233 q 483 1263 506 1239 m 393 1075 q 336 1092 356 1075 q 317 1143 317 1110 q 336 1192 317 1174 q 393 1210 356 1210 l 724 1210 q 781 1192 761 1210 q 800 1143 800 1174 q 781 1092 800 1110 q 724 1075 761 1075 l 393 1075 z "},"Ǫ":{"ha":1121,"x_min":64,"x_max":1058,"o":"m 561 -15 q 300 48 413 -15 q 126 225 188 111 q 64 490 64 339 q 99 697 64 604 q 201 857 135 790 q 358 959 267 924 q 561 994 450 994 q 822 932 710 994 q 996 756 933 869 q 1058 490 1058 643 q 1023 283 1058 376 q 922 123 988 190 q 764 20 856 56 q 561 -15 672 -15 m 561 199 q 686 233 635 199 q 765 333 738 268 q 793 490 793 399 q 732 704 793 628 q 561 781 671 781 q 437 747 489 781 q 357 648 385 713 q 329 490 329 583 q 390 276 329 353 q 561 199 451 199 m 613 -275 q 475 -233 524 -275 q 426 -121 426 -192 q 469 -7 426 -57 q 579 67 513 43 l 646 0 q 606 -24 622 -10 q 581 -56 589 -39 q 572 -92 572 -74 q 594 -137 572 -121 q 646 -154 615 -154 q 665 -153 656 -154 q 683 -150 674 -151 q 733 -158 715 -144 q 754 -192 751 -171 q 744 -234 757 -214 q 704 -264 732 -254 q 656 -273 681 -271 q 613 -275 632 -275 z "},"Ø":{"ha":1121,"x_min":64,"x_max":1058,"o":"m 561 -15 q 300 48 413 -15 q 126 225 188 111 q 64 490 64 339 q 99 697 64 604 q 201 857 135 790 q 358 959 267 924 q 561 994 450 994 q 822 932 710 994 q 996 756 933 869 q 1058 490 1058 643 q 1023 283 1058 376 q 922 123 988 190 q 764 20 856 56 q 561 -15 672 -15 m 561 199 q 686 233 635 199 q 765 333 738 268 q 793 490 793 399 q 732 704 793 628 q 561 781 671 781 q 437 747 489 781 q 357 648 385 713 q 329 490 329 583 q 390 276 329 353 q 561 199 451 199 m 357 -44 q 310 -86 338 -76 q 254 -89 282 -96 q 206 -61 226 -82 q 181 -10 185 -40 q 197 54 176 19 l 265 168 l 344 274 l 656 808 l 694 907 l 763 1024 q 810 1065 782 1056 q 865 1068 838 1075 q 914 1040 893 1061 q 939 990 935 1019 q 922 925 943 960 l 854 811 l 775 706 l 464 172 l 425 72 l 357 -44 z "},"Ǿ":{"ha":1121,"x_min":64,"x_max":1058,"o":"m 561 -15 q 300 48 413 -15 q 126 225 188 111 q 64 490 64 339 q 99 697 64 604 q 201 857 135 790 q 358 959 267 924 q 561 994 450 994 q 822 932 710 994 q 996 756 933 869 q 1058 490 1058 643 q 1023 283 1058 376 q 922 123 988 190 q 764 20 856 56 q 561 -15 672 -15 m 561 199 q 686 233 635 199 q 765 333 738 268 q 793 490 793 399 q 732 704 793 628 q 561 781 671 781 q 437 747 489 781 q 357 648 385 713 q 329 490 329 583 q 390 276 329 353 q 561 199 451 199 m 357 -44 q 310 -86 338 -76 q 254 -89 282 -96 q 206 -61 226 -82 q 181 -10 185 -40 q 197 54 176 19 l 265 168 l 344 274 l 656 808 l 694 907 l 763 1024 q 810 1065 782 1056 q 865 1068 838 1075 q 914 1040 893 1061 q 939 990 935 1019 q 922 925 943 960 l 854 811 l 775 706 l 464 172 l 425 72 l 357 -44 m 654 1074 q 603 1050 631 1050 q 555 1066 576 1050 q 526 1106 533 1082 q 538 1157 519 1131 l 628 1292 q 675 1326 647 1321 q 729 1322 703 1332 q 774 1290 756 1311 q 793 1242 792 1268 q 769 1190 794 1215 l 654 1074 z "},"Õ":{"ha":1121,"x_min":64,"x_max":1058,"o":"m 561 -15 q 300 48 413 -15 q 126 225 188 111 q 64 490 64 339 q 99 697 64 604 q 201 857 135 790 q 358 959 267 924 q 561 994 450 994 q 822 932 710 994 q 996 756 933 869 q 1058 490 1058 643 q 1023 283 1058 376 q 922 123 988 190 q 764 20 856 56 q 561 -15 672 -15 m 561 199 q 686 233 635 199 q 765 333 738 268 q 793 490 793 399 q 732 704 793 628 q 561 781 671 781 q 437 747 489 781 q 357 648 385 713 q 329 490 329 583 q 390 276 329 353 q 561 199 451 199 m 286 1050 q 241 1069 257 1053 q 232 1117 225 1086 q 306 1247 250 1201 q 435 1292 361 1292 q 508 1281 475 1292 q 572 1254 542 1269 q 631 1228 603 1239 q 686 1217 658 1217 q 733 1228 714 1217 q 763 1258 753 1239 q 791 1293 776 1281 q 831 1303 806 1306 q 876 1284 860 1301 q 885 1236 892 1267 q 812 1107 867 1151 q 682 1063 757 1063 q 609 1074 643 1063 q 544 1099 575 1085 q 486 1125 514 1114 q 431 1136 458 1136 q 384 1125 404 1136 q 354 1096 364 1114 q 326 1061 340 1074 q 286 1050 311 1049 z "},"Ṍ":{"ha":1121,"x_min":64,"x_max":1058,"o":"m 561 -15 q 300 48 413 -15 q 126 225 188 111 q 64 490 64 339 q 99 697 64 604 q 201 857 135 790 q 358 959 267 924 q 561 994 450 994 q 822 932 710 994 q 996 756 933 869 q 1058 490 1058 643 q 1023 283 1058 376 q 922 123 988 190 q 764 20 856 56 q 561 -15 672 -15 m 561 199 q 686 233 635 199 q 765 333 738 268 q 793 490 793 399 q 732 704 793 628 q 561 781 671 781 q 437 747 489 781 q 357 648 385 713 q 329 490 329 583 q 390 276 329 353 q 561 199 451 199 m 633 1263 q 587 1238 613 1240 q 541 1247 561 1235 q 513 1281 521 1258 q 517 1329 504 1303 l 560 1418 q 600 1459 574 1450 q 653 1460 626 1468 q 700 1433 681 1453 q 722 1388 719 1414 q 699 1335 724 1363 l 633 1263 m 351 1060 q 311 1078 325 1061 q 307 1124 297 1096 q 365 1201 324 1174 q 464 1229 407 1229 q 533 1217 501 1229 q 593 1194 565 1206 q 644 1183 621 1183 q 676 1187 663 1183 q 699 1200 690 1190 q 729 1226 715 1215 q 765 1235 743 1236 q 807 1216 793 1233 q 811 1171 821 1199 q 753 1092 794 1119 q 653 1064 711 1064 q 584 1076 617 1064 q 524 1099 551 1088 q 472 1111 497 1111 q 442 1107 456 1111 q 419 1093 428 1103 q 389 1069 403 1079 q 351 1060 375 1058 z "},"Ṏ":{"ha":1121,"x_min":64,"x_max":1058,"o":"m 561 -15 q 300 48 413 -15 q 126 225 188 111 q 64 490 64 339 q 99 697 64 604 q 201 857 135 790 q 358 959 267 924 q 561 994 450 994 q 822 932 710 994 q 996 756 933 869 q 1058 490 1058 643 q 1023 283 1058 376 q 922 123 988 190 q 764 20 856 56 q 561 -15 672 -15 m 561 199 q 686 233 635 199 q 765 333 738 268 q 793 490 793 399 q 732 704 793 628 q 561 781 671 781 q 437 747 489 781 q 357 648 385 713 q 329 490 329 583 q 390 276 329 353 q 561 199 451 199 m 351 1060 q 311 1078 325 1061 q 307 1124 297 1096 q 365 1201 324 1174 q 464 1229 407 1229 q 533 1217 501 1229 q 593 1194 565 1206 q 644 1183 621 1183 q 676 1187 663 1183 q 699 1200 690 1190 q 729 1226 715 1215 q 765 1235 743 1236 q 807 1216 793 1233 q 811 1171 821 1199 q 753 1092 794 1119 q 653 1064 711 1064 q 584 1076 617 1064 q 524 1099 551 1088 q 472 1111 497 1111 q 442 1107 456 1111 q 419 1093 428 1103 q 389 1069 403 1079 q 351 1060 375 1058 m 415 1264 q 333 1284 363 1264 q 304 1343 304 1304 q 333 1403 304 1382 q 415 1424 363 1424 q 498 1403 469 1424 q 526 1343 526 1382 q 498 1284 526 1304 q 415 1264 469 1264 m 701 1264 q 619 1284 649 1264 q 590 1343 590 1304 q 619 1403 590 1382 q 701 1424 649 1424 q 784 1403 756 1424 q 813 1343 813 1382 q 784 1284 813 1304 q 701 1264 756 1264 z "},"Ȭ":{"ha":1121,"x_min":64,"x_max":1058,"o":"m 561 -15 q 300 48 413 -15 q 126 225 188 111 q 64 490 64 339 q 99 697 64 604 q 201 857 135 790 q 358 959 267 924 q 561 994 450 994 q 822 932 710 994 q 996 756 933 869 q 1058 490 1058 643 q 1023 283 1058 376 q 922 123 988 190 q 764 20 856 56 q 561 -15 672 -15 m 561 199 q 686 233 635 199 q 765 333 738 268 q 793 490 793 399 q 732 704 793 628 q 561 781 671 781 q 437 747 489 781 q 357 648 385 713 q 329 490 329 583 q 390 276 329 353 q 561 199 451 199 m 393 1281 q 336 1299 356 1281 q 317 1349 317 1317 q 336 1398 317 1381 q 393 1415 356 1415 l 724 1415 q 781 1398 761 1415 q 800 1349 800 1381 q 781 1299 800 1317 q 724 1281 761 1281 l 393 1281 m 351 1060 q 311 1078 325 1061 q 307 1124 297 1096 q 365 1201 324 1174 q 464 1229 407 1229 q 533 1217 501 1229 q 593 1194 565 1206 q 644 1183 621 1183 q 676 1187 663 1183 q 699 1200 690 1190 q 729 1226 715 1215 q 765 1235 743 1236 q 807 1216 793 1233 q 811 1171 821 1199 q 753 1092 794 1119 q 653 1064 711 1064 q 584 1076 617 1064 q 524 1099 551 1088 q 472 1111 497 1111 q 442 1107 456 1111 q 419 1093 428 1103 q 389 1069 403 1079 q 351 1060 375 1058 z "},"Œ":{"ha":1482,"x_min":64,"x_max":1422,"o":"m 599 0 q 204 128 344 0 q 64 490 64 257 q 99 698 64 607 q 203 851 135 789 q 372 947 272 914 q 599 979 471 979 l 1324 979 q 1397 954 1372 979 q 1422 882 1422 929 q 1397 808 1422 833 q 1324 782 1372 782 l 963 782 l 963 596 l 1292 596 q 1367 571 1342 596 q 1392 497 1392 546 q 1367 424 1392 449 q 1292 399 1342 399 l 963 399 l 963 197 l 1324 197 q 1397 172 1372 197 q 1422 99 1422 146 q 1397 25 1422 50 q 1324 0 1372 0 l 599 0 m 614 207 l 718 207 l 718 772 l 614 772 q 488 755 542 772 q 399 703 435 738 q 347 615 364 668 q 329 490 329 563 q 399 277 329 347 q 614 207 469 207 z "},"P":{"ha":939,"x_min":89,"x_max":908,"o":"m 217 -12 q 122 22 156 -12 q 89 117 89 56 l 89 850 q 123 946 89 913 q 218 979 157 979 l 560 979 q 817 894 726 979 q 908 658 908 808 q 817 423 908 508 q 560 338 726 338 l 344 338 l 344 117 q 313 22 344 56 q 217 -12 281 -12 m 344 533 l 515 533 q 626 565 588 533 q 665 658 665 596 q 626 753 665 722 q 515 783 588 783 l 344 783 l 344 533 z "},"Þ":{"ha":943,"x_min":89,"x_max":913,"o":"m 217 -1 q 122 33 156 -1 q 89 128 89 67 l 89 851 q 124 947 89 914 q 221 981 160 981 q 313 949 281 981 q 344 868 344 918 l 344 831 l 565 831 q 822 745 732 831 q 913 511 913 660 q 822 275 913 361 q 565 189 732 189 l 344 189 l 344 128 q 313 33 344 67 q 217 -1 281 -1 m 344 386 l 519 386 q 631 417 593 386 q 669 511 669 449 q 631 604 669 574 q 519 635 593 635 l 344 635 l 344 386 z "},"Q":{"ha":1121,"x_min":64,"x_max":1058,"o":"m 981 -124 q 999 -199 1006 -165 q 965 -257 992 -233 q 901 -287 938 -281 q 828 -281 864 -294 q 768 -228 792 -267 l 665 -62 q 625 -26 650 -37 q 560 -15 600 -15 l 750 56 q 856 33 813 56 q 929 -42 899 10 l 981 -124 m 561 -15 q 300 48 413 -15 q 126 225 188 111 q 64 490 64 339 q 99 697 64 604 q 201 857 135 790 q 358 959 267 924 q 561 994 450 994 q 822 932 710 994 q 996 756 933 869 q 1058 490 1058 643 q 1023 283 1058 376 q 922 123 988 190 q 764 20 856 56 q 561 -15 672 -15 m 561 199 q 686 233 635 199 q 765 333 738 268 q 793 490 793 399 q 732 704 793 628 q 561 781 671 781 q 437 747 489 781 q 357 648 385 713 q 329 490 329 583 q 390 276 329 353 q 561 199 451 199 z "},"R":{"ha":981,"x_min":89,"x_max":911,"o":"m 217 -12 q 122 22 156 -12 q 89 117 89 56 l 89 850 q 123 946 89 913 q 218 979 157 979 l 560 979 q 817 898 726 979 q 908 672 908 817 q 867 510 908 579 q 749 405 826 442 q 560 368 672 368 l 571 393 l 638 393 q 743 365 697 393 q 819 278 789 336 l 889 153 q 910 74 911 113 q 880 12 908 36 q 797 -12 851 -12 q 709 10 743 -12 q 649 79 675 32 l 522 311 q 480 353 506 342 q 421 365 454 365 l 344 365 l 344 117 q 313 22 344 56 q 217 -12 281 -12 m 344 546 l 514 546 q 626 575 588 546 q 665 665 665 604 q 626 753 665 724 q 514 783 588 783 l 344 783 l 344 546 z "},"Ŕ":{"ha":981,"x_min":89,"x_max":911,"o":"m 217 -12 q 122 22 156 -12 q 89 117 89 56 l 89 850 q 123 946 89 913 q 218 979 157 979 l 560 979 q 817 898 726 979 q 908 672 908 817 q 867 510 908 579 q 749 405 826 442 q 560 368 672 368 l 571 393 l 638 393 q 743 365 697 393 q 819 278 789 336 l 889 153 q 910 74 911 113 q 880 12 908 36 q 797 -12 851 -12 q 709 10 743 -12 q 649 79 675 32 l 522 311 q 480 353 506 342 q 421 365 454 365 l 344 365 l 344 117 q 313 22 344 56 q 217 -12 281 -12 m 344 546 l 514 546 q 626 575 588 546 q 665 665 665 604 q 626 753 665 724 q 514 783 588 783 l 344 783 l 344 546 m 592 1074 q 541 1050 568 1050 q 492 1066 514 1050 q 464 1106 471 1082 q 475 1157 457 1131 l 565 1292 q 613 1326 585 1321 q 667 1322 640 1332 q 711 1290 693 1311 q 731 1242 729 1268 q 707 1190 732 1215 l 592 1074 z "},"Ř":{"ha":981,"x_min":89,"x_max":911,"o":"m 217 -12 q 122 22 156 -12 q 89 117 89 56 l 89 850 q 123 946 89 913 q 218 979 157 979 l 560 979 q 817 898 726 979 q 908 672 908 817 q 867 510 908 579 q 749 405 826 442 q 560 368 672 368 l 571 393 l 638 393 q 743 365 697 393 q 819 278 789 336 l 889 153 q 910 74 911 113 q 880 12 908 36 q 797 -12 851 -12 q 709 10 743 -12 q 649 79 675 32 l 522 311 q 480 353 506 342 q 421 365 454 365 l 344 365 l 344 117 q 313 22 344 56 q 217 -12 281 -12 m 344 546 l 514 546 q 626 575 588 546 q 665 665 665 604 q 626 753 665 724 q 514 783 588 783 l 344 783 l 344 546 m 496 1040 q 419 1059 453 1040 q 357 1115 385 1078 l 282 1219 q 270 1269 264 1246 q 299 1307 276 1293 q 349 1319 321 1321 q 399 1293 376 1318 l 496 1186 l 593 1293 q 644 1319 617 1318 q 694 1307 672 1321 q 722 1269 715 1293 q 710 1219 728 1246 l 635 1115 q 574 1059 608 1078 q 496 1040 539 1040 z "},"Ŗ":{"ha":981,"x_min":89,"x_max":911,"o":"m 217 -12 q 122 22 156 -12 q 89 117 89 56 l 89 850 q 123 946 89 913 q 218 979 157 979 l 560 979 q 817 898 726 979 q 908 672 908 817 q 867 510 908 579 q 749 405 826 442 q 560 368 672 368 l 571 393 l 638 393 q 743 365 697 393 q 819 278 789 336 l 889 153 q 910 74 911 113 q 880 12 908 36 q 797 -12 851 -12 q 709 10 743 -12 q 649 79 675 32 l 522 311 q 480 353 506 342 q 421 365 454 365 l 344 365 l 344 117 q 313 22 344 56 q 217 -12 281 -12 m 344 546 l 514 546 q 626 575 588 546 q 665 665 665 604 q 626 753 665 724 q 514 783 588 783 l 344 783 l 344 546 m 554 -376 q 515 -399 538 -396 q 476 -392 493 -403 q 456 -362 460 -382 q 469 -317 451 -342 q 488 -276 481 -299 q 494 -237 494 -254 l 499 -278 q 406 -252 438 -278 q 375 -178 375 -226 q 406 -103 375 -129 q 496 -78 436 -78 q 586 -106 556 -78 q 617 -193 617 -135 q 610 -258 617 -225 q 590 -321 604 -290 q 554 -376 576 -351 z "},"Ȑ":{"ha":981,"x_min":89,"x_max":911,"o":"m 217 -12 q 122 22 156 -12 q 89 117 89 56 l 89 850 q 123 946 89 913 q 218 979 157 979 l 560 979 q 817 898 726 979 q 908 672 908 817 q 867 510 908 579 q 749 405 826 442 q 560 368 672 368 l 571 393 l 638 393 q 743 365 697 393 q 819 278 789 336 l 889 153 q 910 74 911 113 q 880 12 908 36 q 797 -12 851 -12 q 709 10 743 -12 q 649 79 675 32 l 522 311 q 480 353 506 342 q 421 365 454 365 l 344 365 l 344 117 q 313 22 344 56 q 217 -12 281 -12 m 344 546 l 514 546 q 626 575 588 546 q 665 665 665 604 q 626 753 665 724 q 514 783 588 783 l 344 783 l 344 546 m 533 1079 l 438 1203 q 419 1257 415 1232 q 440 1301 422 1282 q 485 1326 458 1319 q 537 1323 511 1332 q 575 1285 563 1314 l 647 1138 q 651 1090 660 1111 q 622 1058 643 1069 q 577 1051 601 1047 q 533 1079 553 1054 m 301 1072 l 189 1204 q 166 1257 165 1232 q 184 1300 167 1282 q 226 1325 201 1318 q 276 1324 250 1332 q 318 1288 301 1315 l 399 1143 q 408 1096 414 1118 q 383 1060 401 1074 q 342 1049 365 1047 q 301 1072 319 1050 z "},"Ṛ":{"ha":981,"x_min":89,"x_max":911,"o":"m 217 -12 q 122 22 156 -12 q 89 117 89 56 l 89 850 q 123 946 89 913 q 218 979 157 979 l 560 979 q 817 898 726 979 q 908 672 908 817 q 867 510 908 579 q 749 405 826 442 q 560 368 672 368 l 571 393 l 638 393 q 743 365 697 393 q 819 278 789 336 l 889 153 q 910 74 911 113 q 880 12 908 36 q 797 -12 851 -12 q 709 10 743 -12 q 649 79 675 32 l 522 311 q 480 353 506 342 q 421 365 454 365 l 344 365 l 344 117 q 313 22 344 56 q 217 -12 281 -12 m 344 546 l 514 546 q 626 575 588 546 q 665 665 665 604 q 626 753 665 724 q 514 783 588 783 l 344 783 l 344 546 m 497 -319 q 410 -290 440 -319 q 379 -207 379 -260 q 410 -124 379 -153 q 497 -96 440 -96 q 585 -124 556 -96 q 615 -207 615 -153 q 585 -290 615 -261 q 497 -319 556 -319 z "},"Ȓ":{"ha":981,"x_min":89,"x_max":911,"o":"m 217 -12 q 122 22 156 -12 q 89 117 89 56 l 89 850 q 123 946 89 913 q 218 979 157 979 l 560 979 q 817 898 726 979 q 908 672 908 817 q 867 510 908 579 q 749 405 826 442 q 560 368 672 368 l 571 393 l 638 393 q 743 365 697 393 q 819 278 789 336 l 889 153 q 910 74 911 113 q 880 12 908 36 q 797 -12 851 -12 q 709 10 743 -12 q 649 79 675 32 l 522 311 q 480 353 506 342 q 421 365 454 365 l 344 365 l 344 117 q 313 22 344 56 q 217 -12 281 -12 m 344 546 l 514 546 q 626 575 588 546 q 665 665 665 604 q 626 753 665 724 q 514 783 588 783 l 344 783 l 344 546 m 283 1057 q 237 1084 251 1060 q 233 1144 222 1108 q 328 1267 257 1222 q 494 1311 400 1311 q 662 1267 590 1311 q 757 1144 733 1222 q 754 1085 769 1110 q 707 1057 739 1060 q 663 1062 679 1053 q 636 1085 646 1071 q 618 1111 626 1100 q 569 1159 601 1144 q 494 1174 536 1174 q 423 1159 456 1174 q 372 1111 390 1144 q 354 1085 364 1100 q 328 1063 344 1071 q 283 1057 311 1054 z "},"Ṟ":{"ha":981,"x_min":89,"x_max":911,"o":"m 217 -12 q 122 22 156 -12 q 89 117 89 56 l 89 850 q 123 946 89 913 q 218 979 157 979 l 560 979 q 817 898 726 979 q 908 672 908 817 q 867 510 908 579 q 749 405 826 442 q 560 368 672 368 l 571 393 l 638 393 q 743 365 697 393 q 819 278 789 336 l 889 153 q 910 74 911 113 q 880 12 908 36 q 797 -12 851 -12 q 709 10 743 -12 q 649 79 675 32 l 522 311 q 480 353 506 342 q 421 365 454 365 l 344 365 l 344 117 q 313 22 344 56 q 217 -12 281 -12 m 344 546 l 514 546 q 626 575 588 546 q 665 665 665 604 q 626 753 665 724 q 514 783 588 783 l 344 783 l 344 546 m 322 -243 q 251 -176 251 -243 q 269 -126 251 -144 q 322 -108 288 -108 l 674 -108 q 743 -176 743 -108 q 725 -225 743 -207 q 674 -243 707 -243 l 322 -243 z "},"S":{"ha":904,"x_min":57,"x_max":868,"o":"m 453 -15 q 337 -8 397 -15 q 222 15 276 0 q 125 51 168 31 q 72 99 88 69 q 61 163 57 129 q 85 222 65 196 q 136 256 104 247 q 208 247 168 265 q 328 208 261 222 q 453 194 394 194 q 581 219 544 194 q 618 279 618 243 q 592 331 618 311 q 501 364 567 350 l 339 399 q 140 496 206 426 q 75 675 75 565 q 105 806 75 747 q 190 907 135 865 q 320 972 244 949 q 489 994 396 994 q 635 978 561 994 q 764 931 710 963 q 810 885 796 914 q 821 824 824 856 q 799 769 818 793 q 749 738 781 746 q 675 749 718 731 q 584 776 635 767 q 486 785 533 785 q 399 773 435 785 q 344 739 363 761 q 325 688 325 717 q 349 638 325 658 q 439 604 374 618 l 600 569 q 801 474 735 540 q 868 300 868 407 q 839 169 868 228 q 756 70 810 111 q 625 7 701 29 q 453 -15 549 -15 z "},"Ś":{"ha":904,"x_min":57,"x_max":868,"o":"m 453 -15 q 337 -8 397 -15 q 222 15 276 0 q 125 51 168 31 q 72 99 88 69 q 61 163 57 129 q 85 222 65 196 q 136 256 104 247 q 208 247 168 265 q 328 208 261 222 q 453 194 394 194 q 581 219 544 194 q 618 279 618 243 q 592 331 618 311 q 501 364 567 350 l 339 399 q 140 496 206 426 q 75 675 75 565 q 105 806 75 747 q 190 907 135 865 q 320 972 244 949 q 489 994 396 994 q 635 978 561 994 q 764 931 710 963 q 810 885 796 914 q 821 824 824 856 q 799 769 818 793 q 749 738 781 746 q 675 749 718 731 q 584 776 635 767 q 486 785 533 785 q 399 773 435 785 q 344 739 363 761 q 325 688 325 717 q 349 638 325 658 q 439 604 374 618 l 600 569 q 801 474 735 540 q 868 300 868 407 q 839 169 868 228 q 756 70 810 111 q 625 7 701 29 q 453 -15 549 -15 m 565 1074 q 515 1050 542 1050 q 466 1066 488 1050 q 438 1106 444 1082 q 449 1157 431 1131 l 539 1292 q 586 1326 558 1321 q 640 1322 614 1332 q 685 1290 667 1311 q 704 1242 703 1268 q 681 1190 706 1215 l 565 1074 z "},"Ṥ":{"ha":904,"x_min":57,"x_max":868,"o":"m 453 -15 q 337 -8 397 -15 q 222 15 276 0 q 125 51 168 31 q 72 99 88 69 q 61 163 57 129 q 85 222 65 196 q 136 256 104 247 q 208 247 168 265 q 328 208 261 222 q 453 194 394 194 q 581 219 544 194 q 618 279 618 243 q 592 331 618 311 q 501 364 567 350 l 339 399 q 140 496 206 426 q 75 675 75 565 q 105 806 75 747 q 190 907 135 865 q 320 972 244 949 q 489 994 396 994 q 635 978 561 994 q 764 931 710 963 q 810 885 796 914 q 821 824 824 856 q 799 769 818 793 q 749 738 781 746 q 675 749 718 731 q 584 776 635 767 q 486 785 533 785 q 399 773 435 785 q 344 739 363 761 q 325 688 325 717 q 349 638 325 658 q 439 604 374 618 l 600 569 q 801 474 735 540 q 868 300 868 407 q 839 169 868 228 q 756 70 810 111 q 625 7 701 29 q 453 -15 549 -15 m 368 1276 q 285 1298 314 1276 q 256 1358 256 1319 q 285 1418 256 1397 q 368 1439 314 1439 q 449 1418 421 1439 q 478 1358 478 1397 q 450 1298 478 1319 q 368 1276 422 1276 m 565 1074 q 515 1050 542 1050 q 466 1065 488 1050 q 438 1105 444 1081 q 447 1154 431 1129 l 553 1311 q 603 1351 574 1344 q 660 1348 632 1358 q 706 1315 688 1338 q 726 1265 725 1292 q 703 1213 728 1238 l 565 1074 z "},"Š":{"ha":904,"x_min":57,"x_max":868,"o":"m 453 -15 q 337 -8 397 -15 q 222 15 276 0 q 125 51 168 31 q 72 99 88 69 q 61 163 57 129 q 85 222 65 196 q 136 256 104 247 q 208 247 168 265 q 328 208 261 222 q 453 194 394 194 q 581 219 544 194 q 618 279 618 243 q 592 331 618 311 q 501 364 567 350 l 339 399 q 140 496 206 426 q 75 675 75 565 q 105 806 75 747 q 190 907 135 865 q 320 972 244 949 q 489 994 396 994 q 635 978 561 994 q 764 931 710 963 q 810 885 796 914 q 821 824 824 856 q 799 769 818 793 q 749 738 781 746 q 675 749 718 731 q 584 776 635 767 q 486 785 533 785 q 399 773 435 785 q 344 739 363 761 q 325 688 325 717 q 349 638 325 658 q 439 604 374 618 l 600 569 q 801 474 735 540 q 868 300 868 407 q 839 169 868 228 q 756 70 810 111 q 625 7 701 29 q 453 -15 549 -15 m 469 1040 q 392 1059 426 1040 q 331 1115 358 1078 l 256 1219 q 244 1269 238 1246 q 272 1307 250 1293 q 322 1319 294 1321 q 372 1293 350 1318 l 469 1186 l 567 1293 q 618 1319 590 1318 q 667 1307 646 1321 q 695 1269 689 1293 q 683 1219 701 1246 l 608 1115 q 547 1059 582 1078 q 469 1040 513 1040 z "},"Ṧ":{"ha":904,"x_min":57,"x_max":868,"o":"m 453 -15 q 337 -8 397 -15 q 222 15 276 0 q 125 51 168 31 q 72 99 88 69 q 61 163 57 129 q 85 222 65 196 q 136 256 104 247 q 208 247 168 265 q 328 208 261 222 q 453 194 394 194 q 581 219 544 194 q 618 279 618 243 q 592 331 618 311 q 501 364 567 350 l 339 399 q 140 496 206 426 q 75 675 75 565 q 105 806 75 747 q 190 907 135 865 q 320 972 244 949 q 489 994 396 994 q 635 978 561 994 q 764 931 710 963 q 810 885 796 914 q 821 824 824 856 q 799 769 818 793 q 749 738 781 746 q 675 749 718 731 q 584 776 635 767 q 486 785 533 785 q 399 773 435 785 q 344 739 363 761 q 325 688 325 717 q 349 638 325 658 q 439 604 374 618 l 600 569 q 801 474 735 540 q 868 300 868 407 q 839 169 868 228 q 756 70 810 111 q 625 7 701 29 q 453 -15 549 -15 m 469 1044 q 392 1060 425 1044 q 331 1114 358 1075 l 257 1218 q 247 1259 243 1239 q 267 1294 251 1279 q 306 1310 283 1308 q 350 1292 328 1311 l 469 1185 l 590 1292 q 633 1310 611 1311 q 672 1294 656 1308 q 692 1259 688 1279 q 682 1218 696 1239 l 608 1114 q 548 1060 581 1075 q 469 1044 515 1044 m 471 1318 q 388 1340 418 1318 q 358 1400 358 1361 q 388 1459 358 1439 q 471 1479 418 1479 q 553 1459 525 1479 q 582 1400 582 1439 q 553 1340 582 1361 q 471 1318 525 1318 z "},"Ş":{"ha":904,"x_min":57,"x_max":868,"o":"m 453 -15 q 337 -8 397 -15 q 222 15 276 0 q 125 51 168 31 q 72 99 88 69 q 61 163 57 129 q 85 222 65 196 q 136 256 104 247 q 208 247 168 265 q 328 208 261 222 q 453 194 394 194 q 581 219 544 194 q 618 279 618 243 q 592 331 618 311 q 501 364 567 350 l 339 399 q 140 496 206 426 q 75 675 75 565 q 105 806 75 747 q 190 907 135 865 q 320 972 244 949 q 489 994 396 994 q 635 978 561 994 q 764 931 710 963 q 810 885 796 914 q 821 824 824 856 q 799 769 818 793 q 749 738 781 746 q 675 749 718 731 q 584 776 635 767 q 486 785 533 785 q 399 773 435 785 q 344 739 363 761 q 325 688 325 717 q 349 638 325 658 q 439 604 374 618 l 600 569 q 801 474 735 540 q 868 300 868 407 q 839 169 868 228 q 756 70 810 111 q 625 7 701 29 q 453 -15 549 -15 m 457 -275 q 399 -272 429 -275 q 342 -261 368 -268 q 303 -234 314 -253 q 297 -194 293 -215 q 319 -162 301 -174 q 364 -160 338 -151 q 399 -167 383 -165 q 431 -169 415 -169 q 483 -162 467 -169 q 499 -140 499 -156 q 488 -122 499 -128 q 449 -115 476 -115 q 431 -116 440 -115 q 413 -119 422 -117 q 397 -119 404 -121 q 382 -111 389 -118 q 374 -95 376 -104 q 374 -72 372 -86 l 388 28 l 506 28 l 489 -79 l 432 -56 q 465 -46 447 -49 q 496 -43 482 -43 q 597 -71 561 -43 q 633 -149 633 -99 q 584 -241 633 -207 q 457 -275 535 -275 z "},"Ŝ":{"ha":904,"x_min":57,"x_max":868,"o":"m 453 -15 q 337 -8 397 -15 q 222 15 276 0 q 125 51 168 31 q 72 99 88 69 q 61 163 57 129 q 85 222 65 196 q 136 256 104 247 q 208 247 168 265 q 328 208 261 222 q 453 194 394 194 q 581 219 544 194 q 618 279 618 243 q 592 331 618 311 q 501 364 567 350 l 339 399 q 140 496 206 426 q 75 675 75 565 q 105 806 75 747 q 190 907 135 865 q 320 972 244 949 q 489 994 396 994 q 635 978 561 994 q 764 931 710 963 q 810 885 796 914 q 821 824 824 856 q 799 769 818 793 q 749 738 781 746 q 675 749 718 731 q 584 776 635 767 q 486 785 533 785 q 399 773 435 785 q 344 739 363 761 q 325 688 325 717 q 349 638 325 658 q 439 604 374 618 l 600 569 q 801 474 735 540 q 868 300 868 407 q 839 169 868 228 q 756 70 810 111 q 625 7 701 29 q 453 -15 549 -15 m 372 1075 q 322 1050 350 1051 q 272 1063 294 1049 q 244 1100 250 1076 q 256 1149 238 1124 l 331 1254 q 392 1311 358 1293 q 469 1329 426 1329 q 547 1311 513 1329 q 608 1254 582 1293 l 683 1149 q 696 1100 703 1124 q 667 1063 689 1076 q 618 1050 646 1049 q 567 1075 590 1051 l 469 1182 l 372 1075 z "},"Ș":{"ha":904,"x_min":57,"x_max":868,"o":"m 453 -15 q 337 -8 397 -15 q 222 15 276 0 q 125 51 168 31 q 72 99 88 69 q 61 163 57 129 q 85 222 65 196 q 136 256 104 247 q 208 247 168 265 q 328 208 261 222 q 453 194 394 194 q 581 219 544 194 q 618 279 618 243 q 592 331 618 311 q 501 364 567 350 l 339 399 q 140 496 206 426 q 75 675 75 565 q 105 806 75 747 q 190 907 135 865 q 320 972 244 949 q 489 994 396 994 q 635 978 561 994 q 764 931 710 963 q 810 885 796 914 q 821 824 824 856 q 799 769 818 793 q 749 738 781 746 q 675 749 718 731 q 584 776 635 767 q 486 785 533 785 q 399 773 435 785 q 344 739 363 761 q 325 688 325 717 q 349 638 325 658 q 439 604 374 618 l 600 569 q 801 474 735 540 q 868 300 868 407 q 839 169 868 228 q 756 70 810 111 q 625 7 701 29 q 453 -15 549 -15 m 517 -376 q 478 -399 500 -396 q 439 -392 456 -403 q 418 -362 422 -382 q 432 -317 414 -342 q 450 -276 443 -299 q 457 -237 457 -254 l 461 -278 q 369 -252 400 -278 q 338 -178 338 -226 q 368 -103 338 -129 q 458 -78 399 -78 q 549 -106 518 -78 q 579 -193 579 -135 q 573 -258 579 -225 q 553 -321 567 -290 q 517 -376 539 -351 z "},"Ṡ":{"ha":904,"x_min":57,"x_max":868,"o":"m 453 -15 q 337 -8 397 -15 q 222 15 276 0 q 125 51 168 31 q 72 99 88 69 q 61 163 57 129 q 85 222 65 196 q 136 256 104 247 q 208 247 168 265 q 328 208 261 222 q 453 194 394 194 q 581 219 544 194 q 618 279 618 243 q 592 331 618 311 q 501 364 567 350 l 339 399 q 140 496 206 426 q 75 675 75 565 q 105 806 75 747 q 190 907 135 865 q 320 972 244 949 q 489 994 396 994 q 635 978 561 994 q 764 931 710 963 q 810 885 796 914 q 821 824 824 856 q 799 769 818 793 q 749 738 781 746 q 675 749 718 731 q 584 776 635 767 q 486 785 533 785 q 399 773 435 785 q 344 739 363 761 q 325 688 325 717 q 349 638 325 658 q 439 604 374 618 l 600 569 q 801 474 735 540 q 868 300 868 407 q 839 169 868 228 q 756 70 810 111 q 625 7 701 29 q 453 -15 549 -15 m 469 1072 q 382 1102 413 1072 q 351 1185 351 1132 q 382 1267 351 1239 q 469 1296 413 1296 q 558 1267 528 1296 q 588 1185 588 1239 q 558 1101 588 1131 q 469 1072 528 1072 z "},"Ṣ":{"ha":904,"x_min":57,"x_max":868,"o":"m 453 -15 q 337 -8 397 -15 q 222 15 276 0 q 125 51 168 31 q 72 99 88 69 q 61 163 57 129 q 85 222 65 196 q 136 256 104 247 q 208 247 168 265 q 328 208 261 222 q 453 194 394 194 q 581 219 544 194 q 618 279 618 243 q 592 331 618 311 q 501 364 567 350 l 339 399 q 140 496 206 426 q 75 675 75 565 q 105 806 75 747 q 190 907 135 865 q 320 972 244 949 q 489 994 396 994 q 635 978 561 994 q 764 931 710 963 q 810 885 796 914 q 821 824 824 856 q 799 769 818 793 q 749 738 781 746 q 675 749 718 731 q 584 776 635 767 q 486 785 533 785 q 399 773 435 785 q 344 739 363 761 q 325 688 325 717 q 349 638 325 658 q 439 604 374 618 l 600 569 q 801 474 735 540 q 868 300 868 407 q 839 169 868 228 q 756 70 810 111 q 625 7 701 29 q 453 -15 549 -15 m 460 -319 q 372 -290 403 -319 q 342 -207 342 -260 q 372 -124 342 -153 q 460 -96 403 -96 q 548 -124 518 -96 q 578 -207 578 -153 q 548 -290 578 -261 q 460 -319 518 -319 z "},"Ṩ":{"ha":904,"x_min":57,"x_max":868,"o":"m 453 -15 q 337 -8 397 -15 q 222 15 276 0 q 125 51 168 31 q 72 99 88 69 q 61 163 57 129 q 85 222 65 196 q 136 256 104 247 q 208 247 168 265 q 328 208 261 222 q 453 194 394 194 q 581 219 544 194 q 618 279 618 243 q 592 331 618 311 q 501 364 567 350 l 339 399 q 140 496 206 426 q 75 675 75 565 q 105 806 75 747 q 190 907 135 865 q 320 972 244 949 q 489 994 396 994 q 635 978 561 994 q 764 931 710 963 q 810 885 796 914 q 821 824 824 856 q 799 769 818 793 q 749 738 781 746 q 675 749 718 731 q 584 776 635 767 q 486 785 533 785 q 399 773 435 785 q 344 739 363 761 q 325 688 325 717 q 349 638 325 658 q 439 604 374 618 l 600 569 q 801 474 735 540 q 868 300 868 407 q 839 169 868 228 q 756 70 810 111 q 625 7 701 29 q 453 -15 549 -15 m 460 -319 q 372 -290 403 -319 q 342 -207 342 -260 q 372 -124 342 -153 q 460 -96 403 -96 q 548 -124 518 -96 q 578 -207 578 -153 q 548 -290 578 -261 q 460 -319 518 -319 m 469 1072 q 382 1102 413 1072 q 351 1185 351 1132 q 382 1267 351 1239 q 469 1296 413 1296 q 558 1267 528 1296 q 588 1185 588 1239 q 558 1101 588 1131 q 469 1072 528 1072 z "},"ẞ":{"ha":1044,"x_min":89,"x_max":988,"o":"m 661 -15 q 555 -6 604 -15 q 469 21 506 4 q 418 64 433 36 q 405 122 403 92 q 422 178 407 153 q 461 213 436 203 q 518 210 486 222 q 576 189 547 194 q 632 183 604 183 q 716 212 686 183 q 746 288 746 240 q 708 367 746 342 q 593 393 671 393 l 544 393 q 476 417 504 393 q 449 490 449 442 q 473 563 449 539 q 532 586 497 586 l 572 586 q 662 613 629 586 q 694 689 694 639 q 656 767 694 740 q 540 793 618 793 q 393 747 442 793 q 344 607 344 701 l 344 117 q 312 22 344 56 q 217 -12 279 -12 q 122 22 156 -12 q 89 117 89 56 l 89 607 q 143 820 89 735 q 301 950 197 906 q 557 994 406 994 q 759 961 674 994 q 891 868 844 928 q 938 725 938 808 q 893 582 938 643 q 767 492 849 521 l 767 519 q 883 479 833 513 q 960 392 933 446 q 988 269 988 338 q 949 117 988 181 q 837 19 910 53 q 661 -15 764 -15 z "},"T":{"ha":894,"x_min":-4,"x_max":899,"o":"m 447 -12 q 353 22 386 -12 q 319 117 319 56 l 319 771 l 101 771 q 23 798 50 771 q -4 875 -4 825 q 23 953 -4 926 q 101 979 50 979 l 793 979 q 872 953 844 979 q 899 875 899 926 q 872 798 899 825 q 793 771 844 771 l 575 771 l 575 117 q 543 22 575 56 q 447 -12 511 -12 z "},"Ŧ":{"ha":894,"x_min":-4,"x_max":899,"o":"m 447 -12 q 353 22 386 -12 q 319 117 319 56 l 319 771 l 101 771 q 23 798 50 771 q -4 875 -4 825 q 23 953 -4 926 q 101 979 50 979 l 793 979 q 872 953 844 979 q 899 875 899 926 q 872 798 899 825 q 793 771 844 771 l 575 771 l 575 117 q 543 22 575 56 q 447 -12 511 -12 m 214 404 q 145 428 169 404 q 121 494 121 451 q 145 561 121 538 q 214 585 169 585 l 676 585 q 747 561 722 585 q 771 494 771 538 q 747 428 771 451 q 676 404 722 404 l 214 404 z "},"Ť":{"ha":894,"x_min":-4,"x_max":899,"o":"m 447 -12 q 353 22 386 -12 q 319 117 319 56 l 319 771 l 101 771 q 23 798 50 771 q -4 875 -4 825 q 23 953 -4 926 q 101 979 50 979 l 793 979 q 872 953 844 979 q 899 875 899 926 q 872 798 899 825 q 793 771 844 771 l 575 771 l 575 117 q 543 22 575 56 q 447 -12 511 -12 m 447 1040 q 370 1059 404 1040 q 308 1115 336 1078 l 233 1219 q 222 1269 215 1246 q 250 1307 228 1293 q 300 1319 272 1321 q 350 1293 328 1318 l 447 1186 l 544 1293 q 596 1319 568 1318 q 645 1307 624 1321 q 673 1269 667 1293 q 661 1219 679 1246 l 586 1115 q 525 1059 560 1078 q 447 1040 490 1040 z "},"Ţ":{"ha":894,"x_min":-4,"x_max":899,"o":"m 447 -12 q 353 22 386 -12 q 319 117 319 56 l 319 771 l 101 771 q 23 798 50 771 q -4 875 -4 825 q 23 953 -4 926 q 101 979 50 979 l 793 979 q 872 953 844 979 q 899 875 899 926 q 872 798 899 825 q 793 771 844 771 l 575 771 l 575 117 q 543 22 575 56 q 447 -12 511 -12 m 444 -275 q 386 -272 417 -275 q 329 -261 356 -268 q 291 -234 301 -253 q 285 -194 281 -215 q 307 -162 289 -174 q 351 -160 325 -151 q 387 -167 371 -165 q 418 -169 403 -169 q 470 -162 454 -169 q 486 -140 486 -156 q 475 -122 486 -128 q 436 -115 464 -115 q 419 -116 428 -115 q 400 -119 410 -117 q 384 -119 392 -121 q 369 -111 376 -118 q 362 -95 364 -104 q 361 -72 360 -86 l 375 28 l 493 28 l 476 -79 l 419 -56 q 452 -46 435 -49 q 483 -43 469 -43 q 585 -71 549 -43 q 621 -149 621 -99 q 572 -241 621 -207 q 444 -275 522 -275 z "},"Ț":{"ha":894,"x_min":-4,"x_max":899,"o":"m 447 -12 q 353 22 386 -12 q 319 117 319 56 l 319 771 l 101 771 q 23 798 50 771 q -4 875 -4 825 q 23 953 -4 926 q 101 979 50 979 l 793 979 q 872 953 844 979 q 899 875 899 926 q 872 798 899 825 q 793 771 844 771 l 575 771 l 575 117 q 543 22 575 56 q 447 -12 511 -12 m 504 -376 q 465 -399 488 -396 q 426 -392 443 -403 q 406 -362 410 -382 q 419 -317 401 -342 q 438 -276 431 -299 q 444 -237 444 -254 l 449 -278 q 356 -252 388 -278 q 325 -178 325 -226 q 356 -103 325 -129 q 446 -78 386 -78 q 536 -106 506 -78 q 567 -193 567 -135 q 560 -258 567 -225 q 540 -321 554 -290 q 504 -376 526 -351 z "},"Ṭ":{"ha":894,"x_min":-4,"x_max":899,"o":"m 447 -12 q 353 22 386 -12 q 319 117 319 56 l 319 771 l 101 771 q 23 798 50 771 q -4 875 -4 825 q 23 953 -4 926 q 101 979 50 979 l 793 979 q 872 953 844 979 q 899 875 899 926 q 872 798 899 825 q 793 771 844 771 l 575 771 l 575 117 q 543 22 575 56 q 447 -12 511 -12 m 447 -319 q 360 -290 390 -319 q 329 -207 329 -260 q 360 -124 329 -153 q 447 -96 390 -96 q 535 -124 506 -96 q 565 -207 565 -153 q 535 -290 565 -261 q 447 -319 506 -319 z "},"Ṯ":{"ha":894,"x_min":-4,"x_max":899,"o":"m 447 -12 q 353 22 386 -12 q 319 117 319 56 l 319 771 l 101 771 q 23 798 50 771 q -4 875 -4 825 q 23 953 -4 926 q 101 979 50 979 l 793 979 q 872 953 844 979 q 899 875 899 926 q 872 798 899 825 q 793 771 844 771 l 575 771 l 575 117 q 543 22 575 56 q 447 -12 511 -12 m 272 -243 q 201 -176 201 -243 q 219 -126 201 -144 q 272 -108 238 -108 l 624 -108 q 693 -176 693 -108 q 675 -225 693 -207 q 624 -243 657 -243 l 272 -243 z "},"U":{"ha":1039,"x_min":82,"x_max":957,"o":"m 522 -15 q 333 12 415 -15 q 195 93 251 39 q 110 228 139 147 q 82 417 82 310 l 82 863 q 115 959 82 926 q 210 992 149 992 q 305 959 272 992 q 338 863 338 926 l 338 414 q 385 253 338 307 q 522 199 432 199 q 658 253 611 199 q 706 414 706 307 l 706 863 q 738 959 706 926 q 832 992 771 992 q 925 959 893 992 q 957 863 957 926 l 957 417 q 908 177 957 274 q 761 33 858 81 q 522 -15 664 -15 z "},"Ú":{"ha":1039,"x_min":82,"x_max":957,"o":"m 522 -15 q 333 12 415 -15 q 195 93 251 39 q 110 228 139 147 q 82 417 82 310 l 82 863 q 115 959 82 926 q 210 992 149 992 q 305 959 272 992 q 338 863 338 926 l 338 414 q 385 253 338 307 q 522 199 432 199 q 658 253 611 199 q 706 414 706 307 l 706 863 q 738 959 706 926 q 832 992 771 992 q 925 959 893 992 q 957 863 957 926 l 957 417 q 908 177 957 274 q 761 33 858 81 q 522 -15 664 -15 m 618 1074 q 567 1050 594 1050 q 519 1066 540 1050 q 490 1106 497 1082 q 501 1157 483 1131 l 592 1292 q 639 1326 611 1321 q 693 1322 667 1332 q 738 1290 719 1311 q 757 1242 756 1268 q 733 1190 758 1215 l 618 1074 z "},"Ŭ":{"ha":1039,"x_min":82,"x_max":957,"o":"m 522 -15 q 333 12 415 -15 q 195 93 251 39 q 110 228 139 147 q 82 417 82 310 l 82 863 q 115 959 82 926 q 210 992 149 992 q 305 959 272 992 q 338 863 338 926 l 338 414 q 385 253 338 307 q 522 199 432 199 q 658 253 611 199 q 706 414 706 307 l 706 863 q 738 959 706 926 q 832 992 771 992 q 925 959 893 992 q 957 863 957 926 l 957 417 q 908 177 957 274 q 761 33 858 81 q 522 -15 664 -15 m 522 1056 q 355 1101 425 1056 q 261 1222 285 1147 q 263 1284 246 1260 q 311 1311 281 1308 q 355 1305 339 1314 q 381 1282 371 1296 q 400 1257 392 1268 q 449 1208 417 1224 q 522 1193 481 1193 q 596 1208 564 1193 q 644 1257 628 1224 q 664 1282 654 1268 q 690 1305 674 1296 q 733 1311 706 1314 q 780 1285 764 1308 q 783 1222 796 1261 q 690 1101 761 1147 q 522 1056 619 1056 z "},"Û":{"ha":1039,"x_min":82,"x_max":957,"o":"m 522 -15 q 333 12 415 -15 q 195 93 251 39 q 110 228 139 147 q 82 417 82 310 l 82 863 q 115 959 82 926 q 210 992 149 992 q 305 959 272 992 q 338 863 338 926 l 338 414 q 385 253 338 307 q 522 199 432 199 q 658 253 611 199 q 706 414 706 307 l 706 863 q 738 959 706 926 q 832 992 771 992 q 925 959 893 992 q 957 863 957 926 l 957 417 q 908 177 957 274 q 761 33 858 81 q 522 -15 664 -15 m 425 1075 q 375 1050 403 1051 q 325 1063 347 1049 q 297 1100 303 1076 q 308 1149 290 1124 l 383 1254 q 445 1311 411 1293 q 522 1329 479 1329 q 600 1311 565 1329 q 661 1254 635 1293 l 736 1149 q 749 1100 756 1124 q 720 1063 742 1076 q 671 1050 699 1049 q 619 1075 643 1051 l 522 1182 l 425 1075 z "},"Ȕ":{"ha":1039,"x_min":82,"x_max":957,"o":"m 522 -15 q 333 12 415 -15 q 195 93 251 39 q 110 228 139 147 q 82 417 82 310 l 82 863 q 115 959 82 926 q 210 992 149 992 q 305 959 272 992 q 338 863 338 926 l 338 414 q 385 253 338 307 q 522 199 432 199 q 658 253 611 199 q 706 414 706 307 l 706 863 q 738 959 706 926 q 832 992 771 992 q 925 959 893 992 q 957 863 957 926 l 957 417 q 908 177 957 274 q 761 33 858 81 q 522 -15 664 -15 m 560 1079 l 464 1203 q 445 1257 442 1232 q 467 1301 449 1282 q 511 1326 485 1319 q 563 1323 538 1332 q 601 1285 589 1314 l 674 1138 q 678 1090 686 1111 q 649 1058 669 1069 q 603 1051 628 1047 q 560 1079 579 1054 m 328 1072 l 215 1204 q 192 1257 192 1232 q 210 1300 193 1282 q 252 1325 228 1318 q 302 1324 276 1332 q 344 1288 328 1315 l 425 1143 q 434 1096 440 1118 q 410 1060 428 1074 q 369 1049 392 1047 q 328 1072 346 1050 z "},"Ü":{"ha":1039,"x_min":82,"x_max":957,"o":"m 522 -15 q 333 12 415 -15 q 195 93 251 39 q 110 228 139 147 q 82 417 82 310 l 82 863 q 115 959 82 926 q 210 992 149 992 q 305 959 272 992 q 338 863 338 926 l 338 414 q 385 253 338 307 q 522 199 432 199 q 658 253 611 199 q 706 414 706 307 l 706 863 q 738 959 706 926 q 832 992 771 992 q 925 959 893 992 q 957 863 957 926 l 957 417 q 908 177 957 274 q 761 33 858 81 q 522 -15 664 -15 m 665 1064 q 583 1093 613 1064 q 554 1175 554 1122 q 583 1258 554 1229 q 665 1286 613 1286 q 748 1258 719 1286 q 776 1175 776 1229 q 748 1093 776 1122 q 665 1064 719 1064 m 379 1064 q 297 1093 326 1064 q 268 1175 268 1122 q 297 1258 268 1229 q 379 1286 326 1286 q 462 1258 433 1286 q 490 1175 490 1229 q 462 1093 490 1122 q 379 1064 433 1064 z "},"Ụ":{"ha":1039,"x_min":82,"x_max":957,"o":"m 522 -15 q 333 12 415 -15 q 195 93 251 39 q 110 228 139 147 q 82 417 82 310 l 82 863 q 115 959 82 926 q 210 992 149 992 q 305 959 272 992 q 338 863 338 926 l 338 414 q 385 253 338 307 q 522 199 432 199 q 658 253 611 199 q 706 414 706 307 l 706 863 q 738 959 706 926 q 832 992 771 992 q 925 959 893 992 q 957 863 957 926 l 957 417 q 908 177 957 274 q 761 33 858 81 q 522 -15 664 -15 m 522 -319 q 435 -290 465 -319 q 404 -207 404 -260 q 435 -124 404 -153 q 522 -96 465 -96 q 610 -124 581 -96 q 640 -207 640 -153 q 610 -290 640 -261 q 522 -319 581 -319 z "},"Ù":{"ha":1039,"x_min":82,"x_max":957,"o":"m 522 -15 q 333 12 415 -15 q 195 93 251 39 q 110 228 139 147 q 82 417 82 310 l 82 863 q 115 959 82 926 q 210 992 149 992 q 305 959 272 992 q 338 863 338 926 l 338 414 q 385 253 338 307 q 522 199 432 199 q 658 253 611 199 q 706 414 706 307 l 706 863 q 738 959 706 926 q 832 992 771 992 q 925 959 893 992 q 957 863 957 926 l 957 417 q 908 177 957 274 q 761 33 858 81 q 522 -15 664 -15 m 426 1074 l 311 1190 q 289 1242 288 1215 q 308 1290 290 1268 q 351 1322 325 1311 q 406 1326 378 1332 q 454 1292 433 1321 l 544 1157 q 554 1106 561 1131 q 526 1066 547 1082 q 478 1050 506 1050 q 426 1074 451 1050 z "},"Ủ":{"ha":1039,"x_min":82,"x_max":957,"o":"m 522 -15 q 333 12 415 -15 q 195 93 251 39 q 110 228 139 147 q 82 417 82 310 l 82 863 q 115 959 82 926 q 210 992 149 992 q 305 959 272 992 q 338 863 338 926 l 338 414 q 385 253 338 307 q 522 199 432 199 q 658 253 611 199 q 706 414 706 307 l 706 863 q 738 959 706 926 q 832 992 771 992 q 925 959 893 992 q 957 863 957 926 l 957 417 q 908 177 957 274 q 761 33 858 81 q 522 -15 664 -15 m 522 1050 q 470 1060 489 1050 q 451 1090 451 1071 q 462 1125 451 1111 q 485 1149 472 1139 q 509 1169 499 1160 q 519 1189 519 1178 q 507 1207 519 1201 q 474 1213 494 1213 q 455 1212 465 1213 q 435 1208 444 1211 q 391 1209 408 1203 q 365 1238 374 1215 q 365 1276 357 1258 q 400 1303 372 1294 q 463 1315 426 1311 q 538 1319 499 1319 q 655 1295 613 1319 q 697 1228 697 1271 q 682 1177 697 1196 q 646 1145 667 1158 q 609 1118 625 1132 q 593 1081 593 1104 q 575 1058 593 1067 q 522 1050 557 1050 z "},"Ư":{"ha":1039,"x_min":82,"x_max":1110,"o":"m 522 -15 q 333 12 415 -15 q 195 93 251 39 q 110 228 139 147 q 82 417 82 310 l 82 863 q 115 959 82 926 q 210 992 149 992 q 305 959 272 992 q 338 863 338 926 l 338 414 q 385 253 338 307 q 522 199 432 199 q 658 253 611 199 q 706 414 706 307 l 706 863 q 738 959 706 926 q 832 992 771 992 q 925 959 893 992 q 957 863 957 926 l 957 417 q 908 177 957 274 q 761 33 858 81 q 522 -15 664 -15 m 931 867 l 782 958 l 782 979 q 844 988 818 978 q 883 1022 869 999 q 896 1085 896 1046 q 924 1144 896 1124 q 1004 1164 953 1164 q 1083 1144 1056 1164 q 1110 1085 1110 1125 q 1087 981 1110 1028 q 1024 905 1064 935 q 931 867 985 875 z "},"Ứ":{"ha":1039,"x_min":82,"x_max":1110,"o":"m 522 -15 q 333 12 415 -15 q 195 93 251 39 q 110 228 139 147 q 82 417 82 310 l 82 863 q 115 959 82 926 q 210 992 149 992 q 305 959 272 992 q 338 863 338 926 l 338 414 q 385 253 338 307 q 522 199 432 199 q 658 253 611 199 q 706 414 706 307 l 706 863 q 738 959 706 926 q 832 992 771 992 q 925 959 893 992 q 957 863 957 926 l 957 417 q 908 177 957 274 q 761 33 858 81 q 522 -15 664 -15 m 931 867 l 782 958 l 782 979 q 844 988 818 978 q 883 1022 869 999 q 896 1085 896 1046 q 924 1144 896 1124 q 1004 1164 953 1164 q 1083 1144 1056 1164 q 1110 1085 1110 1125 q 1087 981 1110 1028 q 1024 905 1064 935 q 931 867 985 875 m 618 1074 q 567 1050 594 1050 q 519 1066 540 1050 q 490 1106 497 1082 q 501 1157 483 1131 l 592 1292 q 639 1326 611 1321 q 693 1322 667 1332 q 738 1290 719 1311 q 757 1242 756 1268 q 733 1190 758 1215 l 618 1074 z "},"Ự":{"ha":1039,"x_min":82,"x_max":1110,"o":"m 522 -15 q 333 12 415 -15 q 195 93 251 39 q 110 228 139 147 q 82 417 82 310 l 82 863 q 115 959 82 926 q 210 992 149 992 q 305 959 272 992 q 338 863 338 926 l 338 414 q 385 253 338 307 q 522 199 432 199 q 658 253 611 199 q 706 414 706 307 l 706 863 q 738 959 706 926 q 832 992 771 992 q 925 959 893 992 q 957 863 957 926 l 957 417 q 908 177 957 274 q 761 33 858 81 q 522 -15 664 -15 m 931 867 l 782 958 l 782 979 q 844 988 818 978 q 883 1022 869 999 q 896 1085 896 1046 q 924 1144 896 1124 q 1004 1164 953 1164 q 1083 1144 1056 1164 q 1110 1085 1110 1125 q 1087 981 1110 1028 q 1024 905 1064 935 q 931 867 985 875 m 522 -319 q 435 -290 465 -319 q 404 -207 404 -260 q 435 -124 404 -153 q 522 -96 465 -96 q 610 -124 581 -96 q 640 -207 640 -153 q 610 -290 640 -261 q 522 -319 581 -319 z "},"Ừ":{"ha":1039,"x_min":82,"x_max":1110,"o":"m 522 -15 q 333 12 415 -15 q 195 93 251 39 q 110 228 139 147 q 82 417 82 310 l 82 863 q 115 959 82 926 q 210 992 149 992 q 305 959 272 992 q 338 863 338 926 l 338 414 q 385 253 338 307 q 522 199 432 199 q 658 253 611 199 q 706 414 706 307 l 706 863 q 738 959 706 926 q 832 992 771 992 q 925 959 893 992 q 957 863 957 926 l 957 417 q 908 177 957 274 q 761 33 858 81 q 522 -15 664 -15 m 931 867 l 782 958 l 782 979 q 844 988 818 978 q 883 1022 869 999 q 896 1085 896 1046 q 924 1144 896 1124 q 1004 1164 953 1164 q 1083 1144 1056 1164 q 1110 1085 1110 1125 q 1087 981 1110 1028 q 1024 905 1064 935 q 931 867 985 875 m 426 1074 l 311 1190 q 289 1242 288 1215 q 308 1290 290 1268 q 351 1322 325 1311 q 406 1326 378 1332 q 454 1292 433 1321 l 544 1157 q 554 1106 561 1131 q 526 1066 547 1082 q 478 1050 506 1050 q 426 1074 451 1050 z "},"Ử":{"ha":1039,"x_min":82,"x_max":1110,"o":"m 522 -15 q 333 12 415 -15 q 195 93 251 39 q 110 228 139 147 q 82 417 82 310 l 82 863 q 115 959 82 926 q 210 992 149 992 q 305 959 272 992 q 338 863 338 926 l 338 414 q 385 253 338 307 q 522 199 432 199 q 658 253 611 199 q 706 414 706 307 l 706 863 q 738 959 706 926 q 832 992 771 992 q 925 959 893 992 q 957 863 957 926 l 957 417 q 908 177 957 274 q 761 33 858 81 q 522 -15 664 -15 m 931 867 l 782 958 l 782 979 q 844 988 818 978 q 883 1022 869 999 q 896 1085 896 1046 q 924 1144 896 1124 q 1004 1164 953 1164 q 1083 1144 1056 1164 q 1110 1085 1110 1125 q 1087 981 1110 1028 q 1024 905 1064 935 q 931 867 985 875 m 522 1050 q 470 1060 489 1050 q 451 1090 451 1071 q 462 1125 451 1111 q 485 1149 472 1139 q 509 1169 499 1160 q 519 1189 519 1178 q 507 1207 519 1201 q 474 1213 494 1213 q 455 1212 465 1213 q 435 1208 444 1211 q 391 1209 408 1203 q 365 1238 374 1215 q 365 1276 357 1258 q 400 1303 372 1294 q 463 1315 426 1311 q 538 1319 499 1319 q 655 1295 613 1319 q 697 1228 697 1271 q 682 1177 697 1196 q 646 1145 667 1158 q 609 1118 625 1132 q 593 1081 593 1104 q 575 1058 593 1067 q 522 1050 557 1050 z "},"Ữ":{"ha":1039,"x_min":82,"x_max":1110,"o":"m 522 -15 q 333 12 415 -15 q 195 93 251 39 q 110 228 139 147 q 82 417 82 310 l 82 863 q 115 959 82 926 q 210 992 149 992 q 305 959 272 992 q 338 863 338 926 l 338 414 q 385 253 338 307 q 522 199 432 199 q 658 253 611 199 q 706 414 706 307 l 706 863 q 738 959 706 926 q 832 992 771 992 q 925 959 893 992 q 957 863 957 926 l 957 417 q 908 177 957 274 q 761 33 858 81 q 522 -15 664 -15 m 931 867 l 782 958 l 782 979 q 844 988 818 978 q 883 1022 869 999 q 896 1085 896 1046 q 924 1144 896 1124 q 1004 1164 953 1164 q 1083 1144 1056 1164 q 1110 1085 1110 1125 q 1087 981 1110 1028 q 1024 905 1064 935 q 931 867 985 875 m 260 1050 q 217 1072 232 1053 q 208 1121 203 1090 q 274 1247 224 1201 q 393 1292 324 1292 q 456 1281 429 1292 q 506 1254 483 1269 q 553 1228 529 1239 q 603 1217 576 1217 q 642 1227 625 1217 q 668 1254 658 1238 q 699 1292 685 1279 q 742 1303 714 1306 q 782 1283 768 1301 q 790 1232 796 1264 q 726 1108 775 1153 q 606 1063 676 1063 q 543 1074 571 1063 q 492 1099 515 1085 q 447 1125 469 1114 q 397 1136 424 1136 q 358 1126 375 1136 q 332 1099 342 1115 q 301 1062 317 1075 q 260 1050 286 1049 z "},"Ű":{"ha":1039,"x_min":82,"x_max":957,"o":"m 522 -15 q 333 12 415 -15 q 195 93 251 39 q 110 228 139 147 q 82 417 82 310 l 82 863 q 115 959 82 926 q 210 992 149 992 q 305 959 272 992 q 338 863 338 926 l 338 414 q 385 253 338 307 q 522 199 432 199 q 658 253 611 199 q 706 414 706 307 l 706 863 q 738 959 706 926 q 832 992 771 992 q 925 959 893 992 q 957 863 957 926 l 957 417 q 908 177 957 274 q 761 33 858 81 q 522 -15 664 -15 m 485 1079 q 441 1051 465 1054 q 397 1058 417 1047 q 368 1090 376 1069 q 371 1138 360 1111 l 443 1285 q 481 1323 456 1314 q 533 1326 507 1332 q 578 1301 560 1319 q 599 1257 596 1282 q 581 1203 603 1232 l 485 1079 m 717 1072 q 676 1049 699 1050 q 635 1060 653 1047 q 610 1095 617 1074 q 619 1143 604 1117 l 701 1288 q 742 1324 717 1315 q 793 1325 768 1332 q 835 1300 818 1318 q 853 1257 851 1282 q 831 1204 854 1232 l 717 1072 z "},"Ȗ":{"ha":1039,"x_min":82,"x_max":957,"o":"m 522 -15 q 333 12 415 -15 q 195 93 251 39 q 110 228 139 147 q 82 417 82 310 l 82 863 q 115 959 82 926 q 210 992 149 992 q 305 959 272 992 q 338 863 338 926 l 338 414 q 385 253 338 307 q 522 199 432 199 q 658 253 611 199 q 706 414 706 307 l 706 863 q 738 959 706 926 q 832 992 771 992 q 925 959 893 992 q 957 863 957 926 l 957 417 q 908 177 957 274 q 761 33 858 81 q 522 -15 664 -15 m 310 1057 q 263 1084 278 1060 q 260 1144 249 1108 q 355 1267 283 1222 q 521 1311 426 1311 q 688 1267 617 1311 q 783 1144 760 1222 q 781 1085 796 1110 q 733 1057 765 1060 q 689 1062 706 1053 q 663 1085 672 1071 q 644 1111 653 1100 q 595 1159 628 1144 q 521 1174 563 1174 q 449 1159 482 1174 q 399 1111 417 1144 q 381 1085 390 1100 q 354 1063 371 1071 q 310 1057 338 1054 z "},"Ū":{"ha":1039,"x_min":82,"x_max":957,"o":"m 522 -15 q 333 12 415 -15 q 195 93 251 39 q 110 228 139 147 q 82 417 82 310 l 82 863 q 115 959 82 926 q 210 992 149 992 q 305 959 272 992 q 338 863 338 926 l 338 414 q 385 253 338 307 q 522 199 432 199 q 658 253 611 199 q 706 414 706 307 l 706 863 q 738 959 706 926 q 832 992 771 992 q 925 959 893 992 q 957 863 957 926 l 957 417 q 908 177 957 274 q 761 33 858 81 q 522 -15 664 -15 m 326 1106 q 256 1172 256 1106 q 274 1222 256 1204 q 326 1240 292 1240 l 719 1240 q 789 1172 789 1240 q 771 1124 789 1142 q 719 1106 753 1106 l 326 1106 z "},"Ṻ":{"ha":1039,"x_min":82,"x_max":957,"o":"m 522 -15 q 333 12 415 -15 q 195 93 251 39 q 110 228 139 147 q 82 417 82 310 l 82 863 q 115 959 82 926 q 210 992 149 992 q 305 959 272 992 q 338 863 338 926 l 338 414 q 385 253 338 307 q 522 199 432 199 q 658 253 611 199 q 706 414 706 307 l 706 863 q 738 959 706 926 q 832 992 771 992 q 925 959 893 992 q 957 863 957 926 l 957 417 q 908 177 957 274 q 761 33 858 81 q 522 -15 664 -15 m 357 1078 q 300 1095 319 1078 q 281 1144 281 1113 q 300 1194 281 1176 q 357 1213 319 1213 l 688 1213 q 744 1194 725 1213 q 764 1144 764 1176 q 744 1095 764 1113 q 688 1078 725 1078 l 357 1078 m 379 1263 q 297 1283 326 1263 q 268 1342 268 1303 q 297 1402 268 1381 q 379 1424 326 1424 q 462 1402 433 1424 q 490 1342 490 1381 q 462 1283 490 1303 q 379 1263 433 1263 m 665 1263 q 583 1283 613 1263 q 554 1342 554 1303 q 583 1402 554 1381 q 665 1424 613 1424 q 748 1402 719 1424 q 776 1342 776 1381 q 748 1283 776 1303 q 665 1263 719 1263 z "},"Ų":{"ha":1039,"x_min":82,"x_max":957,"o":"m 522 -15 q 333 12 415 -15 q 195 93 251 39 q 110 228 139 147 q 82 417 82 310 l 82 863 q 115 959 82 926 q 210 992 149 992 q 305 959 272 992 q 338 863 338 926 l 338 414 q 385 253 338 307 q 522 199 432 199 q 658 253 611 199 q 706 414 706 307 l 706 863 q 738 959 706 926 q 832 992 771 992 q 925 959 893 992 q 957 863 957 926 l 957 417 q 908 177 957 274 q 761 33 858 81 q 522 -15 664 -15 m 568 -275 q 431 -233 479 -275 q 382 -121 382 -192 q 425 -7 382 -57 q 535 67 468 43 l 601 0 q 561 -24 578 -10 q 536 -56 544 -39 q 528 -92 528 -74 q 549 -137 528 -121 q 601 -154 571 -154 q 620 -153 611 -154 q 639 -150 629 -151 q 689 -158 671 -144 q 710 -192 707 -171 q 700 -234 713 -214 q 660 -264 688 -254 q 612 -273 636 -271 q 568 -275 588 -275 z "},"Ů":{"ha":1039,"x_min":82,"x_max":957,"o":"m 522 -15 q 333 12 415 -15 q 195 93 251 39 q 110 228 139 147 q 82 417 82 310 l 82 863 q 115 959 82 926 q 210 992 149 992 q 305 959 272 992 q 338 863 338 926 l 338 414 q 385 253 338 307 q 522 199 432 199 q 658 253 611 199 q 706 414 706 307 l 706 863 q 738 959 706 926 q 832 992 771 992 q 925 959 893 992 q 957 863 957 926 l 957 417 q 908 177 957 274 q 761 33 858 81 q 522 -15 664 -15 m 522 1044 q 427 1068 469 1044 q 360 1134 385 1092 q 335 1225 335 1176 q 360 1319 335 1278 q 427 1383 385 1360 q 522 1407 469 1407 q 618 1383 576 1407 q 685 1319 660 1360 q 710 1225 710 1278 q 685 1133 710 1175 q 618 1068 660 1092 q 522 1044 576 1044 m 522 1146 q 579 1169 557 1146 q 601 1225 601 1192 q 579 1282 601 1260 q 522 1304 557 1304 q 466 1282 489 1304 q 443 1225 443 1260 q 466 1169 443 1192 q 522 1146 489 1146 z "},"Ũ":{"ha":1039,"x_min":82,"x_max":957,"o":"m 522 -15 q 333 12 415 -15 q 195 93 251 39 q 110 228 139 147 q 82 417 82 310 l 82 863 q 115 959 82 926 q 210 992 149 992 q 305 959 272 992 q 338 863 338 926 l 338 414 q 385 253 338 307 q 522 199 432 199 q 658 253 611 199 q 706 414 706 307 l 706 863 q 738 959 706 926 q 832 992 771 992 q 925 959 893 992 q 957 863 957 926 l 957 417 q 908 177 957 274 q 761 33 858 81 q 522 -15 664 -15 m 250 1050 q 205 1069 221 1053 q 196 1117 189 1086 q 269 1247 214 1201 q 399 1292 325 1292 q 472 1281 439 1292 q 536 1254 506 1269 q 594 1228 567 1239 q 650 1217 622 1217 q 697 1228 678 1217 q 726 1258 717 1239 q 755 1293 740 1281 q 794 1303 769 1306 q 840 1284 824 1301 q 849 1236 856 1267 q 776 1107 831 1151 q 646 1063 721 1063 q 573 1074 607 1063 q 508 1099 539 1085 q 450 1125 478 1114 q 394 1136 422 1136 q 348 1125 368 1136 q 318 1096 328 1114 q 290 1061 304 1074 q 250 1050 275 1049 z "},"Ṹ":{"ha":1039,"x_min":82,"x_max":957,"o":"m 522 -15 q 333 12 415 -15 q 195 93 251 39 q 110 228 139 147 q 82 417 82 310 l 82 863 q 115 959 82 926 q 210 992 149 992 q 305 959 272 992 q 338 863 338 926 l 338 414 q 385 253 338 307 q 522 199 432 199 q 658 253 611 199 q 706 414 706 307 l 706 863 q 738 959 706 926 q 832 992 771 992 q 925 959 893 992 q 957 863 957 926 l 957 417 q 908 177 957 274 q 761 33 858 81 q 522 -15 664 -15 m 597 1263 q 551 1238 576 1240 q 505 1247 525 1235 q 476 1281 485 1258 q 481 1329 468 1303 l 524 1418 q 564 1459 538 1450 q 617 1460 590 1468 q 664 1433 644 1453 q 685 1388 683 1414 q 663 1335 688 1363 l 597 1263 m 315 1060 q 275 1078 289 1061 q 271 1124 261 1096 q 329 1201 288 1174 q 428 1229 371 1229 q 497 1217 465 1229 q 557 1194 529 1206 q 608 1183 585 1183 q 640 1187 626 1183 q 663 1200 654 1190 q 693 1226 679 1215 q 729 1235 707 1236 q 771 1216 757 1233 q 775 1171 785 1199 q 717 1092 758 1119 q 617 1064 675 1064 q 548 1076 581 1064 q 488 1099 515 1088 q 436 1111 461 1111 q 406 1107 419 1111 q 383 1093 392 1103 q 353 1069 367 1079 q 315 1060 339 1058 z "},"V":{"ha":1031,"x_min":18,"x_max":1014,"o":"m 517 -12 q 431 10 464 -12 q 376 81 399 32 l 40 822 q 26 910 18 871 q 65 970 35 949 q 142 992 96 992 q 227 967 199 992 q 276 893 256 942 l 560 238 l 482 238 l 765 894 q 815 967 786 943 q 897 992 844 992 q 969 970 940 992 q 1006 910 999 949 q 992 822 1014 871 l 654 81 q 601 10 633 32 q 517 -12 569 -12 z "},"W":{"ha":1567,"x_min":43,"x_max":1526,"o":"m 469 -12 q 386 12 418 -12 q 336 88 354 36 l 65 842 q 73 948 43 904 q 179 992 103 992 q 260 967 231 992 q 306 892 289 943 l 513 271 l 447 271 l 669 892 q 718 967 689 943 q 793 992 747 992 q 867 967 839 992 q 913 890 894 943 l 1121 271 l 1065 271 l 1278 892 q 1323 967 1294 943 q 1403 992 1351 992 q 1497 948 1467 992 q 1503 842 1526 904 l 1229 86 q 1180 12 1211 36 q 1097 -12 1149 -12 q 1013 12 1044 -12 q 964 88 982 36 l 768 638 l 803 638 l 603 86 q 553 12 583 36 q 469 -12 522 -12 z "},"Ẃ":{"ha":1567,"x_min":43,"x_max":1526,"o":"m 469 -12 q 386 12 418 -12 q 336 88 354 36 l 65 842 q 73 948 43 904 q 179 992 103 992 q 260 967 231 992 q 306 892 289 943 l 513 271 l 447 271 l 669 892 q 718 967 689 943 q 793 992 747 992 q 867 967 839 992 q 913 890 894 943 l 1121 271 l 1065 271 l 1278 892 q 1323 967 1294 943 q 1403 992 1351 992 q 1497 948 1467 992 q 1503 842 1526 904 l 1229 86 q 1180 12 1211 36 q 1097 -12 1149 -12 q 1013 12 1044 -12 q 964 88 982 36 l 768 638 l 803 638 l 603 86 q 553 12 583 36 q 469 -12 522 -12 m 881 1074 q 830 1050 857 1050 q 781 1066 803 1050 q 753 1106 760 1082 q 764 1157 746 1131 l 854 1292 q 901 1326 874 1321 q 956 1322 929 1332 q 1000 1290 982 1311 q 1019 1242 1018 1268 q 996 1190 1021 1215 l 881 1074 z "},"Ŵ":{"ha":1567,"x_min":43,"x_max":1526,"o":"m 469 -12 q 386 12 418 -12 q 336 88 354 36 l 65 842 q 73 948 43 904 q 179 992 103 992 q 260 967 231 992 q 306 892 289 943 l 513 271 l 447 271 l 669 892 q 718 967 689 943 q 793 992 747 992 q 867 967 839 992 q 913 890 894 943 l 1121 271 l 1065 271 l 1278 892 q 1323 967 1294 943 q 1403 992 1351 992 q 1497 948 1467 992 q 1503 842 1526 904 l 1229 86 q 1180 12 1211 36 q 1097 -12 1149 -12 q 1013 12 1044 -12 q 964 88 982 36 l 768 638 l 803 638 l 603 86 q 553 12 583 36 q 469 -12 522 -12 m 688 1075 q 638 1050 665 1051 q 588 1063 610 1049 q 559 1100 565 1076 q 571 1149 553 1124 l 646 1254 q 708 1311 674 1293 q 785 1329 742 1329 q 863 1311 828 1329 q 924 1254 897 1293 l 999 1149 q 1011 1100 1018 1124 q 983 1063 1004 1076 q 933 1050 961 1049 q 882 1075 906 1051 l 785 1182 l 688 1075 z "},"Ẅ":{"ha":1567,"x_min":43,"x_max":1526,"o":"m 469 -12 q 386 12 418 -12 q 336 88 354 36 l 65 842 q 73 948 43 904 q 179 992 103 992 q 260 967 231 992 q 306 892 289 943 l 513 271 l 447 271 l 669 892 q 718 967 689 943 q 793 992 747 992 q 867 967 839 992 q 913 890 894 943 l 1121 271 l 1065 271 l 1278 892 q 1323 967 1294 943 q 1403 992 1351 992 q 1497 948 1467 992 q 1503 842 1526 904 l 1229 86 q 1180 12 1211 36 q 1097 -12 1149 -12 q 1013 12 1044 -12 q 964 88 982 36 l 768 638 l 803 638 l 603 86 q 553 12 583 36 q 469 -12 522 -12 m 928 1064 q 846 1093 875 1064 q 817 1175 817 1122 q 846 1258 817 1229 q 928 1286 875 1286 q 1010 1258 982 1286 q 1039 1175 1039 1229 q 1010 1093 1039 1122 q 928 1064 982 1064 m 642 1064 q 560 1093 589 1064 q 531 1175 531 1122 q 560 1258 531 1229 q 642 1286 589 1286 q 724 1258 696 1286 q 753 1175 753 1229 q 724 1093 753 1122 q 642 1064 696 1064 z "},"Ẁ":{"ha":1567,"x_min":43,"x_max":1526,"o":"m 469 -12 q 386 12 418 -12 q 336 88 354 36 l 65 842 q 73 948 43 904 q 179 992 103 992 q 260 967 231 992 q 306 892 289 943 l 513 271 l 447 271 l 669 892 q 718 967 689 943 q 793 992 747 992 q 867 967 839 992 q 913 890 894 943 l 1121 271 l 1065 271 l 1278 892 q 1323 967 1294 943 q 1403 992 1351 992 q 1497 948 1467 992 q 1503 842 1526 904 l 1229 86 q 1180 12 1211 36 q 1097 -12 1149 -12 q 1013 12 1044 -12 q 964 88 982 36 l 768 638 l 803 638 l 603 86 q 553 12 583 36 q 469 -12 522 -12 m 689 1074 l 574 1190 q 551 1242 550 1215 q 570 1290 553 1268 q 614 1322 588 1311 q 668 1326 640 1332 q 717 1292 696 1321 l 807 1157 q 817 1106 824 1131 q 789 1066 810 1082 q 741 1050 768 1050 q 689 1074 714 1050 z "},"X":{"ha":969,"x_min":57,"x_max":914,"o":"m 179 -12 q 99 14 131 -12 q 62 81 67 40 q 89 163 57 121 l 383 551 l 383 436 l 97 815 q 70 899 65 858 q 107 965 75 939 q 188 992 139 992 q 258 972 228 992 q 319 910 289 953 l 526 622 l 443 622 l 651 910 q 713 973 682 954 q 783 992 743 992 q 865 966 833 992 q 902 900 897 940 q 874 815 907 860 l 586 436 l 586 551 l 881 163 q 909 81 914 121 q 872 14 904 40 q 790 -12 840 -12 q 721 6 751 -12 q 658 69 690 25 l 444 365 l 525 365 l 313 69 q 250 6 281 25 q 179 -12 219 -12 z "},"Y":{"ha":896,"x_min":29,"x_max":868,"o":"m 447 -12 q 353 22 386 -12 q 319 119 319 56 l 319 500 l 372 360 l 53 819 q 33 894 29 853 q 66 963 36 935 q 151 992 96 992 q 222 973 190 992 q 282 910 254 954 l 476 624 l 426 624 l 621 911 q 681 974 650 956 q 753 992 711 992 q 835 965 806 992 q 866 899 864 939 q 840 817 868 858 l 524 360 l 575 500 l 575 119 q 447 -12 575 -12 z "},"Ý":{"ha":896,"x_min":29,"x_max":868,"o":"m 447 -12 q 353 22 386 -12 q 319 119 319 56 l 319 500 l 372 360 l 53 819 q 33 894 29 853 q 66 963 36 935 q 151 992 96 992 q 222 973 190 992 q 282 910 254 954 l 476 624 l 426 624 l 621 911 q 681 974 650 956 q 753 992 711 992 q 835 965 806 992 q 866 899 864 939 q 840 817 868 858 l 524 360 l 575 500 l 575 119 q 447 -12 575 -12 m 543 1074 q 492 1050 519 1050 q 444 1066 465 1050 q 415 1106 422 1082 q 426 1157 408 1131 l 517 1292 q 564 1326 536 1321 q 618 1322 592 1332 q 663 1290 644 1311 q 682 1242 681 1268 q 658 1190 683 1215 l 543 1074 z "},"Ŷ":{"ha":896,"x_min":29,"x_max":868,"o":"m 447 -12 q 353 22 386 -12 q 319 119 319 56 l 319 500 l 372 360 l 53 819 q 33 894 29 853 q 66 963 36 935 q 151 992 96 992 q 222 973 190 992 q 282 910 254 954 l 476 624 l 426 624 l 621 911 q 681 974 650 956 q 753 992 711 992 q 835 965 806 992 q 866 899 864 939 q 840 817 868 858 l 524 360 l 575 500 l 575 119 q 447 -12 575 -12 m 350 1075 q 300 1050 328 1051 q 250 1063 272 1049 q 222 1100 228 1076 q 233 1149 215 1124 l 308 1254 q 370 1311 336 1293 q 447 1329 404 1329 q 525 1311 490 1329 q 586 1254 560 1293 l 661 1149 q 674 1100 681 1124 q 645 1063 667 1076 q 596 1050 624 1049 q 544 1075 568 1051 l 447 1182 l 350 1075 z "},"Ÿ":{"ha":896,"x_min":29,"x_max":868,"o":"m 447 -12 q 353 22 386 -12 q 319 119 319 56 l 319 500 l 372 360 l 53 819 q 33 894 29 853 q 66 963 36 935 q 151 992 96 992 q 222 973 190 992 q 282 910 254 954 l 476 624 l 426 624 l 621 911 q 681 974 650 956 q 753 992 711 992 q 835 965 806 992 q 866 899 864 939 q 840 817 868 858 l 524 360 l 575 500 l 575 119 q 447 -12 575 -12 m 590 1064 q 508 1093 538 1064 q 479 1175 479 1122 q 508 1258 479 1229 q 590 1286 538 1286 q 673 1258 644 1286 q 701 1175 701 1229 q 673 1093 701 1122 q 590 1064 644 1064 m 304 1064 q 222 1093 251 1064 q 193 1175 193 1122 q 222 1258 193 1229 q 304 1286 251 1286 q 387 1258 358 1286 q 415 1175 415 1229 q 387 1093 415 1122 q 304 1064 358 1064 z "},"Ẏ":{"ha":896,"x_min":29,"x_max":868,"o":"m 447 -12 q 353 22 386 -12 q 319 119 319 56 l 319 500 l 372 360 l 53 819 q 33 894 29 853 q 66 963 36 935 q 151 992 96 992 q 222 973 190 992 q 282 910 254 954 l 476 624 l 426 624 l 621 911 q 681 974 650 956 q 753 992 711 992 q 835 965 806 992 q 866 899 864 939 q 840 817 868 858 l 524 360 l 575 500 l 575 119 q 447 -12 575 -12 m 447 1072 q 360 1102 390 1072 q 329 1185 329 1132 q 360 1267 329 1239 q 447 1296 390 1296 q 535 1267 506 1296 q 565 1185 565 1239 q 535 1101 565 1131 q 447 1072 506 1072 z "},"Ỵ":{"ha":896,"x_min":29,"x_max":868,"o":"m 447 -12 q 353 22 386 -12 q 319 119 319 56 l 319 500 l 372 360 l 53 819 q 33 894 29 853 q 66 963 36 935 q 151 992 96 992 q 222 973 190 992 q 282 910 254 954 l 476 624 l 426 624 l 621 911 q 681 974 650 956 q 753 992 711 992 q 835 965 806 992 q 866 899 864 939 q 840 817 868 858 l 524 360 l 575 500 l 575 119 q 447 -12 575 -12 m 449 -319 q 361 -290 392 -319 q 331 -207 331 -260 q 361 -124 331 -153 q 449 -96 392 -96 q 537 -124 507 -96 q 567 -207 567 -153 q 537 -290 567 -261 q 449 -319 507 -319 z "},"Ỳ":{"ha":896,"x_min":29,"x_max":868,"o":"m 447 -12 q 353 22 386 -12 q 319 119 319 56 l 319 500 l 372 360 l 53 819 q 33 894 29 853 q 66 963 36 935 q 151 992 96 992 q 222 973 190 992 q 282 910 254 954 l 476 624 l 426 624 l 621 911 q 681 974 650 956 q 753 992 711 992 q 835 965 806 992 q 866 899 864 939 q 840 817 868 858 l 524 360 l 575 500 l 575 119 q 447 -12 575 -12 m 351 1074 l 236 1190 q 214 1242 213 1215 q 233 1290 215 1268 q 276 1322 250 1311 q 331 1326 303 1332 q 379 1292 358 1321 l 469 1157 q 479 1106 486 1131 q 451 1066 472 1082 q 403 1050 431 1050 q 351 1074 376 1050 z "},"Ƴ":{"ha":932,"x_min":29,"x_max":996,"o":"m 447 -12 q 353 22 386 -12 q 319 119 319 56 l 319 500 l 372 360 l 53 819 q 33 894 29 853 q 66 963 36 935 q 151 992 96 992 q 209 983 188 992 q 249 953 231 974 q 292 896 268 932 l 476 624 l 426 624 l 572 843 q 648 926 607 893 q 740 976 689 960 q 851 993 792 993 q 958 974 921 993 q 996 892 996 956 q 988 847 996 865 q 965 821 979 829 q 935 813 951 813 q 917 814 926 813 q 899 815 908 815 q 842 800 869 815 q 792 751 814 785 l 524 360 l 575 500 l 575 119 q 447 -12 575 -12 z "},"Ỷ":{"ha":896,"x_min":29,"x_max":868,"o":"m 447 -12 q 353 22 386 -12 q 319 119 319 56 l 319 500 l 372 360 l 53 819 q 33 894 29 853 q 66 963 36 935 q 151 992 96 992 q 222 973 190 992 q 282 910 254 954 l 476 624 l 426 624 l 621 911 q 681 974 650 956 q 753 992 711 992 q 835 965 806 992 q 866 899 864 939 q 840 817 868 858 l 524 360 l 575 500 l 575 119 q 447 -12 575 -12 m 447 1050 q 395 1060 414 1050 q 376 1090 376 1071 q 387 1125 376 1111 q 410 1149 397 1139 q 434 1169 424 1160 q 444 1189 444 1178 q 432 1207 444 1201 q 399 1213 419 1213 q 380 1212 390 1213 q 360 1208 369 1211 q 316 1209 333 1203 q 290 1238 299 1215 q 290 1276 282 1258 q 325 1303 297 1294 q 388 1315 351 1311 q 463 1319 424 1319 q 580 1295 538 1319 q 622 1228 622 1271 q 607 1177 622 1196 q 571 1145 592 1158 q 534 1118 550 1132 q 518 1081 518 1104 q 500 1058 518 1067 q 447 1050 482 1050 z "},"Ȳ":{"ha":896,"x_min":29,"x_max":868,"o":"m 447 -12 q 353 22 386 -12 q 319 119 319 56 l 319 500 l 372 360 l 53 819 q 33 894 29 853 q 66 963 36 935 q 151 992 96 992 q 222 973 190 992 q 282 910 254 954 l 476 624 l 426 624 l 621 911 q 681 974 650 956 q 753 992 711 992 q 835 965 806 992 q 866 899 864 939 q 840 817 868 858 l 524 360 l 575 500 l 575 119 q 447 -12 575 -12 m 251 1106 q 181 1172 181 1106 q 199 1222 181 1204 q 251 1240 217 1240 l 644 1240 q 714 1172 714 1240 q 696 1124 714 1142 q 644 1106 678 1106 l 251 1106 z "},"Ỹ":{"ha":896,"x_min":29,"x_max":868,"o":"m 447 -12 q 353 22 386 -12 q 319 119 319 56 l 319 500 l 372 360 l 53 819 q 33 894 29 853 q 66 963 36 935 q 151 992 96 992 q 222 973 190 992 q 282 910 254 954 l 476 624 l 426 624 l 621 911 q 681 974 650 956 q 753 992 711 992 q 835 965 806 992 q 866 899 864 939 q 840 817 868 858 l 524 360 l 575 500 l 575 119 q 447 -12 575 -12 m 175 1050 q 130 1069 146 1053 q 121 1117 114 1086 q 194 1247 139 1201 q 324 1292 250 1292 q 397 1281 364 1292 q 461 1254 431 1269 q 519 1228 492 1239 q 575 1217 547 1217 q 622 1228 603 1217 q 651 1258 642 1239 q 680 1293 665 1281 q 719 1303 694 1306 q 765 1284 749 1301 q 774 1236 781 1267 q 701 1107 756 1151 q 571 1063 646 1063 q 498 1074 532 1063 q 433 1099 464 1085 q 375 1125 403 1114 q 319 1136 347 1136 q 273 1125 293 1136 q 243 1096 253 1114 q 215 1061 229 1074 q 175 1050 200 1049 z "},"Z":{"ha":868,"x_min":46,"x_max":853,"o":"m 179 0 q 99 21 131 0 q 57 77 68 42 q 57 155 46 113 q 103 240 68 197 l 582 842 l 582 769 l 160 769 q 78 797 106 769 q 50 875 50 824 q 78 953 50 926 q 160 979 106 979 l 701 979 q 781 958 750 979 q 824 903 813 938 q 824 825 835 868 q 778 739 813 782 l 299 138 l 299 210 l 743 210 q 824 183 796 210 q 853 106 853 157 q 824 27 853 54 q 743 0 796 0 l 179 0 z "},"Ź":{"ha":868,"x_min":46,"x_max":853,"o":"m 179 0 q 99 21 131 0 q 57 77 68 42 q 57 155 46 113 q 103 240 68 197 l 582 842 l 582 769 l 160 769 q 78 797 106 769 q 50 875 50 824 q 78 953 50 926 q 160 979 106 979 l 701 979 q 781 958 750 979 q 824 903 813 938 q 824 825 835 868 q 778 739 813 782 l 299 138 l 299 210 l 743 210 q 824 183 796 210 q 853 106 853 157 q 824 27 853 54 q 743 0 796 0 l 179 0 m 542 1074 q 491 1050 518 1050 q 442 1066 464 1050 q 414 1106 421 1082 q 425 1157 407 1131 l 515 1292 q 563 1326 535 1321 q 617 1322 590 1332 q 661 1290 643 1311 q 681 1242 679 1268 q 657 1190 682 1215 l 542 1074 z "},"Ž":{"ha":868,"x_min":46,"x_max":853,"o":"m 179 0 q 99 21 131 0 q 57 77 68 42 q 57 155 46 113 q 103 240 68 197 l 582 842 l 582 769 l 160 769 q 78 797 106 769 q 50 875 50 824 q 78 953 50 926 q 160 979 106 979 l 701 979 q 781 958 750 979 q 824 903 813 938 q 824 825 835 868 q 778 739 813 782 l 299 138 l 299 210 l 743 210 q 824 183 796 210 q 853 106 853 157 q 824 27 853 54 q 743 0 796 0 l 179 0 m 446 1040 q 369 1059 403 1040 q 307 1115 335 1078 l 232 1219 q 220 1269 214 1246 q 249 1307 226 1293 q 299 1319 271 1321 q 349 1293 326 1318 l 446 1186 l 543 1293 q 594 1319 567 1318 q 644 1307 622 1321 q 672 1269 665 1293 q 660 1219 678 1246 l 585 1115 q 524 1059 558 1078 q 446 1040 489 1040 z "},"Ż":{"ha":868,"x_min":46,"x_max":853,"o":"m 179 0 q 99 21 131 0 q 57 77 68 42 q 57 155 46 113 q 103 240 68 197 l 582 842 l 582 769 l 160 769 q 78 797 106 769 q 50 875 50 824 q 78 953 50 926 q 160 979 106 979 l 701 979 q 781 958 750 979 q 824 903 813 938 q 824 825 835 868 q 778 739 813 782 l 299 138 l 299 210 l 743 210 q 824 183 796 210 q 853 106 853 157 q 824 27 853 54 q 743 0 796 0 l 179 0 m 446 1072 q 358 1102 389 1072 q 328 1185 328 1132 q 358 1267 328 1239 q 446 1296 389 1296 q 534 1267 504 1296 q 564 1185 564 1239 q 534 1101 564 1131 q 446 1072 504 1072 z "},"Ẓ":{"ha":868,"x_min":46,"x_max":853,"o":"m 179 0 q 99 21 131 0 q 57 77 68 42 q 57 155 46 113 q 103 240 68 197 l 582 842 l 582 769 l 160 769 q 78 797 106 769 q 50 875 50 824 q 78 953 50 926 q 160 979 106 979 l 701 979 q 781 958 750 979 q 824 903 813 938 q 824 825 835 868 q 778 739 813 782 l 299 138 l 299 210 l 743 210 q 824 183 796 210 q 853 106 853 157 q 824 27 853 54 q 743 0 796 0 l 179 0 m 447 -319 q 360 -290 390 -319 q 329 -207 329 -260 q 360 -124 329 -153 q 447 -96 390 -96 q 535 -124 506 -96 q 565 -207 565 -153 q 535 -290 565 -261 q 447 -319 506 -319 z "},"a":{"ha":789,"x_min":42,"x_max":721,"o":"m 310 -15 q 170 14 231 -15 q 76 94 110 43 q 42 210 42 144 q 81 328 42 285 q 206 390 119 371 q 435 408 292 408 l 511 408 l 511 292 l 435 292 q 345 284 381 292 q 293 260 310 276 q 276 219 276 244 q 299 167 276 188 q 365 146 322 146 q 427 161 400 146 q 471 203 454 176 q 488 267 488 231 l 488 428 q 462 499 488 478 q 374 519 436 519 q 299 512 340 519 q 206 485 257 504 q 142 481 168 471 q 101 514 115 490 q 87 565 86 538 q 105 618 88 593 q 158 657 122 643 q 281 690 225 682 q 385 699 338 699 q 573 666 499 699 q 684 566 647 633 q 721 393 721 499 l 721 113 q 692 19 721 51 q 607 -12 663 -12 q 520 19 550 -12 q 490 113 490 51 l 490 149 l 499 129 q 467 53 492 85 q 401 3 442 21 q 310 -15 361 -15 z "},"á":{"ha":789,"x_min":42,"x_max":721,"o":"m 310 -15 q 170 14 231 -15 q 76 94 110 43 q 42 210 42 144 q 81 328 42 285 q 206 390 119 371 q 435 408 292 408 l 511 408 l 511 292 l 435 292 q 345 284 381 292 q 293 260 310 276 q 276 219 276 244 q 299 167 276 188 q 365 146 322 146 q 427 161 400 146 q 471 203 454 176 q 488 267 488 231 l 488 428 q 462 499 488 478 q 374 519 436 519 q 299 512 340 519 q 206 485 257 504 q 142 481 168 471 q 101 514 115 490 q 87 565 86 538 q 105 618 88 593 q 158 657 122 643 q 281 690 225 682 q 385 699 338 699 q 573 666 499 699 q 684 566 647 633 q 721 393 721 499 l 721 113 q 692 19 721 51 q 607 -12 663 -12 q 520 19 550 -12 q 490 113 490 51 l 490 149 l 499 129 q 467 53 492 85 q 401 3 442 21 q 310 -15 361 -15 m 489 783 q 442 755 469 758 q 392 765 415 751 q 358 802 368 778 q 361 857 347 826 l 453 1042 q 497 1085 469 1075 q 553 1086 525 1094 q 603 1057 582 1078 q 630 1008 625 1036 q 613 951 635 981 l 489 783 z "},"ă":{"ha":789,"x_min":42,"x_max":721,"o":"m 310 -15 q 170 14 231 -15 q 76 94 110 43 q 42 210 42 144 q 81 328 42 285 q 206 390 119 371 q 435 408 292 408 l 511 408 l 511 292 l 435 292 q 345 284 381 292 q 293 260 310 276 q 276 219 276 244 q 299 167 276 188 q 365 146 322 146 q 427 161 400 146 q 471 203 454 176 q 488 267 488 231 l 488 428 q 462 499 488 478 q 374 519 436 519 q 299 512 340 519 q 206 485 257 504 q 142 481 168 471 q 101 514 115 490 q 87 565 86 538 q 105 618 88 593 q 158 657 122 643 q 281 690 225 682 q 385 699 338 699 q 573 666 499 699 q 684 566 647 633 q 721 393 721 499 l 721 113 q 692 19 721 51 q 607 -12 663 -12 q 520 19 550 -12 q 490 113 490 51 l 490 149 l 499 129 q 467 53 492 85 q 401 3 442 21 q 310 -15 361 -15 m 400 768 q 276 797 328 768 q 195 873 225 826 q 157 971 165 919 q 167 1031 149 1008 q 217 1057 185 1054 q 265 1041 249 1058 q 296 990 282 1024 q 337 928 310 949 q 400 908 364 908 q 464 928 436 908 q 504 990 492 949 q 535 1041 518 1024 q 583 1057 551 1058 q 633 1031 615 1054 q 643 971 651 1008 q 605 873 635 919 q 524 797 575 826 q 400 768 472 768 z "},"ắ":{"ha":789,"x_min":42,"x_max":721,"o":"m 310 -15 q 170 14 231 -15 q 76 94 110 43 q 42 210 42 144 q 81 328 42 285 q 206 390 119 371 q 435 408 292 408 l 511 408 l 511 292 l 435 292 q 345 284 381 292 q 293 260 310 276 q 276 219 276 244 q 299 167 276 188 q 365 146 322 146 q 427 161 400 146 q 471 203 454 176 q 488 267 488 231 l 488 428 q 462 499 488 478 q 374 519 436 519 q 299 512 340 519 q 206 485 257 504 q 142 481 168 471 q 101 514 115 490 q 87 565 86 538 q 105 618 88 593 q 158 657 122 643 q 281 690 225 682 q 385 699 338 699 q 573 666 499 699 q 684 566 647 633 q 721 393 721 499 l 721 113 q 692 19 721 51 q 607 -12 663 -12 q 520 19 550 -12 q 490 113 490 51 l 490 149 l 499 129 q 467 53 492 85 q 401 3 442 21 q 310 -15 361 -15 m 400 768 q 244 810 308 768 q 153 924 179 853 q 155 978 142 957 q 192 1001 168 999 q 235 993 218 1004 q 271 957 253 982 q 319 913 288 931 q 400 896 351 896 q 481 913 450 896 q 529 956 513 929 q 565 993 549 982 q 608 1001 582 1004 q 647 979 633 999 q 650 929 660 960 q 599 844 633 881 q 513 788 564 808 q 400 768 463 768 m 467 968 q 419 942 444 944 q 374 951 394 939 q 345 985 353 963 q 349 1033 338 1007 l 393 1124 q 433 1164 407 1156 q 487 1165 460 1172 q 533 1138 514 1157 q 555 1092 553 1118 q 532 1039 557 1067 l 467 968 z "},"ặ":{"ha":789,"x_min":42,"x_max":721,"o":"m 310 -15 q 170 14 231 -15 q 76 94 110 43 q 42 210 42 144 q 81 328 42 285 q 206 390 119 371 q 435 408 292 408 l 511 408 l 511 292 l 435 292 q 345 284 381 292 q 293 260 310 276 q 276 219 276 244 q 299 167 276 188 q 365 146 322 146 q 427 161 400 146 q 471 203 454 176 q 488 267 488 231 l 488 428 q 462 499 488 478 q 374 519 436 519 q 299 512 340 519 q 206 485 257 504 q 142 481 168 471 q 101 514 115 490 q 87 565 86 538 q 105 618 88 593 q 158 657 122 643 q 281 690 225 682 q 385 699 338 699 q 573 666 499 699 q 684 566 647 633 q 721 393 721 499 l 721 113 q 692 19 721 51 q 607 -12 663 -12 q 520 19 550 -12 q 490 113 490 51 l 490 149 l 499 129 q 467 53 492 85 q 401 3 442 21 q 310 -15 361 -15 m 393 -319 q 306 -290 336 -319 q 275 -207 275 -260 q 306 -124 275 -153 q 393 -96 336 -96 q 481 -124 451 -96 q 511 -207 511 -153 q 481 -290 511 -261 q 393 -319 451 -319 m 400 768 q 276 797 328 768 q 195 873 225 826 q 157 971 165 919 q 167 1031 149 1008 q 217 1057 185 1054 q 265 1041 249 1058 q 296 990 282 1024 q 337 928 310 949 q 400 908 364 908 q 464 928 436 908 q 504 990 492 949 q 535 1041 518 1024 q 583 1057 551 1058 q 633 1031 615 1054 q 643 971 651 1008 q 605 873 635 919 q 524 797 575 826 q 400 768 472 768 z "},"ằ":{"ha":789,"x_min":42,"x_max":721,"o":"m 310 -15 q 170 14 231 -15 q 76 94 110 43 q 42 210 42 144 q 81 328 42 285 q 206 390 119 371 q 435 408 292 408 l 511 408 l 511 292 l 435 292 q 345 284 381 292 q 293 260 310 276 q 276 219 276 244 q 299 167 276 188 q 365 146 322 146 q 427 161 400 146 q 471 203 454 176 q 488 267 488 231 l 488 428 q 462 499 488 478 q 374 519 436 519 q 299 512 340 519 q 206 485 257 504 q 142 481 168 471 q 101 514 115 490 q 87 565 86 538 q 105 618 88 593 q 158 657 122 643 q 281 690 225 682 q 385 699 338 699 q 573 666 499 699 q 684 566 647 633 q 721 393 721 499 l 721 113 q 692 19 721 51 q 607 -12 663 -12 q 520 19 550 -12 q 490 113 490 51 l 490 149 l 499 129 q 467 53 492 85 q 401 3 442 21 q 310 -15 361 -15 m 400 768 q 243 810 308 768 q 153 924 178 853 q 155 978 142 957 q 192 1001 168 999 q 235 993 218 1004 q 271 957 253 982 q 319 913 288 931 q 400 896 351 896 q 481 913 450 896 q 529 956 513 929 q 565 993 549 982 q 608 1001 582 1004 q 647 979 633 999 q 650 929 660 960 q 599 844 633 881 q 513 788 564 808 q 400 768 463 768 m 333 968 l 268 1039 q 245 1092 243 1067 q 267 1138 247 1118 q 313 1165 286 1157 q 367 1164 340 1172 q 407 1124 393 1156 l 451 1033 q 455 985 463 1007 q 426 951 447 963 q 381 942 406 939 q 333 968 356 944 z "},"ẳ":{"ha":789,"x_min":42,"x_max":721,"o":"m 310 -15 q 170 14 231 -15 q 76 94 110 43 q 42 210 42 144 q 81 328 42 285 q 206 390 119 371 q 435 408 292 408 l 511 408 l 511 292 l 435 292 q 345 284 381 292 q 293 260 310 276 q 276 219 276 244 q 299 167 276 188 q 365 146 322 146 q 427 161 400 146 q 471 203 454 176 q 488 267 488 231 l 488 428 q 462 499 488 478 q 374 519 436 519 q 299 512 340 519 q 206 485 257 504 q 142 481 168 471 q 101 514 115 490 q 87 565 86 538 q 105 618 88 593 q 158 657 122 643 q 281 690 225 682 q 385 699 338 699 q 573 666 499 699 q 684 566 647 633 q 721 393 721 499 l 721 113 q 692 19 721 51 q 607 -12 663 -12 q 520 19 550 -12 q 490 113 490 51 l 490 149 l 499 129 q 467 53 492 85 q 401 3 442 21 q 310 -15 361 -15 m 400 768 q 243 810 308 768 q 153 924 178 853 q 155 978 142 957 q 192 1001 168 999 q 235 993 218 1004 q 271 957 253 982 q 319 913 288 931 q 400 896 351 896 q 481 913 450 896 q 529 956 513 929 q 565 993 549 982 q 608 1001 582 1004 q 647 979 633 999 q 650 929 660 960 q 599 844 633 881 q 513 788 564 808 q 400 768 463 768 m 457 958 q 422 947 442 949 q 384 951 401 946 q 360 969 367 957 q 367 996 354 981 q 385 1019 379 1008 q 392 1042 392 1031 q 382 1060 392 1054 q 356 1065 372 1065 q 340 1065 349 1065 q 321 1061 331 1064 q 282 1064 297 1058 q 261 1089 267 1069 q 262 1124 254 1108 q 294 1144 269 1139 q 350 1156 322 1153 q 410 1158 378 1158 q 511 1140 475 1158 q 547 1082 547 1121 q 535 1035 547 1058 q 501 993 522 1013 q 457 958 481 974 z "},"ẵ":{"ha":789,"x_min":42,"x_max":721,"o":"m 310 -15 q 170 14 231 -15 q 76 94 110 43 q 42 210 42 144 q 81 328 42 285 q 206 390 119 371 q 435 408 292 408 l 511 408 l 511 292 l 435 292 q 345 284 381 292 q 293 260 310 276 q 276 219 276 244 q 299 167 276 188 q 365 146 322 146 q 427 161 400 146 q 471 203 454 176 q 488 267 488 231 l 488 428 q 462 499 488 478 q 374 519 436 519 q 299 512 340 519 q 206 485 257 504 q 142 481 168 471 q 101 514 115 490 q 87 565 86 538 q 105 618 88 593 q 158 657 122 643 q 281 690 225 682 q 385 699 338 699 q 573 666 499 699 q 684 566 647 633 q 721 393 721 499 l 721 113 q 692 19 721 51 q 607 -12 663 -12 q 520 19 550 -12 q 490 113 490 51 l 490 149 l 499 129 q 467 53 492 85 q 401 3 442 21 q 310 -15 361 -15 m 400 768 q 260 797 321 768 q 167 874 199 825 q 155 925 146 901 q 189 956 164 949 q 236 957 218 965 q 278 932 254 949 q 328 906 297 915 q 400 896 358 896 q 472 906 442 896 q 521 932 503 915 q 564 958 544 950 q 611 956 583 965 q 646 928 636 949 q 639 881 656 907 q 546 799 608 829 q 400 768 483 768 m 193 989 q 153 1008 167 990 q 149 1053 139 1025 q 207 1131 165 1103 q 306 1158 249 1158 q 375 1147 343 1158 q 435 1123 407 1135 q 486 1111 463 1111 q 518 1115 504 1111 q 540 1129 532 1119 q 571 1155 557 1144 q 607 1163 585 1165 q 649 1144 635 1161 q 653 1099 663 1128 q 594 1020 636 1047 q 494 993 553 993 q 426 1005 458 993 q 366 1028 393 1017 q 314 1040 339 1040 q 283 1036 297 1040 q 261 1022 269 1032 q 231 998 244 1008 q 193 989 217 988 z "},"ǎ":{"ha":789,"x_min":42,"x_max":721,"o":"m 310 -15 q 170 14 231 -15 q 76 94 110 43 q 42 210 42 144 q 81 328 42 285 q 206 390 119 371 q 435 408 292 408 l 511 408 l 511 292 l 435 292 q 345 284 381 292 q 293 260 310 276 q 276 219 276 244 q 299 167 276 188 q 365 146 322 146 q 427 161 400 146 q 471 203 454 176 q 488 267 488 231 l 488 428 q 462 499 488 478 q 374 519 436 519 q 299 512 340 519 q 206 485 257 504 q 142 481 168 471 q 101 514 115 490 q 87 565 86 538 q 105 618 88 593 q 158 657 122 643 q 281 690 225 682 q 385 699 338 699 q 573 666 499 699 q 684 566 647 633 q 721 393 721 499 l 721 113 q 692 19 721 51 q 607 -12 663 -12 q 520 19 550 -12 q 490 113 490 51 l 490 149 l 499 129 q 467 53 492 85 q 401 3 442 21 q 310 -15 361 -15 m 400 742 q 322 765 356 742 q 267 831 289 789 l 186 978 q 178 1031 169 1007 q 210 1067 188 1054 q 258 1076 232 1079 q 301 1047 283 1072 l 400 901 l 499 1047 q 542 1076 517 1072 q 590 1067 568 1079 q 622 1031 613 1054 q 614 978 631 1007 l 535 831 q 479 765 513 789 q 400 742 446 742 z "}}}
